<svg xmlns="http://www.w3.org/2000/svg" xmlns:xlink="http://www.w3.org/1999/xlink" contentStyleType="text/css" data-diagram-type="DESCRIPTION" height="1125px" preserveAspectRatio="none" style="width:1298px;height:1125px;background:#FFFFFF;" version="1.1" viewBox="0 0 1298 1125" width="1298px" zoomAndPan="magnify"><?plantuml 1.2026.6?><defs/><g><g class="title" data-source-line="1"><text fill="#000000" font-family="sans-serif" font-size="14" font-weight="700" lengthAdjust="spacing" textLength="374.0078" x="458.5027" y="22.9951">&#1040;&#1088;&#1093;&#1080;&#1090;&#1077;&#1082;&#1090;&#1091;&#1088;&#1072; reporting &#8212; &#1047;&#1053;&#1048;, TFS, pallink.fun</text></g><!--cluster Production (VPS)--><g class="cluster" data-qualified-name="Production .VPS." data-source-line="10" id="ent0003"><path d="M8.5,273.3869 L144.4961,273.3869 A3.75,3.75 0 0 1 146.9961,275.8869 L153.9961,295.6837 L382.5,295.6837 A2.5,2.5 0 0 1 385,298.1837 L385,955.7469 A2.5,2.5 0 0 1 382.5,958.2469 L8.5,958.2469 A2.5,2.5 0 0 1 6,955.7469 L6,275.8869 A2.5,2.5 0 0 1 8.5,273.3869" fill="#D3D3D3" style="stroke:#000000;stroke-width:1.5;"/><line style="stroke:#000000;stroke-width:1.5;" x1="6" x2="153.9961" y1="295.6837" y2="295.6837"/><text fill="#000000" font-family="sans-serif" font-size="14" font-weight="700" lengthAdjust="spacing" textLength="134.9961" x="10" y="288.382">Production (VPS)</text></g><!--cluster nginx--><g class="cluster" data-qualified-name="Production .VPS..nginx" data-source-line="11" id="ent0004"><polygon fill="none" points="38,334.3869,48,324.3869,353,324.3869,353,438.9769,343,448.9769,38,448.9769,38,334.3869" style="stroke:#181818;stroke-width:1;stroke-linejoin:miter;stroke-miterlimit:10;"/><line style="stroke:#181818;stroke-width:1;" x1="343" x2="353" y1="334.3869" y2="324.3869"/><line style="stroke:#181818;stroke-width:1;" x1="38" x2="343" y1="334.3869" y2="334.3869"/><line style="stroke:#181818;stroke-width:1;" x1="343" x2="343" y1="334.3869" y2="448.9769"/><text fill="#000000" font-family="sans-serif" font-size="14" font-weight="700" lengthAdjust="spacing" textLength="168.4375" x="107.2813" y="350.382">nginx + Let's Encrypt</text></g><!--cluster Docker Compose--><g class="cluster" data-qualified-name="Production .VPS..Docker Compose" data-source-line="16" id="ent0007"><path d="M139.5,505.9769 L272.5703,505.9769 A3.75,3.75 0 0 1 275.0703,508.4769 L282.0703,528.2738 L282.5,528.2738 A2.5,2.5 0 0 1 285,530.7738 L285,931.7469 A2.5,2.5 0 0 1 282.5,934.2469 L139.5,934.2469 A2.5,2.5 0 0 1 137,931.7469 L137,508.4769 A2.5,2.5 0 0 1 139.5,505.9769" fill="#90EE90" style="stroke:#000000;stroke-width:1.5;"/><line style="stroke:#000000;stroke-width:1.5;" x1="137" x2="282.0703" y1="528.2738" y2="528.2738"/><text fill="#000000" font-family="sans-serif" font-size="14" font-weight="700" lengthAdjust="spacing" textLength="132.0703" x="141" y="520.972">Docker Compose</text></g><!--cluster ??????? ???????--><g class="cluster" data-qualified-name="....... ......." data-source-line="23" id="ent0011"><path d="M540.5,1007.2469 L688.1787,1007.2469 A3.75,3.75 0 0 1 690.6787,1009.7469 L697.6787,1029.5437 L697.5,1029.5437 A2.5,2.5 0 0 1 700,1032.0437 L700,1108.3369 A2.5,2.5 0 0 1 697.5,1110.8369 L540.5,1110.8369 A2.5,2.5 0 0 1 538,1108.3369 L538,1009.7469 A2.5,2.5 0 0 1 540.5,1007.2469" fill="#ADD8E6" style="stroke:#000000;stroke-width:1.5;"/><line style="stroke:#000000;stroke-width:1.5;" x1="538" x2="697.6787" y1="1029.5437" y2="1029.5437"/><text fill="#000000" font-family="sans-serif" font-size="14" font-weight="700" lengthAdjust="spacing" textLength="146.6787" x="542" y="1022.242">&#1042;&#1085;&#1077;&#1096;&#1085;&#1080;&#1077; &#1089;&#1080;&#1089;&#1090;&#1077;&#1084;&#1099;</text></g><!--cluster ???? ??????????--><g class="cluster" data-qualified-name=".... .........." data-source-line="27" id="ent0013"><path d="M411.5,687.8769 L551.2012,687.8769 A3.75,3.75 0 0 1 553.7012,690.3769 L560.7012,710.1737 L693.5,710.1737 A2.5,2.5 0 0 1 696,712.6737 L696,927.2469 A2.5,2.5 0 0 1 693.5,929.7469 L411.5,929.7469 A2.5,2.5 0 0 1 409,927.2469 L409,690.3769 A2.5,2.5 0 0 1 411.5,687.8769" fill="#FFFFE0" style="stroke:#000000;stroke-width:1.5;"/><line style="stroke:#000000;stroke-width:1.5;" x1="409" x2="560.7012" y1="710.1737" y2="710.1737"/><text fill="#000000" font-family="sans-serif" font-size="14" font-weight="700" lengthAdjust="spacing" textLength="138.7012" x="413" y="702.872">&#1057;&#1083;&#1086;&#1081; &#1080;&#1085;&#1090;&#1077;&#1075;&#1088;&#1072;&#1094;&#1080;&#1080;</text></g><!--entity fe_ssl--><g class="entity" data-qualified-name="Production .VPS..nginx.fe_ssl" data-source-line="12" id="ent0005"><rect fill="#F1F1F1" height="52.5938" rx="2.5" ry="2.5" style="stroke:#181818;stroke-width:0.5;" width="93.2402" x="62.38" y="372.3869"/><text fill="#000000" font-family="sans-serif" font-size="14" lengthAdjust="spacing" textLength="73.2402" x="72.38" y="395.382">pallink.fun</text><text fill="#000000" font-family="sans-serif" font-size="14" lengthAdjust="spacing" textLength="44.96" x="86.5201" y="411.6789">HTTPS</text></g><!--entity api_ssl--><g class="entity" data-qualified-name="Production .VPS..nginx.api_ssl" data-source-line="13" id="ent0006"><rect fill="#F1F1F1" height="52.5938" rx="2.5" ry="2.5" style="stroke:#181818;stroke-width:0.5;" width="119.0459" x="190.48" y="372.3869"/><text fill="#000000" font-family="sans-serif" font-size="14" lengthAdjust="spacing" textLength="99.0459" x="200.48" y="395.382">api.pallink.fun</text><text fill="#000000" font-family="sans-serif" font-size="14" lengthAdjust="spacing" textLength="44.96" x="227.523" y="411.6789">HTTPS</text></g><!--entity fe--><g class="entity" data-qualified-name="Production .VPS..Docker Compose.fe" data-source-line="17" id="ent0008"><rect fill="#F1F1F1" height="68.8906" rx="2.5" ry="2.5" style="stroke:#181818;stroke-width:0.5;" width="108.3066" x="152.85" y="540.9769"/><text fill="#000000" font-family="sans-serif" font-size="14" lengthAdjust="spacing" textLength="63.1094" x="175.4486" y="563.972">Frontend</text><text fill="#000000" font-family="sans-serif" font-size="14" lengthAdjust="spacing" textLength="88.3066" x="162.85" y="580.2689">Vite + React</text><text fill="#000000" font-family="sans-serif" font-size="14" lengthAdjust="spacing" textLength="40.3457" x="186.8305" y="596.5657">:5173</text></g><!--entity api--><g class="entity" data-qualified-name="Production .VPS..Docker Compose.api" data-source-line="18" id="ent0009"><rect fill="#F1F1F1" height="68.8906" rx="2.5" ry="2.5" style="stroke:#181818;stroke-width:0.5;" width="80.3613" x="188.82" y="714.7269"/><text fill="#000000" font-family="sans-serif" font-size="14" lengthAdjust="spacing" textLength="60.3613" x="198.82" y="737.722">Backend</text><text fill="#000000" font-family="sans-serif" font-size="14" lengthAdjust="spacing" textLength="51.5635" x="203.2189" y="754.0189">FastAPI</text><text fill="#000000" font-family="sans-serif" font-size="14" lengthAdjust="spacing" textLength="40.3457" x="208.8278" y="770.3157">:8000</text></g><!--entity pg--><g class="entity" data-qualified-name="Production .VPS..Docker Compose.pg" data-source-line="19" id="ent0010"><path d="M168.62,866.6469 C168.62,856.6469 218.9965,856.6469 218.9965,856.6469 C218.9965,856.6469 269.3729,856.6469 269.3729,866.6469 L269.3729,908.2406 C269.3729,918.2406 218.9965,918.2406 218.9965,918.2406 C218.9965,918.2406 168.62,918.2406 168.62,908.2406 L168.62,866.6469" fill="#F1F1F1" style="stroke:#181818;stroke-width:0.5;"/><path d="M168.62,866.6469 C168.62,876.6469 218.9965,876.6469 218.9965,876.6469 C218.9965,876.6469 269.3729,876.6469 269.3729,866.6469" fill="none" style="stroke:#181818;stroke-width:0.5;"/><text fill="#000000" font-family="sans-serif" font-size="14" lengthAdjust="spacing" textLength="80.7529" x="178.62" y="893.642">PostgreSQL</text><text fill="#000000" font-family="sans-serif" font-size="14" lengthAdjust="spacing" textLength="40.3457" x="198.8236" y="909.9389">:5432</text></g><!--entity tfs--><g class="entity" data-qualified-name="....... ........tfs" data-source-line="24" id="ent0012"><rect fill="#F1F1F1" height="52.5938" rx="2.5" ry="2.5" style="stroke:#181818;stroke-width:0.5;" width="119.4971" x="558.25" y="1042.2469"/><text fill="#000000" font-family="sans-serif" font-size="14" lengthAdjust="spacing" textLength="99.4971" x="568.25" y="1065.242">Azure DevOps</text><text fill="#000000" font-family="sans-serif" font-size="14" lengthAdjust="spacing" textLength="52.0898" x="591.9536" y="1081.5389">TFS API</text></g><!--entity client--><g class="entity" data-qualified-name=".... ...........client" data-source-line="28" id="ent0014"><rect fill="#F1F1F1" height="52.5938" rx="2.5" ry="2.5" style="stroke:#181818;stroke-width:0.5;" width="117.665" x="559.17" y="861.1469"/><text fill="#000000" font-family="sans-serif" font-size="14" lengthAdjust="spacing" textLength="61.3047" x="587.3502" y="884.142">TfsClient</text><text fill="#000000" font-family="sans-serif" font-size="14" lengthAdjust="spacing" textLength="97.665" x="569.17" y="900.4389">WIQL + Batch</text></g><!--entity sync--><g class="entity" data-qualified-name=".... ...........sync" data-source-line="29" id="ent0015"><rect fill="#F1F1F1" height="36.2969" rx="2.5" ry="2.5" style="stroke:#181818;stroke-width:0.5;" width="109.9336" x="570.03" y="731.0169"/><text fill="#000000" font-family="sans-serif" font-size="14" lengthAdjust="spacing" textLength="89.9336" x="580.03" y="754.012">Sync Service</text></g><!--entity auth--><g class="entity" data-qualified-name=".... ...........auth" data-source-line="30" id="ent0016"><rect fill="#F1F1F1" height="52.5938" rx="2.5" ry="2.5" style="stroke:#181818;stroke-width:0.5;" width="110.6377" x="424.68" y="722.8769"/><text fill="#000000" font-family="sans-serif" font-size="14" lengthAdjust="spacing" textLength="63.834" x="448.0819" y="745.872">Auth PAT</text><text fill="#000000" font-family="sans-serif" font-size="14" lengthAdjust="spacing" textLength="90.6377" x="434.68" y="762.1689">auth_session</text></g><!--entity analyst--><g class="entity" data-qualified-name="analyst" data-source-line="6" id="ent0001"><ellipse cx="345.0032" cy="51.2969" fill="#F1F1F1" rx="8" ry="8" style="stroke:#181818;stroke-width:0.5;"/><path d="M345.0032,59.2969 L345.0032,86.2969 M332.0032,67.2969 L358.0032,67.2969 M345.0032,86.2969 L332.0032,101.2969 M345.0032,86.2969 L358.0032,101.2969" fill="none" style="stroke:#181818;stroke-width:0.5;"/><text fill="#000000" font-family="sans-serif" font-size="14" lengthAdjust="spacing" textLength="71.0664" x="309.47" y="115.792">&#1040;&#1085;&#1072;&#1083;&#1080;&#1090;&#1080;&#1082;</text></g><!--entity inet--><g class="entity" data-qualified-name="inet" data-source-line="8" id="ent0002"><path d="M311.8518,188.9675 C314.9475,183.9334 318.8761,183.6683 322.6835,188.1581 C325.7915,181.9862 330.1358,182.0869 334.3775,186.9576 C337.2935,181.635 341.5613,181.1576 345.1413,186.2729 C348.8898,181.3485 352.7467,180.2478 356.734,186.0139 C361.7772,180.7505 366.0082,180.8992 368.8507,188.1455 C372.9083,182.978 377.5661,183.2525 381.2525,188.584 C388.5904,191.4234 390.3277,198.7795 384.0129,204.0549 C389.8175,210.4565 389.663,215.5402 381.667,219.8984 C379.7128,226.059 374.179,226.4671 370.4302,221.7527 C367.4904,230.026 363.0231,231.068 356.8992,224.6943 C355.9668,230.4105 351.2734,232.5934 346.3854,229.321 C341.7873,233.5192 336.5043,232.9793 334.5421,226.4192 C328.0223,231.2547 324.7972,228.6206 322.5899,221.9424 C318.3816,226.398 313.3143,225.9296 310.6427,220.1489 C300.9847,219.1762 297.7638,211.9527 304.3599,204.4677 C298.2429,195.4854 301.3357,189.9104 311.8518,188.9675" fill="#F1F1F1" style="stroke:#181818;stroke-width:0.5;"/><text fill="#000000" font-family="sans-serif" font-size="14" lengthAdjust="spacing" textLength="55.8359" x="317.08" y="208.082">Internet</text></g><g class="entity" data-qualified-name="GMN29" data-source-line="48" id="ent0030"><path d="M712.28,852.1769 L712.28,922.7081 L959.7136,922.7081 L959.7136,862.1769 L949.7136,852.1769 L712.28,852.1769" fill="#FEFFDD" style="stroke:#181818;stroke-width:0.5;"/><path d="M949.7136,852.1769 L949.7136,862.1769 L959.7136,862.1769 L949.7136,852.1769" fill="#FEFFDD" style="stroke:#181818;stroke-width:1;"/><text fill="#000000" font-family="sans-serif" font-size="13" font-weight="700" lengthAdjust="spacing" textLength="36.1943" x="718.28" y="869.2438">&#1047;&#1053;&#1048;:</text><text fill="#000000" font-family="sans-serif" font-size="13" lengthAdjust="spacing" textLength="186.1069" x="758.6067" y="869.2438">task_type = change_request</text><text fill="#000000" font-family="sans-serif" font-size="13" font-weight="700" lengthAdjust="spacing" textLength="65.8379" x="739.4875" y="884.3766">&#1054;&#1096;&#1080;&#1073;&#1082;&#1072;:</text><text fill="#000000" font-family="sans-serif" font-size="13" lengthAdjust="spacing" textLength="114.0483" x="809.4577" y="884.3766">task_type = error</text><text fill="#000000" font-family="sans-serif" font-size="13" lengthAdjust="spacing" textLength="142.1177" x="760.438" y="899.5094">parent_task_id &#8594; &#1047;&#1053;&#1048;</text><text fill="#000000" font-family="sans-serif" font-size="13" lengthAdjust="spacing" textLength="191.6865" x="735.6535" y="914.6422">auth_session &#8212; PAT (&#1089;&#1077;&#1088;&#1074;&#1077;&#1088;)</text></g><g class="entity" data-qualified-name="GMN32" data-source-line="55" id="ent0033"><path d="M994.98,844.6169 L994.98,844.6169 L680.01,764.7569 L994.98,852.6169 L994.98,930.2809 A0,0 0 0 0 994.98,930.2809 L1283.0132,930.2809 A0,0 0 0 0 1283.0132,930.2809 L1283.0132,854.6169 L1273.0132,844.6169 L994.98,844.6169 A0,0 0 0 0 994.98,844.6169" fill="#FEFFDD" style="stroke:#181818;stroke-width:0.5;"/><path d="M1273.0132,844.6169 L1273.0132,854.6169 L1283.0132,854.6169 L1273.0132,844.6169" fill="#FEFFDD" style="stroke:#181818;stroke-width:0.5;"/><text fill="#000000" font-family="sans-serif" font-size="13" lengthAdjust="spacing" textLength="97.3857" x="1085.8037" y="861.6838">&#1054;&#1087;&#1090;&#1080;&#1084;&#1080;&#1079;&#1072;&#1094;&#1080;&#1103;:</text><text fill="#000000" font-family="sans-serif" font-size="13" lengthAdjust="spacing" textLength="152.4961" x="1058.2486" y="876.8166">&#8226; &#1087;&#1086;&#1083;&#1103; &#1073;&#1077;&#1079; $expand All</text><text fill="#000000" font-family="sans-serif" font-size="13" lengthAdjust="spacing" textLength="246.4858" x="1011.2537" y="891.9494">&#8226; &#1086;&#1096;&#1080;&#1073;&#1082;&#1080; &#1095;&#1077;&#1088;&#1077;&#1079; WIQL WorkItemLinks</text><text fill="#000000" font-family="sans-serif" font-size="13" lengthAdjust="spacing" textLength="214.665" x="1027.1641" y="907.0822">&#8226; Closed &gt; 365 &#1076;&#1085;&#1077;&#1081; &#8212; &#1087;&#1088;&#1086;&#1087;&#1091;&#1089;&#1082;</text><text fill="#000000" font-family="sans-serif" font-size="13" lengthAdjust="spacing" textLength="267.0332" x="1000.98" y="922.215">&#1044;&#1086;&#1089;&#1082;&#1080;: Digital Streams B2b, BE-T2 Team</text></g><g class="entity" data-qualified-name="GMN35" data-source-line="63" id="ent0036"><path d="M403.51,555.2969 L403.51,595.5625 L692.4954,595.5625 L692.4954,565.2969 L682.4954,555.2969 L403.51,555.2969" fill="#FEFFDD" style="stroke:#181818;stroke-width:0.5;"/><path d="M682.4954,555.2969 L682.4954,565.2969 L692.4954,565.2969 L682.4954,555.2969" fill="#FEFFDD" style="stroke:#181818;stroke-width:1;"/><text fill="#000000" font-family="sans-serif" font-size="13" lengthAdjust="spacing" textLength="263.3325" x="411.8364" y="572.3638">&#1047;&#1072;&#1087;&#1091;&#1089;&#1082;: sudo bash scripts/production.sh</text><text fill="#000000" font-family="sans-serif" font-size="13" lengthAdjust="spacing" textLength="267.9854" x="409.51" y="587.4966">certbot &#8594; /etc/letsencrypt/live/pallink.fun</text></g><!--link analyst to inet--><g class="link" data-entity-1="ent0001" data-entity-2="ent0002" data-link-type="dependency" data-source-line="33" id="lnk17"><path d="M345,119.3469 C345,139.2069 345,157.9569 345,174.9269" fill="none" id="analyst-to-inet" style="stroke:#181818;stroke-width:1;"/><polygon fill="#181818" points="345,179.9269,349,170.9269,345,174.9269,341,170.9269,345,179.9269" style="stroke:#181818;stroke-width:1;stroke-linejoin:miter;stroke-miterlimit:10;"/></g><!--link inet to nginx--><g class="link" data-entity-1="ent0002" data-entity-2="ent0004" data-link-type="dependency" data-source-line="34" id="lnk18"><path d="M345,226.8069 C345,239.3644 345,256.09 345,274.1717 C345,283.2126 345,292.5925 345,301.9599 C345,306.6436 345,311.3241 345,315.9577 C345,318.2744 345,320.5794 345,322.8672 C345,323.1531 345,318.4388 345,318.7242" fill="none" id="inet-to-nginx" style="stroke:#181818;stroke-width:1;"/><polygon fill="#181818" points="345,323.7242,349,314.7242,345,318.7242,341,314.7242,345,323.7242" style="stroke:#181818;stroke-width:1;stroke-linejoin:miter;stroke-miterlimit:10;"/></g><!--link fe_ssl to fe--><g class="link" data-entity-1="ent0005" data-entity-2="ent0008" data-link-type="dependency" data-source-line="35" id="lnk19"><path d="M123.46,425.4669 C140.6,456.0369 166.784,502.716 185.664,536.376" fill="none" id="fe_ssl-to-fe" style="stroke:#181818;stroke-width:1;"/><polygon fill="#181818" points="188.11,540.7369,187.1959,530.9305,185.664,536.376,180.2185,534.8442,188.11,540.7369" style="stroke:#181818;stroke-width:1;stroke-linejoin:miter;stroke-miterlimit:10;"/><text fill="#000000" font-family="sans-serif" font-size="13" lengthAdjust="spacing" textLength="36.937" x="159" y="486.0438">proxy</text></g><!--link api_ssl to api--><g class="link" data-entity-1="ent0006" data-entity-2="ent0009" data-link-type="dependency" data-source-line="36" id="lnk20"><path d="M265.43,425.4269 C292.97,474.9169 344.43,586.0369 308,671.8769 C299.95,690.8269 288.4468,704.1252 273.4268,716.9152" fill="none" id="api_ssl-to-api" style="stroke:#181818;stroke-width:1;"/><polygon fill="#181818" points="269.62,720.1569,279.0656,717.3674,273.4268,716.9152,273.879,711.2765,269.62,720.1569" style="stroke:#181818;stroke-width:1;stroke-linejoin:miter;stroke-miterlimit:10;"/><text fill="#000000" font-family="sans-serif" font-size="13" lengthAdjust="spacing" textLength="36.937" x="321.59" y="579.9938">proxy</text></g><!--link fe to api--><g class="link" data-entity-1="ent0008" data-entity-2="ent0009" data-link-type="dependency" data-source-line="37" id="lnk21"><path d="M211.35,610.3569 C215.2,640.4669 220.1754,679.2573 224.0254,709.3473" fill="none" id="fe-to-api" style="stroke:#181818;stroke-width:1;"/><polygon fill="#181818" points="224.66,714.3069,227.4854,704.872,224.0254,709.3473,219.5501,705.8873,224.66,714.3069" style="stroke:#181818;stroke-width:1;stroke-linejoin:miter;stroke-miterlimit:10;"/><text fill="#000000" font-family="sans-serif" font-size="13" lengthAdjust="spacing" textLength="33.4395" x="242.9273" y="652.9438">REST</text><text fill="#000000" font-family="sans-serif" font-size="13" lengthAdjust="spacing" textLength="79.9741" x="219.66" y="668.0766">X-Session-Id</text></g><!--link api to auth--><g class="link" data-entity-1="ent0009" data-entity-2="ent0016" data-link-type="dependency" data-source-line="39" id="lnk22"><path d="M269.2,749.1669 C320.94,749.1669 367.68,749.1669 419.42,749.1669" fill="none" id="api-to-auth" style="stroke:#181818;stroke-width:1;"/><polygon fill="#181818" points="424.42,749.1669,415.42,745.1669,419.42,749.1669,415.42,753.1669,424.42,749.1669" style="stroke:#181818;stroke-width:1;stroke-linejoin:miter;stroke-miterlimit:10;"/></g><!--link api to sync--><g class="link" data-entity-1="ent0009" data-entity-2="ent0015" data-link-type="dependency" data-source-line="40" id="lnk23"><path d="M269.36,720.2769 C307.68,694.7369 367.97,659.3769 426.5,644.8769 C473.52,633.2169 491.48,624.6369 535.5,644.8769 C573.87,662.5069 599.5639,701.2339 613.2439,726.1539" fill="none" id="api-to-sync" style="stroke:#181818;stroke-width:1;"/><polygon fill="#181818" points="615.65,730.5369,614.8255,720.7226,613.2439,726.1539,607.8126,724.5723,615.65,730.5369" style="stroke:#181818;stroke-width:1;stroke-linejoin:miter;stroke-miterlimit:10;"/></g><!--link api to pg--><g class="link" data-entity-1="ent0009" data-entity-2="ent0010" data-link-type="dependency" data-source-line="41" id="lnk24"><path d="M226.53,783.8569 C224.9,806.0869 223.145,829.9602 221.575,851.4102" fill="none" id="api-to-pg" style="stroke:#181818;stroke-width:1;"/><polygon fill="#181818" points="221.21,856.3969,225.8563,847.7129,221.575,851.4102,217.8777,847.1289,221.21,856.3969" style="stroke:#181818;stroke-width:1;stroke-linejoin:miter;stroke-miterlimit:10;"/></g><!--link auth to pg--><g class="link" data-entity-1="ent0016" data-entity-2="ent0010" data-link-type="dependency" data-source-line="42" id="lnk25"><path d="M430.6,775.9569 C384.49,800.0369 320.432,833.4822 273.962,857.7522" fill="none" id="auth-to-pg" style="stroke:#181818;stroke-width:1;"/><polygon fill="#181818" points="269.53,860.0669,279.3593,859.446,273.962,857.7522,275.6558,852.3549,269.53,860.0669" style="stroke:#181818;stroke-width:1;stroke-linejoin:miter;stroke-miterlimit:10;"/></g><!--link sync to client--><g class="link" data-entity-1="ent0015" data-entity-2="ent0014" data-link-type="dependency" data-source-line="43" id="lnk26"><path d="M624.1,767.7069 C622.88,791.4269 620.957,828.9035 619.557,856.1035" fill="none" id="sync-to-client" style="stroke:#181818;stroke-width:1;"/><polygon fill="#181818" points="619.3,861.0969,623.7573,852.3144,619.557,856.1035,615.7679,851.9032,619.3,861.0969" style="stroke:#181818;stroke-width:1;stroke-linejoin:miter;stroke-miterlimit:10;"/></g><!--link sync to pg--><g class="link" data-entity-1="ent0015" data-entity-2="ent0010" data-link-type="dependency" data-source-line="44" id="lnk27"><path d="M589.52,767.8169 C578.01,773.2269 565.09,778.9669 553,783.6169 C454.59,821.4169 340.7371,853.9735 274.6271,871.8235" fill="none" id="sync-to-pg" style="stroke:#181818;stroke-width:1;"/><polygon fill="#181818" points="269.8,873.1269,279.5315,874.6426,274.6271,871.8235,277.4462,866.9191,269.8,873.1269" style="stroke:#181818;stroke-width:1;stroke-linejoin:miter;stroke-miterlimit:10;"/></g><!--link client to tfs--><g class="link" data-entity-1="ent0014" data-entity-2="ent0012" data-link-type="dependency" data-source-line="45" id="lnk28"><path d="M618,914.1069 C618,948.1469 618,1002.9069 618,1036.9269" fill="none" id="client-to-tfs" style="stroke:#181818;stroke-width:1;"/><polygon fill="#181818" points="618,1041.9269,622,1032.9269,618,1036.9269,614,1032.9269,618,1041.9269" style="stroke:#181818;stroke-width:1;stroke-linejoin:miter;stroke-miterlimit:10;"/><text fill="#000000" font-family="sans-serif" font-size="13" lengthAdjust="spacing" textLength="24.6733" x="619" y="987.3138">PAT</text></g><!--link pg to GMN29--><g class="link" data-entity-1="ent0010" data-entity-2="ent0030" data-link-type="association" data-source-line="48" id="lnk31"><path d="M269.71,864.0469 C310.94,846.3769 371.14,823.6069 426.5,814.1169 C536.89,795.1869 569.15,789.9069 678.5,814.1169 C712.22,821.5769 747.28,837.0369 775.74,851.8469" fill="none" id="pg-GMN29" style="stroke:#181818;stroke-width:1;stroke-dasharray:7,7;"/></g><!--link nginx to GMN35--><g class="link" data-entity-1="ent0004" data-entity-2="ent0036" data-link-type="association" data-source-line="63" id="lnk37"><path d="M353.306,406.8293 C353.4377,406.9428 353.5709,407.0575 353.7055,407.1733 C354.2439,407.6368 354.8047,408.1196 355.3872,408.6211 C356.5522,409.624 357.804,410.7017 359.1369,411.8492 C361.8027,414.1441 364.7925,416.7179 368.06,419.5308 C381.13,430.7822 398.6425,445.8575 417.625,462.1981 C455.59,494.8794 499.435,532.6219 525.38,554.9569" fill="none" id="nginx-GMN35" style="stroke:#181818;stroke-width:1;stroke-dasharray:7,7;"/></g><?plantuml-src TLHjQnj74Fv-ls9G2qrSotBjfYs21YI_j091b9n8Mg8YrdUZqw7LxcLtpxLI0dP2qq8_98H0-wM1zXUuBoAgazX_OUyl-9TqTazIr48-tB8xyzpCCpFFhaaDHx1FY-FYUpih7jgfFIiU5e-AOtiA2ZEfJ2eIk3n-3lPd-wlzPHsw--4wP8ppL8ms1ha80ZrAHSOK6qCanvaKA4ne9XHNOMIOI3YkG68Si9oRBXwP1ayJCIOqHBIW2W8M6QcWOf_QD_RKllACPlQi0am34unFj0c2YCiyXahB_IBGU6TAco38M3HY2KAbesISHoQL0gxSxeHNA_1UEqs6vWl59l1T021aJ32HfE88FeGscWyqx8b8JR8oNkbnI82xAyNsn9VTRYVync46sDUQbn2MfHllW95hZdiGqBBak2kZ4IhOSItJ-9OXebWatbUIYXHnJznE3HBHMqWTwedwjOy-tPvpA95DYkg1-qoRHgT5cCysDpSN13mePeOTCEtQ8xL958OtsoxMnzjRlkOiyHmVhFJHFgD1J8iVQPtPAHGdD94JhvBNnKyBoasUesTyjt4_LmYxU7WZqpr1GW6YuZcOWVvluDzekkVs7w2uRtp0lvpaYiTqdYq2VusSos_BqDs1tk4foQGdxhHkjgaNJMQYeGyUUOT3XHCHGOZgC8tGkpGPFBFS3A7JwFO4errVezOaZh8zP73Svlg2QlLwAIUt-9CNGr2Esni627N8b3oQ1FFfUZFjbtQ2l3NTsWifyrVLi4nRRSM1-x54kFIBWwUxED0yd7EnTpw_dvUxF9ElDFaJTPeoKgb182I9HhbEWXoKurrRAwznVMqD3DEZlfba29z3DAHxYds5ztBKfWI-eBdFx1_sp9x-7uvAIUN5h2XltxlI62uVFvi_4-HRRRH_G8WJN249JMdIVxhrQa2I1SToplL06YF7ZknyRlQ5lV1Fm6lwNfRwA9xKoNDv_3lO2vBGg-894CcfVGdlur76A6A3ymNYV5d338eVV6g7z1Aw8zMePN3Sfakhvp_iSBgBCLo7xK-kWVtRgPz4wf-_2_htdDP7LCAPu_QSef-uo7NOJPFKC0wXKSZ66ffR1-lGtAjsjw1BXdVNMKeBNDTE5x7heFDO0btL8UX8fPdHjMpve6te8U4ZL8QY-8xNq4GrZaPZ-O3LU7g8jTKNUfd-Nm00?></g></svg>