<svg xmlns="http://www.w3.org/2000/svg" xmlns:xlink="http://www.w3.org/1999/xlink" contentStyleType="text/css" data-diagram-type="DESCRIPTION" height="982px" preserveAspectRatio="none" style="width:2277px;height:982px;background:#FFFFFF;" version="1.1" viewBox="0 0 2277 982" width="2277px" zoomAndPan="magnify"><?plantuml 1.2026.4?><defs/><g><g class="title" data-source-line="1"><text fill="#000000" font-family="sans-serif" font-size="14" font-weight="700" lengthAdjust="spacing" textLength="270.7852" x="999.6518" y="22.9951">&#1040;&#1088;&#1093;&#1080;&#1090;&#1077;&#1082;&#1090;&#1091;&#1088;&#1072;: &#1077;&#1076;&#1080;&#1085;&#1099;&#1081; &#1091;&#1095;&#1105;&#1090; &#1079;&#1072;&#1076;&#1072;&#1095;</text><text fill="#000000" font-family="sans-serif" font-size="14" font-weight="700" lengthAdjust="spacing" textLength="237.9385" x="1016.0751" y="39.292">(&#1101;&#1090;&#1072;&#1087; 1 &#8212; &#1090;&#1086;&#1083;&#1100;&#1082;&#1086; &#1041;&#1044; &#1080; &#1089;&#1093;&#1077;&#1084;&#1072;)</text></g><!--cluster ??????? ???????--><g class="cluster" data-qualified-name="....... ......." data-source-line="10" id="ent0004"><path d="M52.5,59.5938 L200.1787,59.5938 A3.75,3.75 0 0 1 202.6787,62.0938 L209.6787,81.8906 L597.5,81.8906 A2.5,2.5 0 0 1 600,84.3906 L600,160.6838 A2.5,2.5 0 0 1 597.5,163.1838 L52.5,163.1838 A2.5,2.5 0 0 1 50,160.6838 L50,62.0938 A2.5,2.5 0 0 1 52.5,59.5938" fill="#ADD8E6" style="stroke:#000000;stroke-width:1.5;"/><line style="stroke:#000000;stroke-width:1.5;" x1="50" x2="209.6787" y1="81.8906" y2="81.8906"/><text fill="#000000" font-family="sans-serif" font-size="14" font-weight="700" lengthAdjust="spacing" textLength="146.6787" x="54" y="74.5889">&#1042;&#1085;&#1077;&#1096;&#1085;&#1080;&#1077; &#1089;&#1080;&#1089;&#1090;&#1077;&#1084;&#1099;</text></g><!--cluster ???? ??????????\n(??????? ETL)--><g class="cluster" data-qualified-name=".... ...........n........ ETL." data-source-line="17" id="ent0009"><path d="M8.5,206.0338 L148.2012,206.0338 A3.75,3.75 0 0 1 150.7012,208.5338 L157.7012,244.6275 L1060.5,244.6275 A2.5,2.5 0 0 1 1063,247.1275 L1063,704.9938 A2.5,2.5 0 0 1 1060.5,707.4938 L8.5,707.4938 A2.5,2.5 0 0 1 6,704.9938 L6,208.5338 A2.5,2.5 0 0 1 8.5,206.0338" fill="#FFFFE0" style="stroke:#000000;stroke-width:1.5;"/><line style="stroke:#000000;stroke-width:1.5;" x1="6" x2="157.7012" y1="244.6275" y2="244.6275"/><text fill="#000000" font-family="sans-serif" font-size="14" font-weight="700" lengthAdjust="spacing" textLength="138.7012" x="10" y="221.0289">&#1057;&#1083;&#1086;&#1081; &#1080;&#1085;&#1090;&#1077;&#1075;&#1088;&#1072;&#1094;&#1080;&#1080;</text><text fill="#000000" font-family="sans-serif" font-size="14" font-weight="700" lengthAdjust="spacing" textLength="120.1348" x="19.2832" y="237.3257">(&#1073;&#1091;&#1076;&#1091;&#1097;&#1080;&#1081; ETL)</text></g><!--cluster pg--><g class="cluster" data-qualified-name="pg" data-source-line="28" id="ent0018"><path d="M1095,417.4838 C1095,407.4838 1521.5,407.4838 1521.5,407.4838 C1521.5,407.4838 1948,407.4838 1948,417.4838 L1948,947.0838 C1948,957.0838 1521.5,957.0838 1521.5,957.0838 C1521.5,957.0838 1095,957.0838 1095,947.0838 L1095,417.4838" fill="none" style="stroke:#181818;stroke-width:1;"/><path d="M1095,417.4838 C1095,427.4838 1521.5,427.4838 1521.5,427.4838 C1521.5,427.4838 1948,427.4838 1948,417.4838" fill="none" style="stroke:#181818;stroke-width:1;"/><text fill="#000000" font-family="sans-serif" font-size="14" font-weight="700" lengthAdjust="spacing" textLength="92.2305" x="1475.3848" y="442.4789">PostgreSQL</text><text fill="#000000" font-family="sans-serif" font-size="14" font-weight="700" lengthAdjust="spacing" textLength="74.4229" x="1484.2886" y="458.7757">reporting</text></g><!--cluster ???????????--><g class="cluster" data-qualified-name="pg............" data-source-line="29" id="ent0019"><rect fill="none" height="209.86" rx="2.5" ry="2.5" style="stroke:#181818;stroke-width:1;" width="328" x="1135" y="489.4838"/><path d="M1251.2988,489.4838 L1251.2988,498.7806 L1241.2988,508.7806 L1135,508.7806" fill="none" style="stroke:#181818;stroke-width:1;"/><text fill="#000000" font-family="sans-serif" font-size="14" font-weight="700" lengthAdjust="spacing" textLength="106.2988" x="1138" y="503.4789">&#1057;&#1087;&#1088;&#1072;&#1074;&#1086;&#1095;&#1085;&#1080;&#1082;&#1080;</text></g><!--cluster ??????--><g class="cluster" data-qualified-name="pg......." data-source-line="35" id="ent0024"><rect fill="none" height="209.86" rx="2.5" ry="2.5" style="stroke:#181818;stroke-width:1;" width="429" x="1487" y="489.4838"/><path d="M1560.417,489.4838 L1560.417,498.7806 L1550.417,508.7806 L1487,508.7806" fill="none" style="stroke:#181818;stroke-width:1;"/><text fill="#000000" font-family="sans-serif" font-size="14" font-weight="700" lengthAdjust="spacing" textLength="63.417" x="1490" y="503.4789">&#1044;&#1072;&#1085;&#1085;&#1099;&#1077;</text></g><!--cluster ??????--><g class="cluster" data-qualified-name="pg......." data-source-line="42" id="ent0030"><rect fill="none" height="184.59" rx="2.5" ry="2.5" style="stroke:#181818;stroke-width:1;" width="413" x="1135" y="740.4938"/><path d="M1204.8965,740.4938 L1204.8965,749.7906 L1194.8965,759.7906 L1135,759.7906" fill="none" style="stroke:#181818;stroke-width:1;"/><text fill="#000000" font-family="sans-serif" font-size="14" font-weight="700" lengthAdjust="spacing" textLength="59.8965" x="1138" y="754.4889">&#1054;&#1090;&#1095;&#1105;&#1090;&#1099;</text></g><!--entity jira--><g class="entity" data-qualified-name="....... ........jira" data-source-line="11" id="ent0005"><rect fill="#F1F1F1" height="36.2969" rx="2.5" ry="2.5" style="stroke:#181818;stroke-width:0.5;" width="68.9521" x="394.52" y="102.7437"/><text fill="#000000" font-family="sans-serif" font-size="14" lengthAdjust="spacing" textLength="48.9521" x="404.52" y="125.7389">Jira API</text></g><!--entity tfs--><g class="entity" data-qualified-name="....... ........tfs" data-source-line="12" id="ent0006"><rect fill="#F1F1F1" height="52.5938" rx="2.5" ry="2.5" style="stroke:#181818;stroke-width:0.5;" width="119.4971" x="66.25" y="94.5938"/><text fill="#000000" font-family="sans-serif" font-size="14" lengthAdjust="spacing" textLength="99.4971" x="76.25" y="117.5889">Azure DevOps</text><text fill="#000000" font-family="sans-serif" font-size="14" lengthAdjust="spacing" textLength="52.0898" x="99.9536" y="133.8857">TFS API</text></g><!--entity trello--><g class="entity" data-qualified-name="....... ........trello" data-source-line="13" id="ent0007"><rect fill="#F1F1F1" height="36.2969" rx="2.5" ry="2.5" style="stroke:#181818;stroke-width:0.5;" width="85.8643" x="498.07" y="102.7437"/><text fill="#000000" font-family="sans-serif" font-size="14" lengthAdjust="spacing" textLength="65.8643" x="508.07" y="125.7389">Trello API</text></g><!--entity other--><g class="entity" data-qualified-name="....... ........other" data-source-line="14" id="ent0008"><rect fill="#F1F1F1" height="52.5938" rx="2.5" ry="2.5" style="stroke:#181818;stroke-width:0.5;" width="138.1045" x="220.95" y="94.5938"/><text fill="#000000" font-family="sans-serif" font-size="14" lengthAdjust="spacing" textLength="118.1045" x="230.95" y="117.5889">&#1055;&#1088;&#1086;&#1095;&#1072;&#1103; &#1089;&#1080;&#1089;&#1090;&#1077;&#1084;&#1072;</text><text fill="#000000" font-family="sans-serif" font-size="14" lengthAdjust="spacing" textLength="22.1484" x="278.928" y="133.8857">API</text></g><!--entity cj--><g class="entity" data-qualified-name=".... ...........n........ ETL..cj" data-source-line="18" id="ent0010"><rect fill="#F1F1F1" height="36.2969" rx="2.5" ry="2.5" style="stroke:#181818;stroke-width:0.5;" width="126.292" x="365.85" y="265.1838"/><text fill="#000000" font-family="sans-serif" font-size="14" lengthAdjust="spacing" textLength="106.292" x="375.85" y="288.1789">&#1050;&#1086;&#1085;&#1085;&#1077;&#1082;&#1090;&#1086;&#1088; Jira</text></g><!--entity ct--><g class="entity" data-qualified-name=".... ...........n........ ETL..ct" data-source-line="19" id="ent0011"><rect fill="#F1F1F1" height="36.2969" rx="2.5" ry="2.5" style="stroke:#181818;stroke-width:0.5;" width="129.4297" x="22.29" y="265.1838"/><text fill="#000000" font-family="sans-serif" font-size="14" lengthAdjust="spacing" textLength="109.4297" x="32.29" y="288.1789">&#1050;&#1086;&#1085;&#1085;&#1077;&#1082;&#1090;&#1086;&#1088; TFS</text></g><!--entity ctr--><g class="entity" data-qualified-name=".... ...........n........ ETL..ctr" data-source-line="20" id="ent0012"><rect fill="#F1F1F1" height="36.2969" rx="2.5" ry="2.5" style="stroke:#181818;stroke-width:0.5;" width="143.2041" x="527.4" y="265.1838"/><text fill="#000000" font-family="sans-serif" font-size="14" lengthAdjust="spacing" textLength="123.2041" x="537.4" y="288.1789">&#1050;&#1086;&#1085;&#1085;&#1077;&#1082;&#1090;&#1086;&#1088; Trello</text></g><!--entity co--><g class="entity" data-qualified-name=".... ...........n........ ETL..co" data-source-line="21" id="ent0013"><rect fill="#F1F1F1" height="36.2969" rx="2.5" ry="2.5" style="stroke:#181818;stroke-width:0.5;" width="143.6895" x="187.16" y="265.1838"/><text fill="#000000" font-family="sans-serif" font-size="14" lengthAdjust="spacing" textLength="123.6895" x="197.16" y="288.1789">&#1050;&#1086;&#1085;&#1085;&#1077;&#1082;&#1090;&#1086;&#1088; Other</text></g><!--entity mapper--><g class="entity" data-qualified-name=".... ...........n........ ETL..mapper" data-source-line="22" id="ent0014"><rect fill="#F1F1F1" height="52.5938" rx="2.5" ry="2.5" style="stroke:#181818;stroke-width:0.5;" width="125.2939" x="432.35" y="516.3338"/><text fill="#000000" font-family="sans-serif" font-size="14" lengthAdjust="spacing" textLength="105.2939" x="442.35" y="539.3289">&#1052;&#1072;&#1087;&#1087;&#1077;&#1088; &#1087;&#1086;&#1083;&#1077;&#1081;</text><text fill="#000000" font-family="sans-serif" font-size="14" lengthAdjust="spacing" textLength="98.8477" x="445.5731" y="555.6257">field_mapping</text></g><!--entity statusmap--><g class="entity" data-qualified-name=".... ...........n........ ETL..statusmap" data-source-line="23" id="ent0015"><rect fill="#F1F1F1" height="52.5938" rx="2.5" ry="2.5" style="stroke:#181818;stroke-width:0.5;" width="185.457" x="697.27" y="638.8938"/><text fill="#000000" font-family="sans-serif" font-size="14" lengthAdjust="spacing" textLength="126.3008" x="726.8481" y="661.8889">&#1052;&#1072;&#1087;&#1087;&#1077;&#1088; &#1089;&#1090;&#1072;&#1090;&#1091;&#1089;&#1086;&#1074;</text><text fill="#000000" font-family="sans-serif" font-size="14" lengthAdjust="spacing" textLength="165.457" x="707.27" y="678.1857">source_status_mapping</text></g><!--entity duration--><g class="entity" data-qualified-name=".... ...........n........ ETL..duration" data-source-line="24" id="ent0016"><rect fill="#F1F1F1" height="52.5938" rx="2.5" ry="2.5" style="stroke:#181818;stroke-width:0.5;" width="160.7109" x="705.64" y="257.0338"/><text fill="#000000" font-family="sans-serif" font-size="14" lengthAdjust="spacing" textLength="140.7109" x="715.64" y="280.0289">&#1056;&#1072;&#1089;&#1095;&#1105;&#1090; &#1080;&#1085;&#1090;&#1077;&#1088;&#1074;&#1072;&#1083;&#1086;&#1074;</text><text fill="#000000" font-family="sans-serif" font-size="14" lengthAdjust="spacing" textLength="78.1348" x="746.9281" y="296.3257">&#1074; &#1089;&#1090;&#1072;&#1090;&#1091;&#1089;&#1072;&#1093;</text></g><!--entity snapshot--><g class="entity" data-qualified-name=".... ...........n........ ETL..snapshot" data-source-line="25" id="ent0017"><rect fill="#F1F1F1" height="52.5938" rx="2.5" ry="2.5" style="stroke:#181818;stroke-width:0.5;" width="146.1436" x="900.93" y="257.0338"/><text fill="#000000" font-family="sans-serif" font-size="14" lengthAdjust="spacing" textLength="126.1436" x="910.93" y="280.0289">&#1057;&#1085;&#1080;&#1084;&#1082;&#1080; &#1079;&#1072;&#1075;&#1088;&#1091;&#1079;&#1082;&#1080;</text><text fill="#000000" font-family="sans-serif" font-size="14" lengthAdjust="spacing" textLength="66.0488" x="940.9774" y="296.3257">&#1082;&#1086;&#1084;&#1072;&#1085;&#1076;&#1099;</text></g><!--entity source_system--><g class="entity" data-qualified-name="pg.............source_system" data-source-line="30" id="ent0020"><rect fill="#F1F1F1" height="36.2969" rx="2.5" ry="2.5" style="stroke:#181818;stroke-width:0.5;" width="124.4121" x="1150.79" y="524.4838"/><text fill="#000000" font-family="sans-serif" font-size="14" lengthAdjust="spacing" textLength="104.4121" x="1160.79" y="547.4789">source_system</text></g><!--entity canonical_status--><g class="entity" data-qualified-name="pg.............canonical_status" data-source-line="31" id="ent0021"><rect fill="#F1F1F1" height="36.2969" rx="2.5" ry="2.5" style="stroke:#181818;stroke-width:0.5;" width="136.6621" x="1310.67" y="524.4838"/><text fill="#000000" font-family="sans-serif" font-size="14" lengthAdjust="spacing" textLength="116.6621" x="1320.67" y="547.4789">canonical_status</text></g><!--entity field_mapping--><g class="entity" data-qualified-name="pg.............field_mapping" data-source-line="32" id="ent0022"><rect fill="#F1F1F1" height="36.2969" rx="2.5" ry="2.5" style="stroke:#181818;stroke-width:0.5;" width="118.8477" x="1169.58" y="647.0438"/><text fill="#000000" font-family="sans-serif" font-size="14" lengthAdjust="spacing" textLength="98.8477" x="1179.58" y="670.0389">field_mapping</text></g><!--entity team / person--><g class="entity" data-qualified-name="pg.............team . person" data-source-line="33" id="ent0023"><rect fill="#F1F1F1" height="36.2969" rx="2.5" ry="2.5" style="stroke:#181818;stroke-width:0.5;" width="117.9248" x="1323.04" y="647.0438"/><text fill="#000000" font-family="sans-serif" font-size="14" lengthAdjust="spacing" textLength="97.9248" x="1333.04" y="670.0389">team / person</text></g><!--entity task--><g class="entity" data-qualified-name="pg........task" data-source-line="36" id="ent0025"><rect fill="#F1F1F1" height="36.2969" rx="2.5" ry="2.5" style="stroke:#181818;stroke-width:0.5;" width="49.4697" x="1503.27" y="524.4838"/><text fill="#000000" font-family="sans-serif" font-size="14" lengthAdjust="spacing" textLength="29.4697" x="1513.27" y="547.4789">task</text></g><!--entity task_comment--><g class="entity" data-qualified-name="pg........task_comment" data-source-line="37" id="ent0026"><rect fill="#F1F1F1" height="36.2969" rx="2.5" ry="2.5" style="stroke:#181818;stroke-width:0.5;" width="122.9834" x="1587.51" y="524.4838"/><text fill="#000000" font-family="sans-serif" font-size="14" lengthAdjust="spacing" textLength="102.9834" x="1597.51" y="547.4789">task_comment</text></g><!--entity task_status_history--><g class="entity" data-qualified-name="pg........task_status_history" data-source-line="38" id="ent0027"><rect fill="#F1F1F1" height="36.2969" rx="2.5" ry="2.5" style="stroke:#181818;stroke-width:0.5;" width="154.6406" x="1745.68" y="524.4838"/><text fill="#000000" font-family="sans-serif" font-size="14" lengthAdjust="spacing" textLength="134.6406" x="1755.68" y="547.4789">task_status_history</text></g><!--entity task_status_duration--><g class="entity" data-qualified-name="pg........task_status_duration" data-source-line="39" id="ent0028"><rect fill="#F1F1F1" height="36.2969" rx="2.5" ry="2.5" style="stroke:#181818;stroke-width:0.5;" width="165.4004" x="1503.3" y="647.0438"/><text fill="#000000" font-family="sans-serif" font-size="14" lengthAdjust="spacing" textLength="145.4004" x="1513.3" y="670.0389">task_status_duration</text></g><!--entity release--><g class="entity" data-qualified-name="pg........release" data-source-line="40" id="ent0029"><rect fill="#F1F1F1" height="36.2969" rx="2.5" ry="2.5" style="stroke:#181818;stroke-width:0.5;" width="71.3584" x="1703.32" y="647.0438"/><text fill="#000000" font-family="sans-serif" font-size="14" lengthAdjust="spacing" textLength="51.3584" x="1713.32" y="670.0389">release</text></g><!--entity v_task_backlog_duration--><g class="entity" data-qualified-name="pg........v_task_backlog_duration" data-source-line="43" id="ent0031"><rect fill="#F1F1F1" height="36.2969" rx="2.5" ry="2.5" style="stroke:#181818;stroke-width:0.5;" width="192.2793" x="1150.86" y="775.4938"/><text fill="#000000" font-family="sans-serif" font-size="14" lengthAdjust="spacing" textLength="172.2793" x="1160.86" y="798.4889">v_task_backlog_duration</text></g><!--entity v_task_status_time--><g class="entity" data-qualified-name="pg........v_task_status_time" data-source-line="44" id="ent0032"><rect fill="#F1F1F1" height="36.2969" rx="2.5" ry="2.5" style="stroke:#181818;stroke-width:0.5;" width="153.4033" x="1378.3" y="775.4938"/><text fill="#000000" font-family="sans-serif" font-size="14" lengthAdjust="spacing" textLength="133.4033" x="1388.3" y="798.4889">v_task_status_time</text></g><!--entity v_team_open_tasks--><g class="entity" data-qualified-name="pg........v_team_open_tasks" data-source-line="45" id="ent0033"><rect fill="#F1F1F1" height="36.2969" rx="2.5" ry="2.5" style="stroke:#181818;stroke-width:0.5;" width="157.3066" x="1168.35" y="872.7838"/><text fill="#000000" font-family="sans-serif" font-size="14" lengthAdjust="spacing" textLength="137.3066" x="1178.35" y="895.7789">v_team_open_tasks</text></g><!--entity v_tasks_by_release--><g class="entity" data-qualified-name="pg........v_tasks_by_release" data-source-line="46" id="ent0034"><rect fill="#F1F1F1" height="36.2969" rx="2.5" ry="2.5" style="stroke:#181818;stroke-width:0.5;" width="154.5791" x="1360.71" y="872.7838"/><text fill="#000000" font-family="sans-serif" font-size="14" lengthAdjust="spacing" textLength="134.5791" x="1370.71" y="895.7789">v_tasks_by_release</text></g><!--entity analyst--><g class="entity" data-qualified-name="analyst" data-source-line="6" id="ent0001"><ellipse cx="1392.0032" cy="91.2437" fill="#F1F1F1" rx="8" ry="8" style="stroke:#181818;stroke-width:0.5;"/><path d="M1392.0032,99.2437 L1392.0032,126.2437 M1379.0032,107.2437 L1405.0032,107.2437 M1392.0032,126.2437 L1379.0032,141.2437 M1392.0032,126.2437 L1405.0032,141.2437" fill="none" style="stroke:#181818;stroke-width:0.5;"/><text fill="#000000" font-family="sans-serif" font-size="14" lengthAdjust="spacing" textLength="71.0664" x="1356.47" y="155.7389">&#1040;&#1085;&#1072;&#1083;&#1080;&#1090;&#1080;&#1082;</text></g><!--entity admin--><g class="entity" data-qualified-name="admin" data-source-line="7" id="ent0002"><ellipse cx="1521.9974" cy="253.6838" fill="#F1F1F1" rx="8" ry="8" style="stroke:#181818;stroke-width:0.5;"/><path d="M1521.9974,261.6838 L1521.9974,288.6838 M1508.9974,269.6838 L1534.9974,269.6838 M1521.9974,288.6838 L1508.9974,303.6838 M1521.9974,288.6838 L1534.9974,303.6838" fill="none" style="stroke:#181818;stroke-width:0.5;"/><text fill="#000000" font-family="sans-serif" font-size="14" lengthAdjust="spacing" textLength="116.0947" x="1463.95" y="318.1789">&#1040;&#1076;&#1084;&#1080;&#1085;&#1080;&#1089;&#1090;&#1088;&#1072;&#1090;&#1086;&#1088;</text></g><!--entity finebi--><g class="entity" data-qualified-name="finebi" data-source-line="8" id="ent0003"><path d="M1364.1799,268.8596 C1367.3148,262.8541 1372.9518,260.4401 1377.75,267.0738 C1382.2448,260.0478 1389.4648,260.6424 1393.8833,267.1647 C1398.4522,260.5844 1402.6806,260.8416 1406.3886,267.9511 C1412.3992,260.3771 1417.7134,260.6982 1421.9878,269.5953 C1429.1455,273.4356 1430.1909,280.1011 1423.6223,285.3641 C1428.9108,290.2833 1429.3525,295.3009 1422.2537,298.9745 C1419.9762,306.3418 1413.8029,307.7585 1408.4523,302.2748 C1405.3822,311.0324 1400.5882,312.1112 1393.7702,305.9677 C1388.8943,311.2941 1382.2248,309.9308 1379.8822,303.0788 C1372.9522,308.6126 1367.322,308.2226 1364.0448,299.1249 C1356.3325,295.6574 1354.43,290.0302 1360.8709,283.6584 C1354.331,278.2833 1355.4493,270.8202 1364.1799,268.8596" fill="#F1F1F1" style="stroke:#181818;stroke-width:0.5;"/><text fill="#000000" font-family="sans-serif" font-size="14" lengthAdjust="spacing" textLength="43.1621" x="1370.42" y="288.1789">FineBI</text></g><g class="entity" data-qualified-name="GMN52" data-source-line="73" id="ent0053"><path d="M1971.91,507.3638 L1971.91,577.895 L2262.0887,577.895 L2262.0887,517.3638 L2252.0887,507.3638 L1971.91,507.3638" fill="#FEFFDD" style="stroke:#181818;stroke-width:0.5;"/><path d="M2252.0887,507.3638 L2252.0887,517.3638 L2262.0887,517.3638 L2252.0887,507.3638" fill="#FEFFDD" style="stroke:#181818;stroke-width:1;"/><text fill="#000000" font-family="sans-serif" font-size="13" lengthAdjust="spacing" textLength="100.9214" x="2042.0975" y="524.4306">&#1045;&#1076;&#1080;&#1085;&#1099;&#1077; &#1087;&#1086;&#1083;&#1103; &#1074;</text><text fill="#000000" font-family="sans-serif" font-size="13" font-weight="700" lengthAdjust="spacing" textLength="31.3701" x="2147.1512" y="524.4306">task</text><text fill="#000000" font-family="sans-serif" font-size="13" lengthAdjust="spacing" textLength="4.3799" x="2178.5213" y="524.4306">:</text><text fill="#000000" font-family="sans-serif" font-size="13" lengthAdjust="spacing" textLength="184.4819" x="2020.2584" y="539.5635">external_id, title, start_date,</text><text fill="#000000" font-family="sans-serif" font-size="13" lengthAdjust="spacing" textLength="220.7588" x="2002.12" y="554.6963">release_date, canonical_status, ...</text><text fill="#000000" font-family="sans-serif" font-size="13" lengthAdjust="spacing" textLength="269.1787" x="1977.91" y="569.8291">&#1057;&#1099;&#1088;&#1099;&#1077; &#1087;&#1086;&#1083;&#1103; &#8212; source_status, extra_json</text></g><g class="entity" data-qualified-name="GMN55" data-source-line="80" id="ent0056"><path d="M1081.89,263.2038 L1081.89,303.4694 L1320.1004,303.4694 L1320.1004,273.2038 L1310.1004,263.2038 L1081.89,263.2038" fill="#FEFFDD" style="stroke:#181818;stroke-width:0.5;"/><path d="M1310.1004,263.2038 L1310.1004,273.2038 L1320.1004,273.2038 L1310.1004,263.2038" fill="#FEFFDD" style="stroke:#181818;stroke-width:1;"/><text fill="#000000" font-family="sans-serif" font-size="13" lengthAdjust="spacing" textLength="152.1025" x="1120.444" y="280.2706">Trello: Board &#8594; project,</text><text fill="#000000" font-family="sans-serif" font-size="13" lengthAdjust="spacing" textLength="217.2104" x="1087.89" y="295.4035">Card &#8594; task, List &#8594; source_status</text></g><!--link jira to cj--><g class="link" data-entity-1="ent0005" data-entity-2="ent0010" data-link-type="dependency" data-source-line="50" id="lnk35"><path d="M429,139.3637 C429,170.2238 429,229.0338 429,259.8837" fill="none" id="jira-to-cj" style="stroke:#181818;stroke-width:1;"/><polygon fill="#181818" points="429,264.8837,433,255.8837,429,259.8837,425,255.8837,429,264.8837" style="stroke:#181818;stroke-width:1;stroke-linejoin:miter;stroke-miterlimit:10;"/></g><!--link tfs to ct--><g class="link" data-entity-1="ent0006" data-entity-2="ent0011" data-link-type="dependency" data-source-line="51" id="lnk36"><path d="M119.73,147.6638 C111.72,180.6237 99.2499,231.915 92.3899,260.165" fill="none" id="tfs-to-ct" style="stroke:#181818;stroke-width:1;"/><polygon fill="#181818" points="91.21,265.0238,97.2208,257.2218,92.3899,260.165,89.4467,255.334,91.21,265.0238" style="stroke:#181818;stroke-width:1;stroke-linejoin:miter;stroke-miterlimit:10;"/></g><!--link trello to ctr--><g class="link" data-entity-1="ent0007" data-entity-2="ent0012" data-link-type="dependency" data-source-line="52" id="lnk37"><path d="M547.32,139.3637 C558.47,170.2238 579.8405,229.3315 590.9905,260.1815" fill="none" id="trello-to-ctr" style="stroke:#181818;stroke-width:1;"/><polygon fill="#181818" points="592.69,264.8837,593.3927,255.06,590.9905,260.1815,585.869,257.7792,592.69,264.8837" style="stroke:#181818;stroke-width:1;stroke-linejoin:miter;stroke-miterlimit:10;"/></g><!--link other to co--><g class="link" data-entity-1="ent0008" data-entity-2="ent0013" data-link-type="dependency" data-source-line="53" id="lnk38"><path d="M285.02,147.6638 C278.65,180.6237 268.7488,231.8646 263.2888,260.1146" fill="none" id="other-to-co" style="stroke:#181818;stroke-width:1;"/><polygon fill="#181818" points="262.34,265.0238,267.9752,256.9463,263.2888,260.1146,260.1205,255.4282,262.34,265.0238" style="stroke:#181818;stroke-width:1;stroke-linejoin:miter;stroke-miterlimit:10;"/></g><!--link cj to mapper--><g class="link" data-entity-1="ent0010" data-entity-2="ent0014" data-link-type="dependency" data-source-line="55" id="lnk39"><path d="M433.43,301.6138 C444.79,345.8937 473.7477,458.7705 487.1677,511.0905" fill="none" id="cj-to-mapper" style="stroke:#181818;stroke-width:1;"/><polygon fill="#181818" points="488.41,515.9338,490.0485,506.2221,487.1677,511.0905,482.2993,508.2098,488.41,515.9338" style="stroke:#181818;stroke-width:1;stroke-linejoin:miter;stroke-miterlimit:10;"/></g><!--link ct to mapper--><g class="link" data-entity-1="ent0011" data-entity-2="ent0014" data-link-type="dependency" data-source-line="56" id="lnk40"><path d="M114.72,301.8138 C185.21,346.2637 367.3108,461.1065 450.1108,513.3265" fill="none" id="ct-to-mapper" style="stroke:#181818;stroke-width:1;"/><polygon fill="#181818" points="454.34,515.9938,448.8613,507.8094,450.1108,513.3265,444.5937,514.5761,454.34,515.9938" style="stroke:#181818;stroke-width:1;stroke-linejoin:miter;stroke-miterlimit:10;"/></g><!--link ctr to mapper--><g class="link" data-entity-1="ent0012" data-entity-2="ent0014" data-link-type="dependency" data-source-line="57" id="lnk41"><path d="M592.01,301.6138 C574.12,345.8937 528.4139,458.9782 507.2639,511.2982" fill="none" id="ctr-to-mapper" style="stroke:#181818;stroke-width:1;"/><polygon fill="#181818" points="505.39,515.9338,512.4715,509.0888,507.2639,511.2982,505.0546,506.0906,505.39,515.9338" style="stroke:#181818;stroke-width:1;stroke-linejoin:miter;stroke-miterlimit:10;"/></g><!--link co to mapper--><g class="link" data-entity-1="ent0013" data-entity-2="ent0014" data-link-type="dependency" data-source-line="58" id="lnk42"><path d="M274.85,301.6138 C315.47,345.8937 420.0602,459.929 468.0502,512.249" fill="none" id="co-to-mapper" style="stroke:#181818;stroke-width:1;"/><polygon fill="#181818" points="471.43,515.9338,468.2942,506.5974,468.0502,512.249,462.3986,512.0051,471.43,515.9338" style="stroke:#181818;stroke-width:1;stroke-linejoin:miter;stroke-miterlimit:10;"/></g><!--link mapper to statusmap--><g class="link" data-entity-1="ent0014" data-entity-2="ent0015" data-link-type="dependency" data-source-line="60" id="lnk43"><path d="M557.92,569.3438 C607.76,589.7138 672.4216,616.1423 722.2916,636.5223" fill="none" id="mapper-to-statusmap" style="stroke:#181818;stroke-width:1;"/><polygon fill="#181818" points="726.92,638.4137,720.102,631.3064,722.2916,636.5223,717.0757,638.7119,726.92,638.4137" style="stroke:#181818;stroke-width:1;stroke-linejoin:miter;stroke-miterlimit:10;"/></g><!--link statusmap to pg--><g class="link" data-entity-1="ent0015" data-entity-2="ent0018" data-link-type="dependency" data-source-line="61" id="lnk44"><path d="M883.2,644.6338 C937.8,630.8038 1006.84,609.1038 1063,577.8938 C1072.91,572.3888 1082.605,564.1788 1089.9675,557.175 C1090.8878,556.2995 1091.7717,555.4429 1092.615,554.6128 C1093.0366,554.1977 1093.4481,553.7893 1093.8489,553.3884 C1094.0494,553.188 1094.2471,552.9894 1094.4421,552.7929 C1094.5396,552.6946 1094.6365,552.5969 1094.7326,552.4996 C1094.7807,552.451 1091.3166,555.9614 1091.3643,555.9131" fill="none" id="statusmap-to-pg" style="stroke:#181818;stroke-width:1;"/><polygon fill="#181818" points="1094.8763,552.3542,1085.7076,555.9506,1091.3643,555.9131,1091.4018,561.5698,1094.8763,552.3542" style="stroke:#181818;stroke-width:1;stroke-linejoin:miter;stroke-miterlimit:10;"/></g><!--link mapper to pg--><g class="link" data-entity-1="ent0014" data-entity-2="ent0018" data-link-type="dependency" data-source-line="62" id="lnk45"><path d="M557.94,542.6338 C648.65,542.6338 739.36,542.6338 830.07,542.6338 C875.425,542.6338 920.78,542.6338 966.135,542.6338 C988.8125,542.6338 1011.49,542.6338 1034.1675,542.6338 C1045.5063,542.6338 1056.845,542.6338 1068.1838,542.6338 C1073.8531,542.6338 1079.5225,542.6338 1085.1919,542.6338 C1088.0266,542.6338 1085.8613,542.6338 1088.6959,542.6338" fill="none" id="mapper-to-pg" style="stroke:#181818;stroke-width:1;"/><polygon fill="#181818" points="1093.6959,542.6338,1084.6959,538.6338,1088.6959,542.6338,1084.6959,546.6338,1093.6959,542.6338" style="stroke:#181818;stroke-width:1;stroke-linejoin:miter;stroke-miterlimit:10;"/></g><!--link pg to duration--><g class="link" data-entity-1="ent0018" data-entity-2="ent0016" data-link-type="dependency" data-source-line="64" id="lnk46"><path d="M1094.8431,441.5175 C1094.5165,440.5039 1094.1796,439.4935 1093.832,438.487 C1093.1369,436.474 1092.3992,434.4764 1091.6166,432.4991 C1085.3556,416.6806 1076.22,402.1638 1063,391.4838 C1048.72,379.9438 915,390.4038 898,383.4838 C860,368.0137 829.4756,337.6857 809.2056,313.8057" fill="none" id="pg-to-duration" style="stroke:#181818;stroke-width:1;"/><polygon fill="#181818" points="805.97,309.9938,808.7446,319.4437,809.2056,313.8057,814.8437,314.2667,805.97,309.9938" style="stroke:#181818;stroke-width:1;stroke-linejoin:miter;stroke-miterlimit:10;"/></g><!--link duration to pg--><g class="link" data-entity-1="ent0016" data-entity-2="ent0018" data-link-type="dependency" data-source-line="65" id="lnk47"><path d="M842.31,309.9938 C891.2,331.6038 964.29,362.2938 1030,383.4838 C1044.36,388.1138 1052.21,380.9338 1063,391.4838 C1075.1525,403.3638 1083.7463,418.49 1089.7969,434.5452 C1091.3095,438.5589 1092.6632,442.6308 1093.8739,446.7245 C1094.1765,447.7479 1094.4703,448.7727 1094.7553,449.7983 C1094.8265,450.0547 1093.5778,445.4884 1093.648,445.7449" fill="none" id="duration-to-pg" style="stroke:#181818;stroke-width:1;"/><polygon fill="#181818" points="1094.9674,450.5676,1096.4506,440.8311,1093.648,445.7449,1088.7342,442.9422,1094.9674,450.5676" style="stroke:#181818;stroke-width:1;stroke-linejoin:miter;stroke-miterlimit:10;"/></g><!--link pg to snapshot--><g class="link" data-entity-1="ent0018" data-entity-2="ent0017" data-link-type="dependency" data-source-line="66" id="lnk48"><path d="M1094.879,489.5449 C1094.7861,489.0855 1094.6923,488.6243 1094.5975,488.1613 C1088.5325,458.5287 1078.6,421.6838 1063,391.4838 C1046.91,360.3238 1023.9822,333.6721 1004.1022,313.3021" fill="none" id="pg-to-snapshot" style="stroke:#181818;stroke-width:1;"/><polygon fill="#181818" points="1000.61,309.7238,1004.0334,318.9585,1004.1022,313.3021,1009.7587,313.3709,1000.61,309.7238" style="stroke:#181818;stroke-width:1;stroke-linejoin:miter;stroke-miterlimit:10;"/></g><!--link analyst to finebi--><g class="link" data-entity-1="ent0001" data-entity-2="ent0003" data-link-type="dependency" data-source-line="68" id="lnk49"><path d="M1392,159.5037 C1392,190.6237 1392,228.8038 1392,254.8038" fill="none" id="analyst-to-finebi" style="stroke:#181818;stroke-width:1;"/><polygon fill="#181818" points="1392,259.8038,1396,250.8038,1392,254.8038,1388,250.8038,1392,259.8038" style="stroke:#181818;stroke-width:1;stroke-linejoin:miter;stroke-miterlimit:10;"/></g><!--link finebi to pg--><g class="link" data-entity-1="ent0003" data-entity-2="ent0018" data-link-type="dependency" data-source-line="69" id="lnk50"><path d="M1362.33,306.8538 C1354.66,312.0838 1346.23,317.3338 1338,321.4838 C1252.8,364.4738 1198.24,320.0037 1135,391.4838 C1132.2181,394.6275 1129.6574,397.9527 1127.3012,401.4252 C1126.1231,403.1615 1124.9961,404.9345 1123.9182,406.7401 C1123.7834,406.9658 1126.1825,402.8812 1126.0493,403.1079" fill="none" id="finebi-to-pg" style="stroke:#181818;stroke-width:1;"/><polygon fill="#181818" points="1123.5162,407.4187,1131.5245,401.6857,1126.0493,403.1079,1124.6271,397.6327,1123.5162,407.4187" style="stroke:#181818;stroke-width:1;stroke-linejoin:miter;stroke-miterlimit:10;"/></g><!--link admin to pg--><g class="link" data-entity-1="ent0002" data-entity-2="ent0018" data-link-type="dependency" data-source-line="70" id="lnk51"><path d="M1463.62,314.4038 C1457.74,316.9638 1451.8,319.3837 1446,321.4838 C1337.57,360.8138 1307.31,361.9238 1194,383.4838 C1181,385.9538 1144.7,382.4838 1135,391.4838 C1131.9225,394.3381 1129.1025,397.4096 1126.5201,400.6607 C1125.2288,402.2862 1123.997,403.9567 1122.822,405.6673 C1122.5283,406.095 1125,402.3572 1124.7133,402.7898" fill="none" id="admin-to-pg" style="stroke:#181818;stroke-width:1;"/><polygon fill="#181818" points="1121.9514,406.9577,1130.2572,401.665,1124.7133,402.7898,1123.5885,397.2459,1121.9514,406.9577" style="stroke:#181818;stroke-width:1;stroke-linejoin:miter;stroke-miterlimit:10;"/><text fill="#000000" font-family="sans-serif" font-size="13" lengthAdjust="spacing" textLength="58.5508" x="1367.6997" y="364.5506">&#1084;&#1072;&#1087;&#1087;&#1080;&#1085;&#1075;</text><text fill="#000000" font-family="sans-serif" font-size="13" lengthAdjust="spacing" textLength="88.4102" x="1352.77" y="379.6835">&#1089;&#1087;&#1088;&#1072;&#1074;&#1086;&#1095;&#1085;&#1080;&#1082;&#1080;</text></g><!--link pg to GMN52--><g class="link" data-entity-1="ent0018" data-entity-2="ent0053" data-link-type="association" data-source-line="73" id="lnk54"><path d="M1112.9937,407.1772 C1113.1101,406.8781 1113.2274,406.5795 1113.3457,406.2814 C1113.8187,405.0891 1114.3067,403.9048 1114.8102,402.7294 C1122.865,383.9225 1134.8625,367.3837 1152.5,356.4838 C1223.01,312.9038 1820.72,327.8438 1898.5,356.4838 C1980.1,386.5338 2051.98,462.1038 2089.48,507.1838" fill="none" id="pg-GMN52" style="stroke:#181818;stroke-width:1;stroke-dasharray:7,7;"/></g><!--link trello to GMN55--><g class="link" data-entity-1="ent0007" data-entity-2="ent0056" data-link-type="association" data-source-line="80" id="lnk57"><path d="M584.36,122.3937 C675.67,124.6938 893.31,136.7437 1063,198.0338 C1105.78,213.4838 1149.68,243.1437 1176.15,262.8338" fill="none" id="trello-GMN55" style="stroke:#181818;stroke-width:1;stroke-dasharray:7,7;"/></g><?plantuml-src TLNTJXmt5BwVfx2sDmtQKFMMYqhGD58gfAI2cwgBHjvPxpBBh3toUDFIAX8G9RIYLPE8t5HLMzvWIrXb8K1UmNw5F4c_Otj_XWQjjEDp_FdyVxR9JI6OVU7st3CxSGTsR2_SWNlgzkneXK4winDxvOxiEOFoqBrq1yo-jIFeH-wm9Jzrl-7GoBvddxCFUySCmhLzvtwr5_QQsPVscDa9S_imFhQNTdGdIQgTN9PSym7BrA1KKaYpONOHX1QPuR9NY0L8HtJvi32RuWUpMkGzEG2QPVWJEabuPfHc3Vl2NY62TpxyYRreC5unBdcnMva5p1dy8nMWzf4WqgDGtLv0TmQvJB923JkiSJ-NOks1rtUnRET9Kl9iX_S4xBo2XR7xcUpOCH8BvYWvTzHWdwpdlMspLWm5-obXxBklSytPwgC7MsIi3u6KgpyEjM3tnEE7PTMIc_StPWZJhGYmgKLHgBdMYxHX_qRSr-uGiVzUysr7BJc5AxEDuZnP3Fe4nRb61tqhwS0Rd_zpo1EqqFxhdjepjFSNACxPLvlhTwQfV4kklm_9s3zWv8hofn6XsZ7ApplD-hSWa5u0cDi0Fhk8qRU07b9E0HCAyIUD77vZREA3aGFwl2MxkIWwwO2NPIvx_W2jXVxV8L-vaP_qVHm_RSbA3NKcqifmCwng9e8A6c_b7npRdp8X5XJbFFKZw2tPqxhvaNlcxNI6cfjSIM_cn8_G9NWo2OH2Jz26jwI02T27sWhGcJiAKKXULjlAK6ixtF0shz3RHweoFIqslbblIIrAfGsYzhDRzdpRkg1Hc87tr7J4IGD4lk6euI48PveyA2C6Mq6NSQbadl4YrYIgwoKEEYF0rSyO2bqfIRed2vwFVHfqXund_WolThRconHN0L5xKHKRiPrNOF3kHtQcvOnRc2E1ajpq_XUQu9j5_8pU7wVUJXi4ALJlfg6u6xsOV23c6yWpLQMG7bBL3bHfUpUj1O564UVPtRjV4470xh0qIQ1qb7JYAHiabIHPto_Zu6QcBkcQg1Qb97ozQZwpivNNbxr55AG4SqBBsN1E5rD0t9-DNnAlLg-D5sJuJ4_uspGA38_8PUGTtRvlMXAC-CWe9ebK1ey0tJfCTSaEO_RrxFqPHvxZvWE_bfQev4jBAm3XRH0QCQLvfyaClMTDIb-R53GHJI1YLuBCRivraoqlBvEp4tS43jPSqPDMknYQv4xpj8z1JuJiC8ewnjvMngW11J-xiiFjjiBM5DSTzk7vArPgrST3Hs5zETLHBassZadtOitXtCb_?></g></svg>