<svg xmlns="http://www.w3.org/2000/svg" xmlns:xlink="http://www.w3.org/1999/xlink" contentStyleType="text/css" height="999px" preserveAspectRatio="none" style="width:1519px;height:999px;background:#FFFFFF;" version="1.1" viewBox="0 0 1519 999" width="1519px" zoomAndPan="magnify"><title>&#1040;&#1088;&#1093;&#1080;&#1090;&#1077;&#1082;&#1090;&#1091;&#1088;&#1072; reporting</title><defs/><g><text fill="#000000" font-family="Segoe UI" font-size="14" font-weight="bold" lengthAdjust="spacing" textLength="165.9971" x="669.5015" y="23.5352">&#1040;&#1088;&#1093;&#1080;&#1090;&#1077;&#1082;&#1090;&#1091;&#1088;&#1072; reporting</text><!--cluster Production--><g id="cluster_Production"><path d="M10,271.6083 L80.5918,271.6083 A6,6 0 0 1 84.5918,275.6083 L91.5918,292.9188 L791,292.9188 A4,4 0 0 1 795,296.9188 L795,854.1283 A4,4 0 0 1 791,858.1283 L10,858.1283 A4,4 0 0 1 6,854.1283 L6,275.6083 A4,4 0 0 1 10,271.6083 " fill="#F4F5F7" style="stroke:#DFE1E6;stroke-width:1.5;"/><line style="stroke:#DFE1E6;stroke-width:1.5;" x1="6" x2="91.5918" y1="292.9188" y2="292.9188"/><text fill="#172B4D" font-family="Segoe UI" font-size="13" font-weight="bold" lengthAdjust="spacing" textLength="72.5918" x="10" y="286.1766">Production</text></g><!--cluster nginx--><g id="cluster_nginx"><polygon fill="#FFFFFF" points="324,331.6083,334,321.6083,588,321.6083,588,417.9183,578,427.9183,324,427.9183,324,331.6083" style="stroke:#DFE1E6;stroke-width:1;"/><line style="stroke:#DFE1E6;stroke-width:1;" x1="578" x2="588" y1="331.6083" y2="321.6083"/><line style="stroke:#DFE1E6;stroke-width:1;" x1="324" x2="578" y1="331.6083" y2="331.6083"/><line style="stroke:#DFE1E6;stroke-width:1;" x1="578" x2="578" y1="331.6083" y2="427.9183"/><text fill="#000000" font-family="Segoe UI" font-size="13" font-weight="bold" lengthAdjust="spacing" textLength="80.4248" x="411.7876" y="347.1766">nginx + TLS</text></g><!--cluster Docker Compose--><g id="cluster_Docker Compose"><path d="M34,468.9183 L145.623,468.9183 A6,6 0 0 1 149.623,472.9183 L156.623,490.2288 L754,490.2288 A4,4 0 0 1 758,494.2288 L758,830.1283 A4,4 0 0 1 754,834.1283 L34,834.1283 A4,4 0 0 1 30,830.1283 L30,472.9183 A4,4 0 0 1 34,468.9183 " fill="#E3FCEF" style="stroke:#DFE1E6;stroke-width:1.5;"/><line style="stroke:#DFE1E6;stroke-width:1.5;" x1="30" x2="156.623" y1="490.2288" y2="490.2288"/><text fill="#172B4D" font-family="Segoe UI" font-size="13" font-weight="bold" lengthAdjust="spacing" textLength="113.623" x="34" y="483.4866">Docker Compose</text></g><!--cluster ??????? ???????--><g id="cluster_&#1042;&#1085;&#1077;&#1096;&#1085;&#1080;&#1077; &#1089;&#1080;&#1089;&#1090;&#1077;&#1084;&#1099;"><path d="M1244,907.1283 L1364.9287,907.1283 A6,6 0 0 1 1368.9287,911.1283 L1375.9287,928.4388 L1508,928.4388 A4,4 0 0 1 1512,932.4388 L1512,988.4383 A4,4 0 0 1 1508,992.4383 L1244,992.4383 A4,4 0 0 1 1240,988.4383 L1240,911.1283 A4,4 0 0 1 1244,907.1283 " fill="#EAE6FF" style="stroke:#DFE1E6;stroke-width:1.5;"/><line style="stroke:#DFE1E6;stroke-width:1.5;" x1="1240" x2="1375.9287" y1="928.4388" y2="928.4388"/><text fill="#172B4D" font-family="Segoe UI" font-size="13" font-weight="bold" lengthAdjust="spacing" textLength="122.9287" x="1244" y="921.6966">&#1042;&#1085;&#1077;&#1096;&#1085;&#1080;&#1077; &#1089;&#1080;&#1089;&#1090;&#1077;&#1084;&#1099;</text></g><!--cluster ??????--><g id="cluster_&#1052;&#1086;&#1076;&#1091;&#1083;&#1080;"><path d="M823,620.5383 L874.7075,620.5383 A6,6 0 0 1 878.7075,624.5383 L885.7075,641.8488 L1489,641.8488 A4,4 0 0 1 1493,645.8488 L1493,701.8483 A4,4 0 0 1 1489,705.8483 L823,705.8483 A4,4 0 0 1 819,701.8483 L819,624.5383 A4,4 0 0 1 823,620.5383 " fill="#FFFAE6" style="stroke:#DFE1E6;stroke-width:1.5;"/><line style="stroke:#DFE1E6;stroke-width:1.5;" x1="819" x2="885.7075" y1="641.8488" y2="641.8488"/><text fill="#172B4D" font-family="Segoe UI" font-size="13" font-weight="bold" lengthAdjust="spacing" textLength="53.7075" x="823" y="635.1066">&#1052;&#1086;&#1076;&#1091;&#1083;&#1080;</text></g><!--entity fe_ssl--><g id="elem_fe_ssl"><rect fill="#DEEBFF" height="35.3105" rx="4" ry="4" style="stroke:#181818;stroke-width:0.5;" width="77.0464" x="348.48" y="368.6083"/><text fill="#000000" font-family="Segoe UI" font-size="13" lengthAdjust="spacing" textLength="57.0464" x="358.48" y="391.1766">UI HTTPS</text></g><!--entity api_ssl--><g id="elem_api_ssl"><rect fill="#DEEBFF" height="35.3105" rx="4" ry="4" style="stroke:#181818;stroke-width:0.5;" width="84.1938" x="460.9" y="368.6083"/><text fill="#000000" font-family="Segoe UI" font-size="13" lengthAdjust="spacing" textLength="64.1938" x="470.9" y="391.1766">API HTTPS</text></g><!--entity fe--><g id="elem_fe"><rect fill="#FFFFFF" height="50.6211" rx="4" ry="4" style="stroke:#181818;stroke-width:0.5;" width="95.2705" x="164.36" y="504.2683"/><text fill="#000000" font-family="Segoe UI" font-size="13" lengthAdjust="spacing" textLength="56.6973" x="183.6466" y="526.8366">Frontend</text><text fill="#000000" font-family="Segoe UI" font-size="13" lengthAdjust="spacing" textLength="75.2705" x="174.36" y="542.1472">React :5173</text></g><!--entity api--><g id="elem_api"><rect fill="#FFFFFF" height="50.6211" rx="4" ry="4" style="stroke:#181818;stroke-width:0.5;" width="106.6455" x="635.68" y="646.8883"/><text fill="#000000" font-family="Segoe UI" font-size="13" lengthAdjust="spacing" textLength="52.4063" x="662.7996" y="669.4566">Backend</text><text fill="#000000" font-family="Segoe UI" font-size="13" lengthAdjust="spacing" textLength="86.6455" x="645.68" y="684.7672">FastAPI :8000</text></g><!--entity pg--><g id="elem_pg"><path d="M650.32,768.5083 C650.32,758.5083 696.0002,758.5083 696.0002,758.5083 C696.0002,758.5083 741.6804,758.5083 741.6804,768.5083 L741.6804,808.1294 C741.6804,818.1294 696.0002,818.1294 696.0002,818.1294 C696.0002,818.1294 650.32,818.1294 650.32,808.1294 L650.32,768.5083 " fill="#FFFFFF" style="stroke:#181818;stroke-width:0.5;"/><path d="M650.32,768.5083 C650.32,778.5083 696.0002,778.5083 696.0002,778.5083 C696.0002,778.5083 741.6804,778.5083 741.6804,768.5083 " fill="none" style="stroke:#181818;stroke-width:0.5;"/><text fill="#000000" font-family="Segoe UI" font-size="13" lengthAdjust="spacing" textLength="71.3604" x="660.32" y="795.0766">PostgreSQL</text><text fill="#000000" font-family="Segoe UI" font-size="13" lengthAdjust="spacing" textLength="36.9941" x="677.5031" y="810.3872">:5432</text></g><!--entity minio--><g id="elem_minio"><rect fill="#FFFFFF" height="50.6211" rx="4" ry="4" style="stroke:#181818;stroke-width:0.5;" width="104.8174" x="270.59" y="646.8883"/><text fill="#000000" font-family="Segoe UI" font-size="13" lengthAdjust="spacing" textLength="36.8672" x="304.5651" y="669.4566">MinIO</text><text fill="#000000" font-family="Segoe UI" font-size="13" lengthAdjust="spacing" textLength="84.8174" x="280.59" y="684.7672">photos :9000</text></g><!--entity minioinit--><g id="elem_minioinit"><rect fill="#FFFFFF" height="35.3105" rx="4" ry="4" style="stroke:#181818;stroke-width:0.5;" width="83.6733" x="46.16" y="511.9183"/><text fill="#000000" font-family="Segoe UI" font-size="13" lengthAdjust="spacing" textLength="63.6733" x="56.16" y="534.4866">minio-init</text></g><!--entity yjfs--><g id="elem_yjfs"><path d="M466.79,502.9183 L504.79,502.9183 A6,6 0 0 1 508.79,506.9183 L515.79,523.9183 L601.207,523.9183 A4,4 0 0 1 605.207,527.9183 L605.207,552.2288 A4,4 0 0 1 601.207,556.2288 L466.79,556.2288 A4,4 0 0 1 462.79,552.2288 L462.79,506.9183 A4,4 0 0 1 466.79,502.9183 " fill="#FFFFFF" style="stroke:#181818;stroke-width:0.5;"/><line style="stroke:#181818;stroke-width:0.5;" x1="462.79" x2="515.79" y1="523.9183" y2="523.9183"/><text fill="#000000" font-family="Segoe UI" font-size="13" lengthAdjust="spacing" textLength="112.417" x="472.79" y="543.4866">youjail workspace</text></g><!--entity uploads--><g id="elem_uploads"><path d="M298.41,502.9183 L336.41,502.9183 A6,6 0 0 1 340.41,506.9183 L347.41,523.9183 L423.5975,523.9183 A4,4 0 0 1 427.5975,527.9183 L427.5975,552.2288 A4,4 0 0 1 423.5975,556.2288 L298.41,556.2288 A4,4 0 0 1 294.41,552.2288 L294.41,506.9183 A4,4 0 0 1 298.41,502.9183 " fill="#FFFFFF" style="stroke:#181818;stroke-width:0.5;"/><line style="stroke:#181818;stroke-width:0.5;" x1="294.41" x2="347.41" y1="523.9183" y2="523.9183"/><text fill="#000000" font-family="Segoe UI" font-size="13" lengthAdjust="spacing" textLength="103.1875" x="304.41" y="543.4866">uploads fallback</text></g><!--entity pptx--><g id="elem_pptx"><path d="M644.04,502.9183 L682.04,502.9183 A6,6 0 0 1 686.04,506.9183 L693.04,523.9183 L737.9526,523.9183 A4,4 0 0 1 741.9526,527.9183 L741.9526,552.2288 A4,4 0 0 1 737.9526,556.2288 L644.04,556.2288 A4,4 0 0 1 640.04,552.2288 L640.04,506.9183 A4,4 0 0 1 644.04,502.9183 " fill="#FFFFFF" style="stroke:#181818;stroke-width:0.5;"/><line style="stroke:#181818;stroke-width:0.5;" x1="640.04" x2="693.04" y1="523.9183" y2="523.9183"/><text fill="#000000" font-family="Segoe UI" font-size="13" lengthAdjust="spacing" textLength="71.9126" x="650.04" y="543.4866">Status.pptx</text></g><!--entity tfs--><g id="elem_tfs"><rect fill="#FFFFFF" height="35.3105" rx="4" ry="4" style="stroke:#181818;stroke-width:0.5;" width="147.0166" x="1348.49" y="941.1283"/><text fill="#000000" font-family="Segoe UI" font-size="13" lengthAdjust="spacing" textLength="127.0166" x="1358.49" y="963.6966">Azure DevOps / TFS</text></g><!--entity finebi--><g id="elem_finebi"><rect fill="#FFFFFF" height="35.3105" rx="4" ry="4" style="stroke:#181818;stroke-width:0.5;" width="57.2607" x="1256.37" y="941.1283"/><text fill="#000000" font-family="Segoe UI" font-size="13" lengthAdjust="spacing" textLength="37.2607" x="1266.37" y="963.6966">FineBI</text></g><!--entity auth--><g id="elem_auth"><rect fill="#FFFFFF" height="35.3105" rx="4" ry="4" style="stroke:#181818;stroke-width:0.5;" width="49.9673" x="835.02" y="654.5383"/><text fill="#000000" font-family="Segoe UI" font-size="13" lengthAdjust="spacing" textLength="29.9673" x="845.02" y="677.1066">Auth</text></g><!--entity sync--><g id="elem_sync"><rect fill="#FFFFFF" height="35.3105" rx="4" ry="4" style="stroke:#181818;stroke-width:0.5;" width="74.8247" x="1402.59" y="654.5383"/><text fill="#000000" font-family="Segoe UI" font-size="13" lengthAdjust="spacing" textLength="54.8247" x="1412.59" y="677.1066">TFS Sync</text></g><!--entity org--><g id="elem_org"><rect fill="#FFFFFF" height="35.3105" rx="4" ry="4" style="stroke:#181818;stroke-width:0.5;" width="107.1025" x="920.45" y="654.5383"/><text fill="#000000" font-family="Segoe UI" font-size="13" lengthAdjust="spacing" textLength="87.1025" x="930.45" y="677.1066">Org / Staffing</text></g><!--entity yj--><g id="elem_yj"><rect fill="#FFFFFF" height="35.3105" rx="4" ry="4" style="stroke:#181818;stroke-width:0.5;" width="62.8911" x="1062.55" y="654.5383"/><text fill="#000000" font-family="Segoe UI" font-size="13" lengthAdjust="spacing" textLength="42.8911" x="1072.55" y="677.1066">YouJail</text></g><!--entity b2b--><g id="elem_b2b"><rect fill="#FFFFFF" height="35.3105" rx="4" ry="4" style="stroke:#181818;stroke-width:0.5;" width="92.4648" x="1274.77" y="654.5383"/><text fill="#000000" font-family="Segoe UI" font-size="13" lengthAdjust="spacing" textLength="72.4648" x="1284.77" y="677.1066">B2B + PPTX</text></g><!--entity roadmap--><g id="elem_roadmap"><rect fill="#FFFFFF" height="35.3105" rx="4" ry="4" style="stroke:#181818;stroke-width:0.5;" width="79.0649" x="1160.47" y="654.5383"/><text fill="#000000" font-family="Segoe UI" font-size="13" lengthAdjust="spacing" textLength="59.0649" x="1170.47" y="677.1066">Roadmap</text></g><!--entity user--><g id="elem_user"><ellipse cx="579.9991" cy="51.4883" fill="#DEEBFF" rx="8" ry="8" style="stroke:#181818;stroke-width:0.5;"/><path d="M579.9991,59.4883 L579.9991,86.4883 M566.9991,67.4883 L592.9991,67.4883 M579.9991,86.4883 L566.9991,101.4883 M579.9991,86.4883 L592.9991,101.4883 " fill="none" style="stroke:#181818;stroke-width:0.5;"/><text fill="#000000" font-family="Segoe UI" font-size="13" lengthAdjust="spacing" textLength="87.7183" x="536.14" y="115.5566">&#1055;&#1086;&#1083;&#1100;&#1079;&#1086;&#1074;&#1072;&#1090;&#1077;&#1083;&#1100;</text></g><!--entity inet--><g id="elem_inet"><path d="M548.4957,188.6133 C552.5761,181.6658 559.4196,179.8109 564.46,187.5713 C568.8539,179.9637 575.1316,179.2499 581.1791,185.5889 C586.1546,178.663 592.6722,178.7971 596.1443,187.0692 C602.1252,178.5621 607.3012,180.4266 612.7373,187.6442 C619.4271,190.8036 622.3271,196.3248 615.4865,202.0639 C623.4974,208.8626 620.6202,213.8357 613.0513,218.2972 C607.5595,225.4953 601.476,225.9814 596.2239,218.0309 C591.8339,227.101 586.3827,227.1206 580.4679,219.4675 C576.5678,225.633 569.7253,225.4855 566.3411,218.8961 C560.0258,226.932 553.2578,224.8573 548.6398,217.0051 C538.7111,217.2136 535.3206,209.9362 540.8478,202.0772 C537.1631,195.3651 540.835,188.8809 548.4957,188.6133 " fill="#F4F5F7" style="stroke:#181818;stroke-width:0.5;"/><text fill="#000000" font-family="Segoe UI" font-size="13" lengthAdjust="spacing" textLength="49.4102" x="555.29" y="206.8666">Internet</text></g><g id="elem_GMN52"><path d="M813.73,505.6083 L813.73,553.5399 A4,4 0 0 0 817.73,557.5399 L1018.2779,557.5399 A4,4 0 0 0 1022.2779,553.5399 L1022.2779,511.6083 L1012.2779,501.6083 L817.73,501.6083 A4,4 0 0 0 813.73,505.6083 " fill="#FFFAE6" style="stroke:#FFC400;stroke-width:0.5;"/><path d="M1012.2779,501.6083 L1012.2779,509.6083 A2,2 0 0 0 1014.2779,511.6083 L1022.2779,511.6083 L1012.2779,501.6083 " fill="#FFFAE6" style="stroke:#FFC400;stroke-width:1;"/><text fill="#000000" font-family="Segoe UI" font-size="13" lengthAdjust="spacing" textLength="177.9946" x="824.5066" y="519.1766">&#1042;&#1082;&#1083;&#1072;&#1076;&#1082;&#1080;: &#1047;&#1053;&#1048; &#183; B2B &#183; &#1055;&#1083;&#1072;&#1085;&#1099;</text><text fill="#000000" font-family="Segoe UI" font-size="13" lengthAdjust="spacing" textLength="187.5479" x="819.73" y="534.4872">&#1044;&#1086;&#1089;&#1082;&#1072; &#183; Staffing &#183; &#1044;&#1080;&#1072;&#1075;&#1088;&#1072;&#1084;&#1084;&#1099;</text><text fill="#000000" font-family="Segoe UI" font-size="13" lengthAdjust="spacing" textLength="71.1001" x="877.9539" y="549.7977">+ &#1087;&#1088;&#1086;&#1092;&#1080;&#1083;&#1100;</text></g><g id="elem_GMN55"><path d="M1202.64,772.0083 L1202.64,804.6294 A4,4 0 0 0 1206.64,808.6294 L1383.3588,808.6294 A4,4 0 0 0 1387.3588,804.6294 L1387.3588,778.0083 L1377.3588,768.0083 L1303.46,768.0083 L1317.16,690.0383 L1295.46,768.0083 L1206.64,768.0083 A4,4 0 0 0 1202.64,772.0083 " fill="#FFFAE6" style="stroke:#FFC400;stroke-width:0.5;"/><path d="M1377.3588,768.0083 L1377.3588,776.0083 A2,2 0 0 0 1379.3588,778.0083 L1387.3588,778.0083 L1377.3588,768.0083 " fill="#FFFAE6" style="stroke:#FFC400;stroke-width:0.5;"/><text fill="#000000" font-family="Segoe UI" font-size="13" lengthAdjust="spacing" textLength="163.7188" x="1208.64" y="785.5766">&#1044;&#1072;&#1085;&#1085;&#1099;&#1077; B2B &#1074; PostgreSQL</text><text fill="#000000" font-family="Segoe UI" font-size="13" lengthAdjust="spacing" textLength="125.2583" x="1227.8702" y="800.8872">PPTX &#1080;&#1079; Status.pptx</text></g><!--link user to inet--><g id="link_user_inet"><path d="M580,118.7383 C580,138.4383 580,155.9883 580,172.8283 " fill="none" id="user-to-inet" style="stroke:#42526E;stroke-width:1.2;"/><polygon fill="#42526E" points="580,178.8283,584,169.8283,580,173.8283,576,169.8283,580,178.8283" style="stroke:#42526E;stroke-width:1.2;"/></g><!--link inet to nginx--><g id="link_inet_nginx"><path d="M580,224.9483 C580,236.8808 580,252.6495 580,269.6436 C580,278.1406 580,286.944 580,295.7273 C580,300.119 580,304.5056 580,308.8465 C580,311.0169 580,313.1759 580,315.3183 C580,316.3895 580,317.4566 580,318.5189 C580,319.05 580,319.58 580,320.1086 C580,320.373 580,314.637 580,314.9007 " fill="none" id="inet-to-nginx" style="stroke:#42526E;stroke-width:1.2;"/><polygon fill="#42526E" points="580,320.9007,584,311.9007,580,315.9007,576,311.9007,580,320.9007" style="stroke:#42526E;stroke-width:1.2;"/></g><!--link fe_ssl to fe--><g id="link_fe_ssl_fe"><path d="M358.24,404.1483 C335.32,418.1483 302.89,439.2183 277,460.9183 C261.4,473.9983 249.5584,485.9917 237.4184,499.3917 " fill="none" id="fe_ssl-to-fe" style="stroke:#42526E;stroke-width:1.2;"/><polygon fill="#42526E" points="233.39,503.8383,242.397,499.8541,236.747,500.1328,236.4683,494.4828,233.39,503.8383" style="stroke:#42526E;stroke-width:1.2;"/></g><!--link api_ssl to api--><g id="link_api_ssl_api"><path d="M511.79,404.3383 C519.63,417.6083 532.41,435.1783 549,443.9183 C590.42,465.7383 727.26,426.5083 759,460.9183 C808.3,514.3783 750.4788,598.8888 714.8388,641.8888 " fill="none" id="api_ssl-to-api" style="stroke:#42526E;stroke-width:1.2;"/><polygon fill="#42526E" points="711.01,646.5083,719.8329,642.1315,714.2007,642.6587,713.6736,637.0264,711.01,646.5083" style="stroke:#42526E;stroke-width:1.2;"/></g><!--link fe to api--><g id="link_fe_api"><path d="M260.02,551.2783 C265.7,553.4983 271.45,555.6383 277,557.5383 C403.48,601.0283 550.2658,638.2273 629.5158,657.2573 " fill="none" id="fe-to-api" style="stroke:#42526E;stroke-width:1.2;"/><polygon fill="#42526E" points="635.35,658.6583,627.5327,652.6674,630.4882,657.4908,625.6648,660.4463,635.35,658.6583" style="stroke:#42526E;stroke-width:1.2;"/><text fill="#000000" font-family="Segoe UI" font-size="13" lengthAdjust="spacing" textLength="92.4663" x="423.79" y="601.1066">REST / session</text></g><!--link api to auth--><g id="link_api_auth"><path d="M742.77,672.1983 C773.45,672.1983 798.13,672.1983 828.81,672.1983 " fill="none" id="api-to-auth" style="stroke:#42526E;stroke-width:1.2;"/><polygon fill="#42526E" points="834.81,672.1983,825.81,668.1983,829.81,672.1983,825.81,676.1983,834.81,672.1983" style="stroke:#42526E;stroke-width:1.2;"/></g><!--link api to sync--><g id="link_api_sync"><path d="M720.94,646.4283 C749.36,625.2683 793.03,596.9183 836.5,585.0383 C893.41,569.4783 1314.08,559.9883 1367.5,585.0383 C1397.79,599.2483 1416.9688,627.739 1428.3588,648.829 " fill="none" id="api-to-sync" style="stroke:#42526E;stroke-width:1.2;"/><polygon fill="#42526E" points="1431.21,654.1083,1430.4528,644.2886,1428.834,649.7089,1423.4137,648.0901,1431.21,654.1083" style="stroke:#42526E;stroke-width:1.2;"/></g><!--link api to org--><g id="link_api_org"><path d="M720.94,646.4283 C749.36,625.2683 793.03,596.9183 836.5,585.0383 C857.08,579.4183 864.74,577.0083 884.5,585.0383 C918.86,599.0083 943.772,628.3092 958.832,649.4792 " fill="none" id="api-to-org" style="stroke:#42526E;stroke-width:1.2;"/><polygon fill="#42526E" points="962.31,654.3683,960.3524,644.7159,959.4116,650.294,953.8336,649.3533,962.31,654.3683" style="stroke:#42526E;stroke-width:1.2;"/></g><!--link api to yj--><g id="link_api_yj"><path d="M720.94,646.4283 C749.36,625.2683 793.03,596.9183 836.5,585.0383 C918.38,562.6583 951.42,547.3883 1027.5,585.0383 C1056.5,599.3883 1073.726,627.7032 1083.766,648.7432 " fill="none" id="api-to-yj" style="stroke:#42526E;stroke-width:1.2;"/><polygon fill="#42526E" points="1086.35,654.1583,1086.0841,644.313,1084.1967,649.6457,1078.864,647.7583,1086.35,654.1583" style="stroke:#42526E;stroke-width:1.2;"/></g><!--link api to b2b--><g id="link_api_b2b"><path d="M720.94,646.4283 C749.36,625.2683 793.03,596.9183 836.5,585.0383 C922.89,561.4283 1157.35,549.3883 1239.5,585.0383 C1271.81,599.0583 1293.944,627.8267 1307.314,648.9767 " fill="none" id="api-to-b2b" style="stroke:#42526E;stroke-width:1.2;"/><polygon fill="#42526E" points="1310.52,654.0483,1309.092,644.3035,1307.8483,649.8219,1302.3299,648.5782,1310.52,654.0483" style="stroke:#42526E;stroke-width:1.2;"/></g><!--link api to roadmap--><g id="link_api_roadmap"><path d="M720.94,646.4283 C749.36,625.2683 793.03,596.9183 836.5,585.0383 C898.45,568.1083 1067.17,558.1683 1125.5,585.0383 C1156.23,599.1983 1176.0657,627.7547 1187.8957,648.8547 " fill="none" id="api-to-roadmap" style="stroke:#42526E;stroke-width:1.2;"/><polygon fill="#42526E" points="1190.83,654.0883,1189.9176,644.2818,1188.3848,649.727,1182.9396,648.1941,1190.83,654.0883" style="stroke:#42526E;stroke-width:1.2;"/></g><!--link api to pg--><g id="link_api_pg"><path d="M690.52,697.9583 C691.6,715.6583 692.7033,733.5495 693.8433,752.1695 " fill="none" id="api-to-pg" style="stroke:#42526E;stroke-width:1.2;"/><polygon fill="#42526E" points="694.21,758.1583,697.6525,748.9307,693.9044,753.1676,689.6675,749.4195,694.21,758.1583" style="stroke:#42526E;stroke-width:1.2;"/></g><!--link auth to pg--><g id="link_auth_pg"><path d="M835.45,690.2783 C809.71,708.1883 773.735,733.2213 742.865,754.7013 " fill="none" id="auth-to-pg" style="stroke:#42526E;stroke-width:1.2;"/><polygon fill="#42526E" points="737.94,758.1283,747.6122,756.2712,742.0442,755.2725,743.0429,749.7045,737.94,758.1283" style="stroke:#42526E;stroke-width:1.2;"/></g><!--link sync to tfs--><g id="link_sync_tfs"><path d="M1438.93,690.1483 C1435.73,740.7583 1426.6383,884.4302 1423.4483,934.9302 " fill="none" id="sync-to-tfs" style="stroke:#42526E;stroke-width:1.2;"/><polygon fill="#42526E" points="1423.07,940.9183,1427.6294,932.1884,1423.3852,935.9282,1419.6453,931.684,1423.07,940.9183" style="stroke:#42526E;stroke-width:1.2;"/></g><!--link sync to pg--><g id="link_sync_pg"><path d="M1422.15,690.2183 C1412.05,698.7983 1398.72,708.5083 1385,713.8483 C1266.88,759.8583 882.2847,779.6563 747.8947,785.3063 " fill="none" id="sync-to-pg" style="stroke:#42526E;stroke-width:1.2;"/><polygon fill="#42526E" points="741.9,785.5583,751.0601,789.1767,746.8956,785.3483,750.724,781.1838,741.9,785.5583" style="stroke:#42526E;stroke-width:1.2;"/></g><!--link org to pg--><g id="link_org_pg"><path d="M946.54,690.1683 C933.35,697.9383 917.15,706.9383 902,713.8483 C848.46,738.2983 789.9613,758.2607 747.6113,771.6407 " fill="none" id="org-to-pg" style="stroke:#42526E;stroke-width:1.2;"/><polygon fill="#42526E" points="741.89,773.4483,751.6769,774.5511,746.6577,771.942,749.2668,766.9228,741.89,773.4483" style="stroke:#42526E;stroke-width:1.2;"/></g><!--link org to minio--><g id="link_org_minio"><path d="M962.31,654.3683 C947.25,633.1983 918.86,599.0083 884.5,585.0383 C707.43,513.0683 482.2164,597.4627 380.5064,643.9827 " fill="none" id="org-to-minio" style="stroke:#42526E;stroke-width:1.2;"/><polygon fill="#42526E" points="375.05,646.4783,384.8983,646.3724,379.597,644.3986,381.5708,639.0973,375.05,646.4783" style="stroke:#42526E;stroke-width:1.2;"/></g><!--link org to uploads--><g id="link_org_uploads"><path d="M958.64,654.2183 C945.15,640.5083 924.26,621.9983 902,612.5383 C713.71,532.5583 644.86,601.2283 445,557.5383 C439.46,556.3283 439.5583,556.4878 433.8783,554.9378 " fill="none" id="org-to-uploads" style="stroke:#42526E;stroke-width:1.2;"/><polygon fill="#42526E" points="428.09,553.3583,435.7195,559.5865,432.9136,554.6746,437.8256,551.8687,428.09,553.3583" style="stroke:#42526E;stroke-width:1.2;"/></g><!--link yj to pg--><g id="link_yj_pg"><path d="M1077.76,690.1283 C1068.84,698.4783 1057.14,707.9883 1045,713.8483 C943.95,762.6683 817.0212,778.7133 748.0212,784.1933 " fill="none" id="yj-to-pg" style="stroke:#42526E;stroke-width:1.2;"/><polygon fill="#42526E" points="742.04,784.6683,751.3284,787.9432,747.0243,784.2724,750.6951,779.9683,742.04,784.6683" style="stroke:#42526E;stroke-width:1.2;"/></g><!--link yj to yjfs--><g id="link_yj_yjfs"><path d="M1084.41,654.2783 C1075.84,640.7883 1062.04,622.5683 1045,612.5383 C881.97,516.6483 808.43,594.8283 623,557.5383 C617.3,556.3983 617.265,556.5168 611.405,555.0268 " fill="none" id="yj-to-yjfs" style="stroke:#42526E;stroke-width:1.2;"/><polygon fill="#42526E" points="605.59,553.5483,613.3268,559.6428,610.4358,554.7804,615.2982,551.8895,605.59,553.5483" style="stroke:#42526E;stroke-width:1.2;"/></g><!--link b2b to pg--><g id="link_b2b_pg"><path d="M1299.45,690.2383 C1287.59,698.7283 1272.22,708.3283 1257,713.8483 C1074.63,780.0183 845.75,787.8115 747.93,787.9215 " fill="none" id="b2b-to-pg" style="stroke:#42526E;stroke-width:1.2;"/><polygon fill="#42526E" points="741.93,787.9283,750.9345,791.9182,746.93,787.9227,750.9255,783.9182,741.93,787.9283" style="stroke:#42526E;stroke-width:1.2;"/></g><!--link b2b to pptx--><g id="link_b2b_pptx"><path d="M1307.74,654.2083 C1295.99,640.4883 1277.55,621.9683 1257,612.5383 C1069.47,526.4683 998.82,595.5083 796,557.5383 C778.33,554.2383 765.0438,551.16 748.0338,546.7 " fill="none" id="b2b-to-pptx" style="stroke:#42526E;stroke-width:1.2;"/><polygon fill="#42526E" points="742.23,545.1783,749.9212,551.3301,747.0665,546.4464,751.9502,543.5917,742.23,545.1783" style="stroke:#42526E;stroke-width:1.2;"/></g><!--link roadmap to pg--><g id="link_roadmap_pg"><path d="M1180.77,690.3083 C1170.3,698.6983 1156.71,708.1983 1143,713.8483 C1004.68,770.9083 831.0766,783.5349 747.9366,786.3549 " fill="none" id="roadmap-to-pg" style="stroke:#42526E;stroke-width:1.2;"/><polygon fill="#42526E" points="741.94,786.5583,751.0704,790.2509,746.9371,786.3888,750.7992,782.2555,741.94,786.5583" style="stroke:#42526E;stroke-width:1.2;"/></g><!--link minioinit to minio--><g id="link_minioinit_minio"><path d="M116.35,547.5383 C157.61,572.2283 229.3011,615.1278 276.7711,643.5278 " fill="none" id="minioinit-to-minio" style="stroke:#42526E;stroke-width:1.2;"/><polygon fill="#42526E" points="281.92,646.6083,276.2503,638.555,277.6293,644.0413,272.1431,645.4202,281.92,646.6083" style="stroke:#42526E;stroke-width:1.2;"/></g><!--link pg to finebi--><g id="link_pg_finebi"><path d="M741.73,802.3983 C857.68,835.5583 1154.9613,920.5884 1250.1713,947.8184 " fill="none" id="pg-to-finebi" style="stroke:#42526E;stroke-width:1.2;"/><polygon fill="#42526E" points="1255.94,949.4683,1248.3868,943.1477,1251.1327,948.0934,1246.187,950.8393,1255.94,949.4683" style="stroke:#42526E;stroke-width:1.2;"/><text fill="#000000" font-family="Segoe UI" font-size="13" lengthAdjust="spacing" textLength="34.3726" x="1044.26" y="887.6966">views</text></g><!--link fe to GMN52--><g id="link_fe_GMN52"><path d="M228.27,503.8383 C242.75,484.0283 266.02,458.9683 294.5,452.4183 C320.22,446.5083 743.78,446.5083 769.5,452.4183 C808.57,461.4083 848.67,483.1283 877.34,501.2383 " fill="none" id="fe-GMN52" style="stroke:#42526E;stroke-width:1.2;stroke-dasharray:7.0,7.0;"/></g><!--SRC=[RLNDRjj64BxlKmpKO-1KakKurQ6098keYhHMBGLeOGV5YbnHjAXTOdSPMoaCvAS52gI7eWZG7bhq5OmqHWmdSO4-mVADEhkaACgn3jJCpiVv_MQf8nqpCBzcJxEVp6Nst5oOg-nvzY9xQiv1iaH87V6G43MFU48bNO2QqK2Su25CQQnOnI95oeEUa9n9k5yv3zYKfh7s1DTVqmM3seY5Wi73GUrsq2Xwmg2n_R5np4vr9uv2lc1SWuyF9YieNomImV5qf9TOb6I-fZoCgobsf1GdFH4B2P-qcZlDU_sRnl4iykUSAGMDkysAaGlDkjIVXqMLpeNdUPt-lPie8GCcIqIlLQzN40dweE4cQC_hDpRS523RZ0BIs6rsMtiVGyPsVkkUn6og2Q6-ndTgvczpRTvblvYt-F_QdBlfebu3gY1Lp4RkzxkUHuWVYpI0si1sb3Fj414AM43Bs_5s2IdYGMqeHP3wEXAyjhB23mImz02jF8puATo1yOEHSvBhjb7uSpY0muS3-68y7euUMSIKVQzKNARY09rX5K6Jw0RaZE2Zp6XF-7CifcV7hnXcrT_sUlqocYUnZOm7H_o0OMUWlTFOtIv2hpBBaNQ-3kXHfMqExVlrUdsLmmOse9fEgBBz44g7aes-UN34spkjxQQhEmatNNyLyS7-4KzcGWi5xSzMVXSHZyGcr1rjuKEl4LRRG4r5ZFo1sbAanpIAuKJ8kSAEC1TzUJnLjyBJ91OqK7PrumbMcrEXEBpjXP6cEbLtaqIVvdMXK06UaRCADSnlveEvo7x6vwMvWEmPtYZF7ElUPo_jN71P2XOSTfwaai4UUxoVAFWKnbu-QxsH-A679EmEyc6XE5aFOIFkdqZmDzaByyvSrbPRMOH9zImV80fLpnWGHalkEwD2eMhSbo7cXBLFCMhe849M9thudKY_nBu_ohjTjNIRNUJ_S3Z-rXadpKdLUe2TNj34cMGkLqjoMxcrzRbRFk8sq6fkYqYnAVPWoiXgAwoACbfN8hJXe3yQOmKAxp5SL6B1kHMxK2gswbB1-afvULoAc7uf5_cMUe9lsAuMickYbN66QmKDjdKtH4VgKYi8IB2H1QwGB8-9xM1nN8h8Gh9gNs5RxyawG9BxBwZJXiSHEr64s5iQP1JED8YfxIK0KlSAwNDktk3_PHlCx-OlymVyznRiFF4FBrDh_f2zjEXNvXhPVONVI3IjUE9Whv3wv-OV-_qqxotl4Nu7pBzuS9tzY4QyW0bUCkvJKQGo4LgBXSt5jjkvnqWs5cwHZMzUm_gQGO1b5w0l5tkrdskl_mC0]--></g></svg>