<svg xmlns="http://www.w3.org/2000/svg" xmlns:xlink="http://www.w3.org/1999/xlink" contentStyleType="text/css" data-diagram-type="DESCRIPTION" height="1005px" preserveAspectRatio="none" style="width:1549px;height:1005px;background:#FFFFFF;" version="1.1" viewBox="0 0 1549 1005" width="1549px" zoomAndPan="magnify"><?plantuml 1.2026.6?><defs/><g><g class="title" data-source-line="1"><text fill="#000000" font-family="'Segoe UI'" font-size="14" font-weight="700" lengthAdjust="spacing" textLength="182.8135" x="679.5933" y="22.9951">&#1040;&#1088;&#1093;&#1080;&#1090;&#1077;&#1082;&#1090;&#1091;&#1088;&#1072; reporting</text></g><!--cluster Production--><g class="cluster" data-qualified-name="Production" data-source-line="21" id="ent0003"><path d="M10,271.0569 L87.9932,271.0569 A6,6 0 0 1 91.9932,275.0569 L98.9932,292.1897 L802,292.1897 A4,4 0 0 1 806,296.1897 L806,852.4269 A4,4 0 0 1 802,856.4269 L10,856.4269 A4,4 0 0 1 6,852.4269 L6,275.0569 A4,4 0 0 1 10,271.0569" fill="#F4F5F7" style="stroke:#DFE1E6;stroke-width:1.5;"/><line style="stroke:#DFE1E6;stroke-width:1.5;" x1="6" x2="98.9932" y1="292.1897" y2="292.1897"/><text fill="#172B4D" font-family="'Segoe UI'" font-size="13" font-weight="700" lengthAdjust="spacing" textLength="79.9932" x="10" y="285.1238">Production</text></g><!--cluster nginx--><g class="cluster" data-qualified-name="Production.nginx" data-source-line="22" id="ent0004"><polygon fill="#FFFFFF" points="327,331.0569,337,321.0569,596,321.0569,596,417.1969,586,427.1969,327,427.1969,327,331.0569" style="stroke:#DFE1E6;stroke-width:1;stroke-linejoin:miter;stroke-miterlimit:10;"/><line style="stroke:#DFE1E6;stroke-width:1;" x1="586" x2="596" y1="331.0569" y2="321.0569"/><line style="stroke:#DFE1E6;stroke-width:1;" x1="327" x2="586" y1="331.0569" y2="331.0569"/><line style="stroke:#DFE1E6;stroke-width:1;" x1="586" x2="586" y1="331.0569" y2="427.1969"/><text fill="#000000" font-family="'Segoe UI'" font-size="13" font-weight="700" lengthAdjust="spacing" textLength="87.1152" x="413.9424" y="346.1238">nginx + TLS</text></g><!--cluster Docker Compose--><g class="cluster" data-qualified-name="Production.Docker Compose" data-source-line="27" id="ent0007"><path d="M34,468.1969 L154.6367,468.1969 A6,6 0 0 1 158.6367,472.1969 L165.6367,489.3297 L765,489.3297 A4,4 0 0 1 769,493.3297 L769,828.4269 A4,4 0 0 1 765,832.4269 L34,832.4269 A4,4 0 0 1 30,828.4269 L30,472.1969 A4,4 0 0 1 34,468.1969" fill="#E3FCEF" style="stroke:#DFE1E6;stroke-width:1.5;"/><line style="stroke:#DFE1E6;stroke-width:1.5;" x1="30" x2="165.6367" y1="489.3297" y2="489.3297"/><text fill="#172B4D" font-family="'Segoe UI'" font-size="13" font-weight="700" lengthAdjust="spacing" textLength="122.6367" x="34" y="482.2638">Docker Compose</text></g><!--cluster ??????? ???????--><g class="cluster" data-qualified-name="....... ......." data-source-line="39" id="ent0016"><path d="M1263,905.4269 L1397.2017,905.4269 A6,6 0 0 1 1401.2017,909.4269 L1408.2017,926.5597 L1530,926.5597 A4,4 0 0 1 1534,930.5597 L1534,986.5569 A4,4 0 0 1 1530,990.5569 L1263,990.5569 A4,4 0 0 1 1259,986.5569 L1259,909.4269 A4,4 0 0 1 1263,905.4269" fill="#EAE6FF" style="stroke:#DFE1E6;stroke-width:1.5;"/><line style="stroke:#DFE1E6;stroke-width:1.5;" x1="1259" x2="1408.2017" y1="926.5597" y2="926.5597"/><text fill="#172B4D" font-family="'Segoe UI'" font-size="13" font-weight="700" lengthAdjust="spacing" textLength="136.2017" x="1263" y="919.4938">&#1042;&#1085;&#1077;&#1096;&#1085;&#1080;&#1077; &#1089;&#1080;&#1089;&#1090;&#1077;&#1084;&#1099;</text></g><!--cluster ??????--><g class="cluster" data-qualified-name="......" data-source-line="44" id="ent0019"><path d="M834,619.4569 L891.4712,619.4569 A6,6 0 0 1 895.4712,623.4569 L902.4712,640.5897 L1513,640.5897 A4,4 0 0 1 1517,644.5897 L1517,700.5969 A4,4 0 0 1 1513,704.5969 L834,704.5969 A4,4 0 0 1 830,700.5969 L830,623.4569 A4,4 0 0 1 834,619.4569" fill="#FFFAE6" style="stroke:#DFE1E6;stroke-width:1.5;"/><line style="stroke:#DFE1E6;stroke-width:1.5;" x1="830" x2="902.4712" y1="640.5897" y2="640.5897"/><text fill="#172B4D" font-family="'Segoe UI'" font-size="13" font-weight="700" lengthAdjust="spacing" textLength="59.4712" x="834" y="633.5238">&#1052;&#1086;&#1076;&#1091;&#1083;&#1080;</text></g><!--entity fe_ssl--><g class="entity" data-qualified-name="Production.nginx.fe_ssl" data-source-line="23" id="ent0005"><rect fill="#DEEBFF" height="35.1328" rx="4" ry="4" style="stroke:#181818;stroke-width:0.5;" width="79.23" x="351.39" y="368.0569"/><text fill="#000000" font-family="'Segoe UI'" font-size="13" lengthAdjust="spacing" textLength="59.23" x="361.39" y="390.1238">UI HTTPS</text></g><!--entity api_ssl--><g class="entity" data-qualified-name="Production.nginx.api_ssl" data-source-line="24" id="ent0006"><rect fill="#DEEBFF" height="35.1328" rx="4" ry="4" style="stroke:#181818;stroke-width:0.5;" width="86.4473" x="465.78" y="368.0569"/><text fill="#000000" font-family="'Segoe UI'" font-size="13" lengthAdjust="spacing" textLength="66.4473" x="475.78" y="390.1238">API HTTPS</text></g><!--entity fe--><g class="entity" data-qualified-name="Production.Docker Compose.fe" data-source-line="28" id="ent0008"><rect fill="#FFFFFF" height="50.2656" rx="4" ry="4" style="stroke:#181818;stroke-width:0.5;" width="98.8379" x="162.58" y="503.6269"/><text fill="#000000" font-family="'Segoe UI'" font-size="13" lengthAdjust="spacing" textLength="58.6016" x="182.6982" y="525.6938">Frontend</text><text fill="#000000" font-family="'Segoe UI'" font-size="13" lengthAdjust="spacing" textLength="78.8379" x="172.58" y="540.8266">React :5173</text></g><!--entity api--><g class="entity" data-qualified-name="Production.Docker Compose.api" data-source-line="29" id="ent0009"><rect fill="#FFFFFF" height="50.2656" rx="4" ry="4" style="stroke:#181818;stroke-width:0.5;" width="109.4766" x="643.26" y="645.8969"/><text fill="#000000" font-family="'Segoe UI'" font-size="13" lengthAdjust="spacing" textLength="56.0498" x="669.9734" y="667.9638">Backend</text><text fill="#000000" font-family="'Segoe UI'" font-size="13" lengthAdjust="spacing" textLength="89.4766" x="653.26" y="683.0966">FastAPI :8000</text></g><!--entity pg--><g class="entity" data-qualified-name="Production.Docker Compose.pg" data-source-line="30" id="ent0010"><path d="M658.51,767.1569 C658.51,757.1569 706.0024,757.1569 706.0024,757.1569 C706.0024,757.1569 753.4949,757.1569 753.4949,767.1569 L753.4949,806.4225 C753.4949,816.4225 706.0024,816.4225 706.0024,816.4225 C706.0024,816.4225 658.51,816.4225 658.51,806.4225 L658.51,767.1569" fill="#FFFFFF" style="stroke:#181818;stroke-width:0.5;"/><path d="M658.51,767.1569 C658.51,777.1569 706.0024,777.1569 706.0024,777.1569 C706.0024,777.1569 753.4949,777.1569 753.4949,767.1569" fill="none" style="stroke:#181818;stroke-width:0.5;"/><text fill="#000000" font-family="'Segoe UI'" font-size="13" lengthAdjust="spacing" textLength="74.9849" x="668.51" y="793.2238">PostgreSQL</text><text fill="#000000" font-family="'Segoe UI'" font-size="13" lengthAdjust="spacing" textLength="37.4639" x="687.2705" y="808.3566">:5432</text></g><!--entity minio--><g class="entity" data-qualified-name="Production.Docker Compose.minio" data-source-line="31" id="ent0011"><rect fill="#FFFFFF" height="50.2656" rx="4" ry="4" style="stroke:#181818;stroke-width:0.5;" width="105.8647" x="274.07" y="645.8969"/><text fill="#000000" font-family="'Segoe UI'" font-size="13" lengthAdjust="spacing" textLength="37.1338" x="308.4355" y="667.9638">MinIO</text><text fill="#000000" font-family="'Segoe UI'" font-size="13" lengthAdjust="spacing" textLength="85.8647" x="284.07" y="683.0966">photos :9000</text></g><!--entity minioinit--><g class="entity" data-qualified-name="Production.Docker Compose.minioinit" data-source-line="32" id="ent0012"><rect fill="#FFFFFF" height="35.1328" rx="4" ry="4" style="stroke:#181818;stroke-width:0.5;" width="81.3311" x="46.33" y="511.1969"/><text fill="#000000" font-family="'Segoe UI'" font-size="13" lengthAdjust="spacing" textLength="61.3311" x="56.33" y="533.2638">minio-init</text></g><!--entity yjfs--><g class="entity" data-qualified-name="Production.Docker Compose.yjfs" data-source-line="33" id="ent0013"><path d="M470.79,502.1969 L508.79,502.1969 A6,6 0 0 1 512.79,506.1969 L519.79,523.1969 L609.206,523.1969 A4,4 0 0 1 613.206,527.1969 L613.206,551.3297 A4,4 0 0 1 609.206,555.3297 L470.79,555.3297 A4,4 0 0 1 466.79,551.3297 L466.79,506.1969 A4,4 0 0 1 470.79,502.1969" fill="#FFFFFF" style="stroke:#181818;stroke-width:0.5;"/><line style="stroke:#181818;stroke-width:0.5;" x1="466.79" x2="519.79" y1="523.1969" y2="523.1969"/><text fill="#000000" font-family="'Segoe UI'" font-size="13" lengthAdjust="spacing" textLength="116.416" x="476.79" y="542.2638">youjail workspace</text></g><!--entity uploads--><g class="entity" data-qualified-name="Production.Docker Compose.uploads" data-source-line="34" id="ent0014"><path d="M300.08,502.1969 L338.08,502.1969 A6,6 0 0 1 342.08,506.1969 L349.08,523.1969 L427.9208,523.1969 A4,4 0 0 1 431.9208,527.1969 L431.9208,551.3297 A4,4 0 0 1 427.9208,555.3297 L300.08,555.3297 A4,4 0 0 1 296.08,551.3297 L296.08,506.1969 A4,4 0 0 1 300.08,502.1969" fill="#FFFFFF" style="stroke:#181818;stroke-width:0.5;"/><line style="stroke:#181818;stroke-width:0.5;" x1="296.08" x2="349.08" y1="523.1969" y2="523.1969"/><text fill="#000000" font-family="'Segoe UI'" font-size="13" lengthAdjust="spacing" textLength="105.8408" x="306.08" y="542.2638">uploads fallback</text></g><!--entity pptx--><g class="entity" data-qualified-name="Production.Docker Compose.pptx" data-source-line="35" id="ent0015"><path d="M652.57,502.1969 L690.57,502.1969 A6,6 0 0 1 694.57,506.1969 L701.57,523.1969 L749.4216,523.1969 A4,4 0 0 1 753.4216,527.1969 L753.4216,551.3297 A4,4 0 0 1 749.4216,555.3297 L652.57,555.3297 A4,4 0 0 1 648.57,551.3297 L648.57,506.1969 A4,4 0 0 1 652.57,502.1969" fill="#FFFFFF" style="stroke:#181818;stroke-width:0.5;"/><line style="stroke:#181818;stroke-width:0.5;" x1="648.57" x2="701.57" y1="523.1969" y2="523.1969"/><text fill="#000000" font-family="'Segoe UI'" font-size="13" lengthAdjust="spacing" textLength="74.8516" x="658.57" y="542.2638">Status.pptx</text></g><!--entity tfs--><g class="entity" data-qualified-name="....... ........tfs" data-source-line="40" id="ent0017"><rect fill="#FFFFFF" height="35.1328" rx="4" ry="4" style="stroke:#181818;stroke-width:0.5;" width="148.7051" x="1369.65" y="939.4269"/><text fill="#000000" font-family="'Segoe UI'" font-size="13" lengthAdjust="spacing" textLength="128.7051" x="1379.65" y="961.4938">Azure DevOps / TFS</text></g><!--entity finebi--><g class="entity" data-qualified-name="....... ........finebi" data-source-line="41" id="ent0018"><rect fill="#FFFFFF" height="35.1328" rx="4" ry="4" style="stroke:#181818;stroke-width:0.5;" width="60.0791" x="1274.96" y="939.4269"/><text fill="#000000" font-family="'Segoe UI'" font-size="13" lengthAdjust="spacing" textLength="40.0791" x="1284.96" y="961.4938">FineBI</text></g><!--entity auth--><g class="entity" data-qualified-name=".......auth" data-source-line="45" id="ent0020"><rect fill="#FFFFFF" height="35.1328" rx="4" ry="4" style="stroke:#181818;stroke-width:0.5;" width="50.4688" x="845.77" y="653.4569"/><text fill="#000000" font-family="'Segoe UI'" font-size="13" lengthAdjust="spacing" textLength="30.4688" x="855.77" y="675.5238">Auth</text></g><!--entity sync--><g class="entity" data-qualified-name=".......sync" data-source-line="46" id="ent0021"><rect fill="#FFFFFF" height="35.1328" rx="4" ry="4" style="stroke:#181818;stroke-width:0.5;" width="79.1348" x="1421.43" y="653.4569"/><text fill="#000000" font-family="'Segoe UI'" font-size="13" lengthAdjust="spacing" textLength="59.1348" x="1431.43" y="675.5238">TFS Sync</text></g><!--entity org--><g class="entity" data-qualified-name=".......org" data-source-line="47" id="ent0022"><rect fill="#FFFFFF" height="35.1328" rx="4" ry="4" style="stroke:#181818;stroke-width:0.5;" width="107.0454" x="931.48" y="653.4569"/><text fill="#000000" font-family="'Segoe UI'" font-size="13" lengthAdjust="spacing" textLength="87.0454" x="941.48" y="675.5238">Org / Staffing</text></g><!--entity yj--><g class="entity" data-qualified-name=".......yj" data-source-line="48" id="ent0023"><rect fill="#FFFFFF" height="35.1328" rx="4" ry="4" style="stroke:#181818;stroke-width:0.5;" width="63.1577" x="1073.42" y="653.4569"/><text fill="#000000" font-family="'Segoe UI'" font-size="13" lengthAdjust="spacing" textLength="43.1577" x="1083.42" y="675.5238">YouJail</text></g><!--entity b2b--><g class="entity" data-qualified-name=".......b2b" data-source-line="49" id="ent0024"><rect fill="#FFFFFF" height="35.1328" rx="4" ry="4" style="stroke:#181818;stroke-width:0.5;" width="97.7905" x="1289.1" y="653.4569"/><text fill="#000000" font-family="'Segoe UI'" font-size="13" lengthAdjust="spacing" textLength="77.7905" x="1299.1" y="675.5238">B2B + PPTX</text></g><!--entity roadmap--><g class="entity" data-qualified-name=".......roadmap" data-source-line="50" id="ent0025"><rect fill="#FFFFFF" height="35.1328" rx="4" ry="4" style="stroke:#181818;stroke-width:0.5;" width="82.0864" x="1171.96" y="653.4569"/><text fill="#000000" font-family="'Segoe UI'" font-size="13" lengthAdjust="spacing" textLength="62.0864" x="1181.96" y="675.5238">Roadmap</text></g><!--entity user--><g class="entity" data-qualified-name="user" data-source-line="17" id="ent0001"><ellipse cx="587.9977" cy="51.2969" fill="#DEEBFF" rx="8" ry="8" style="stroke:#181818;stroke-width:0.5;"/><path d="M587.9977,59.2969 L587.9977,86.2969 M574.9977,67.2969 L600.9977,67.2969 M587.9977,86.2969 L574.9977,101.2969 M587.9977,86.2969 L600.9977,101.2969" fill="none" style="stroke:#181818;stroke-width:0.5;"/><text fill="#000000" font-family="'Segoe UI'" font-size="13" lengthAdjust="spacing" textLength="95.7354" x="540.13" y="114.8638">&#1055;&#1086;&#1083;&#1100;&#1079;&#1086;&#1074;&#1072;&#1090;&#1077;&#1083;&#1100;</text></g><!--entity inet--><g class="entity" data-qualified-name="inet" data-source-line="19" id="ent0002"><path d="M555.3236,186.9698 C558.3725,181.1168 564.0621,180.9729 567.8982,186.0654 C570.442,181.3075 575.0064,180.8964 578.2955,185.2111 C581.1987,180.0496 585.7151,179.1284 589.9068,183.6691 C593.7182,179.9237 596.8144,179.4987 599.2221,185.0723 C604.0635,179.7057 608.2958,180.0694 610.9848,187.1125 C615.1105,182.2154 618.8572,181.6802 622.1821,187.9178 C630.9409,187.7056 635.5295,194.5156 630.5039,202.2867 C635.6547,211.4329 632.1112,217.0234 621.798,217.0515 C619.8799,222.5185 615.8967,223.0502 611.9492,219.1956 C610.9456,225.4499 605.6416,228.2174 600.4391,223.6697 C598.6207,229.2602 594.5389,230.8091 590.2015,226.1975 C585.9648,230.3882 581.61,229.809 579.0697,224.2589 C573.6364,228.0829 569.5505,227.2336 567.9084,220.3186 C562.3929,224.795 558.5925,223.4434 557.0464,216.5323 C548.9399,215.2725 546.2766,209.8577 551.9649,203.3003 C544.7034,196.2041 546.9672,190.8538 555.3236,186.9698" fill="#F4F5F7" style="stroke:#181818;stroke-width:0.5;"/><text fill="#000000" font-family="'Segoe UI'" font-size="13" lengthAdjust="spacing" textLength="51.8477" x="562.08" y="205.9938">Internet</text></g><g class="entity" data-qualified-name="GMN51" data-source-line="81" id="ent0052"><path d="M824.53,505.0569 L824.53,552.4553 A4,4 0 0 0 828.53,556.4553 L1037.4695,556.4553 A4,4 0 0 0 1041.4695,552.4553 L1041.4695,511.0569 L1031.4695,501.0569 L828.53,501.0569 A4,4 0 0 0 824.53,505.0569" fill="#FFFAE6" style="stroke:#FFC400;stroke-width:0.5;"/><path d="M1031.4695,501.0569 L1031.4695,509.0569 A2,2 0 0 0 1033.4695,511.0569 L1041.4695,511.0569 L1031.4695,501.0569" fill="#FFFAE6" style="stroke:#FFC400;stroke-width:1;"/><text fill="#000000" font-family="'Segoe UI'" font-size="13" lengthAdjust="spacing" textLength="190.3979" x="833.3008" y="518.1238">&#1042;&#1082;&#1083;&#1072;&#1076;&#1082;&#1080;: &#1047;&#1053;&#1048; &#183; B2B &#183; &#1055;&#1083;&#1072;&#1085;&#1099;</text><text fill="#000000" font-family="'Segoe UI'" font-size="13" lengthAdjust="spacing" textLength="195.9395" x="830.53" y="533.2566">&#1044;&#1086;&#1089;&#1082;&#1072; &#183; Staffing &#183; &#1044;&#1080;&#1072;&#1075;&#1088;&#1072;&#1084;&#1084;&#1099;</text><text fill="#000000" font-family="'Segoe UI'" font-size="13" lengthAdjust="spacing" textLength="75.2642" x="890.8676" y="548.3894">+ &#1087;&#1088;&#1086;&#1092;&#1080;&#1083;&#1100;</text></g><g class="entity" data-qualified-name="GMN54" data-source-line="87" id="ent0055"><path d="M1212.23,770.6569 L1212.23,802.9225 A4,4 0 0 0 1216.23,806.9225 L1403.7652,806.9225 A4,4 0 0 0 1407.7652,802.9225 L1407.7652,776.6569 L1397.7652,766.6569 L1318.81,766.6569 L1333.87,688.8169 L1310.81,766.6569 L1216.23,766.6569 A4,4 0 0 0 1212.23,770.6569" fill="#FFFAE6" style="stroke:#FFC400;stroke-width:0.5;"/><path d="M1397.7652,766.6569 L1397.7652,774.6569 A2,2 0 0 0 1399.7652,776.6569 L1407.7652,776.6569 L1397.7652,766.6569" fill="#FFFAE6" style="stroke:#FFC400;stroke-width:0.5;"/><text fill="#000000" font-family="'Segoe UI'" font-size="13" lengthAdjust="spacing" textLength="174.5352" x="1218.23" y="783.7238">&#1044;&#1072;&#1085;&#1085;&#1099;&#1077; B2B &#1074; PostgreSQL</text><text fill="#000000" font-family="'Segoe UI'" font-size="13" lengthAdjust="spacing" textLength="131.0029" x="1239.9961" y="798.8566">PPTX &#1080;&#1079; Status.pptx</text></g><!--link user to inet--><g class="link" data-entity-1="ent0001" data-entity-2="ent0002" data-link-type="dependency" data-source-line="53" id="lnk26"><path d="M588,118.4069 C588,138.2069 588,156.9169 588,173.7469" fill="none" id="user-to-inet" style="stroke:#42526E;stroke-width:1.2;"/><polygon fill="#42526E" points="588,178.7469,592,169.7469,588,173.7469,584,169.7469,588,178.7469" style="stroke:#42526E;stroke-width:1.2;stroke-linejoin:miter;stroke-miterlimit:10;"/></g><!--link inet to nginx--><g class="link" data-entity-1="ent0002" data-entity-2="ent0004" data-link-type="dependency" data-source-line="54" id="lnk27"><path d="M588,224.4669 C588,236.3869 588,252.1394 588,269.1163 C588,277.6047 588,286.3992 588,295.1738 C588,299.5611 588,303.9435 588,308.28 C588,310.4483 588,312.6052 588,314.7455 C588,315.8157 588,316.8817 588,317.943 C588,318.4736 588,319.0031 588,319.5313 C588,319.7953 588,315.0591 588,315.3226" fill="none" id="inet-to-nginx" style="stroke:#42526E;stroke-width:1.2;"/><polygon fill="#42526E" points="588,320.3226,592,311.3226,588,315.3226,584,311.3226,588,320.3226" style="stroke:#42526E;stroke-width:1.2;stroke-linejoin:miter;stroke-miterlimit:10;"/></g><!--link fe_ssl to fe--><g class="link" data-entity-1="ent0005" data-entity-2="ent0008" data-link-type="dependency" data-source-line="55" id="lnk28"><path d="M361.78,403.5069 C338.47,417.5069 305.48,438.5469 279,460.1969 C262.89,473.3669 249.8182,486.2977 237.2382,499.7277" fill="none" id="fe_ssl-to-fe" style="stroke:#42526E;stroke-width:1.2;"/><polygon fill="#42526E" points="233.82,503.3769,242.892,499.543,237.2382,499.7277,237.0534,494.0739,233.82,503.3769" style="stroke:#42526E;stroke-width:1.2;stroke-linejoin:miter;stroke-miterlimit:10;"/></g><!--link api_ssl to api--><g class="link" data-entity-1="ent0006" data-entity-2="ent0009" data-link-type="dependency" data-source-line="56" id="lnk29"><path d="M518.08,403.6969 C526.14,416.9469 539.22,434.4969 556,443.1969 C598.55,465.2469 738.47,424.9969 771,460.1969 C820.47,513.7369 760.3553,598.7832 723.7953,641.6332" fill="none" id="api_ssl-to-api" style="stroke:#42526E;stroke-width:1.2;"/><polygon fill="#42526E" points="720.55,645.4369,729.4345,641.1865,723.7953,641.6332,723.3486,635.994,720.55,645.4369" style="stroke:#42526E;stroke-width:1.2;stroke-linejoin:miter;stroke-miterlimit:10;"/></g><!--link fe to api--><g class="link" data-entity-1="ent0008" data-entity-2="ent0009" data-link-type="dependency" data-source-line="57" id="lnk30"><path d="M261.89,550.3669 C267.63,552.5169 273.42,554.5969 279,556.4569 C407.51,599.3269 557.266,636.8284 637.966,656.0484" fill="none" id="fe-to-api" style="stroke:#42526E;stroke-width:1.2;"/><polygon fill="#42526E" points="642.83,657.2069,635.0016,651.2305,637.966,656.0484,633.1481,659.0129,642.83,657.2069" style="stroke:#42526E;stroke-width:1.2;stroke-linejoin:miter;stroke-miterlimit:10;"/><text fill="#000000" font-family="'Segoe UI'" font-size="13" lengthAdjust="spacing" textLength="94.2056" x="428.42" y="599.5238">REST / session</text></g><!--link api to auth--><g class="link" data-entity-1="ent0009" data-entity-2="ent0020" data-link-type="dependency" data-source-line="59" id="lnk31"><path d="M753.08,671.0269 C783.94,671.0269 809.8,671.0269 840.66,671.0269" fill="none" id="api-to-auth" style="stroke:#42526E;stroke-width:1.2;"/><polygon fill="#42526E" points="845.66,671.0269,836.66,667.0269,840.66,671.0269,836.66,675.0269,845.66,671.0269" style="stroke:#42526E;stroke-width:1.2;stroke-linejoin:miter;stroke-miterlimit:10;"/></g><!--link api to sync--><g class="link" data-entity-1="ent0009" data-entity-2="ent0021" data-link-type="dependency" data-source-line="60" id="lnk32"><path d="M730.15,645.4869 C758.98,624.3169 803.42,595.8569 847.5,583.9569 C905.32,568.3469 1332.1,558.9069 1386.5,583.9569 C1417.4,598.1869 1437.8198,627.8928 1449.5898,648.9428" fill="none" id="api-to-sync" style="stroke:#42526E;stroke-width:1.2;"/><polygon fill="#42526E" points="1452.03,653.3069,1451.129,643.4993,1449.5898,648.9428,1444.1464,647.4036,1452.03,653.3069" style="stroke:#42526E;stroke-width:1.2;stroke-linejoin:miter;stroke-miterlimit:10;"/></g><!--link api to org--><g class="link" data-entity-1="ent0009" data-entity-2="ent0022" data-link-type="dependency" data-source-line="61" id="lnk33"><path d="M730.15,645.4869 C758.98,624.3169 803.42,595.8569 847.5,583.9569 C868.53,578.2869 876.35,575.7069 896.5,583.9569 C930.61,597.9269 955.7668,627.9848 970.6168,649.1348" fill="none" id="api-to-org" style="stroke:#42526E;stroke-width:1.2;"/><polygon fill="#42526E" points="973.49,653.2269,971.592,643.5626,970.6168,649.1348,965.0447,648.1597,973.49,653.2269" style="stroke:#42526E;stroke-width:1.2;stroke-linejoin:miter;stroke-miterlimit:10;"/></g><!--link api to yj--><g class="link" data-entity-1="ent0009" data-entity-2="ent0023" data-link-type="dependency" data-source-line="62" id="lnk34"><path d="M730.15,645.4869 C758.98,624.3169 803.42,595.8569 847.5,583.9569 C929.45,561.8369 962.41,546.3269 1038.5,583.9569 C1067.48,598.2969 1085.145,627.4751 1095.185,648.4951" fill="none" id="api-to-yj" style="stroke:#42526E;stroke-width:1.2;"/><polygon fill="#42526E" points="1097.34,653.0069,1097.0704,643.1617,1095.185,648.4951,1089.8516,646.6097,1097.34,653.0069" style="stroke:#42526E;stroke-width:1.2;stroke-linejoin:miter;stroke-miterlimit:10;"/></g><!--link api to b2b--><g class="link" data-entity-1="ent0009" data-entity-2="ent0024" data-link-type="dependency" data-source-line="63" id="lnk35"><path d="M730.15,645.4869 C758.98,624.3169 803.42,595.8569 847.5,583.9569 C934.82,560.3869 1171.31,548.4769 1254.5,583.9569 C1287.44,598.0069 1310.8997,627.9482 1324.6597,649.0582" fill="none" id="api-to-b2b" style="stroke:#42526E;stroke-width:1.2;"/><polygon fill="#42526E" points="1327.39,653.2469,1325.8264,643.5229,1324.6597,649.0582,1319.1245,647.8914,1327.39,653.2469" style="stroke:#42526E;stroke-width:1.2;stroke-linejoin:miter;stroke-miterlimit:10;"/></g><!--link api to roadmap--><g class="link" data-entity-1="ent0009" data-entity-2="ent0025" data-link-type="dependency" data-source-line="64" id="lnk36"><path d="M730.15,645.4869 C758.98,624.3169 803.42,595.8569 847.5,583.9569 C909.5,567.2169 1077.99,557.4769 1136.5,583.9569 C1167.85,598.1469 1188.9415,627.9017 1201.1615,648.9717" fill="none" id="api-to-roadmap" style="stroke:#42526E;stroke-width:1.2;"/><polygon fill="#42526E" points="1203.67,653.2969,1202.6149,643.5047,1201.1615,648.9717,1195.6945,647.5183,1203.67,653.2969" style="stroke:#42526E;stroke-width:1.2;stroke-linejoin:miter;stroke-miterlimit:10;"/></g><!--link api to pg--><g class="link" data-entity-1="ent0009" data-entity-2="ent0010" data-link-type="dependency" data-source-line="65" id="lnk37"><path d="M699.72,696.4269 C700.96,714.1869 702.3079,733.3093 703.6279,752.0093" fill="none" id="api-to-pg" style="stroke:#42526E;stroke-width:1.2;"/><polygon fill="#42526E" points="703.98,756.9969,707.3364,747.7376,703.6279,752.0093,699.3562,748.3009,703.98,756.9969" style="stroke:#42526E;stroke-width:1.2;stroke-linejoin:miter;stroke-miterlimit:10;"/></g><!--link auth to pg--><g class="link" data-entity-1="ent0020" data-entity-2="ent0010" data-link-type="dependency" data-source-line="66" id="lnk38"><path d="M846.3,689.0569 C820.41,706.9069 783.3663,732.4486 752.3163,753.8586" fill="none" id="auth-to-pg" style="stroke:#42526E;stroke-width:1.2;"/><polygon fill="#42526E" points="748.2,756.6969,757.88,754.8809,752.3163,753.8586,753.3387,748.2949,748.2,756.6969" style="stroke:#42526E;stroke-width:1.2;stroke-linejoin:miter;stroke-miterlimit:10;"/></g><!--link sync to tfs--><g class="link" data-entity-1="ent0021" data-entity-2="ent0017" data-link-type="dependency" data-source-line="67" id="lnk39"><path d="M1459.99,688.9369 C1456.96,739.4469 1448.3181,883.7858 1445.3081,934.1758" fill="none" id="sync-to-tfs" style="stroke:#42526E;stroke-width:1.2;"/><polygon fill="#42526E" points="1445.01,939.1669,1449.5395,930.4214,1445.3081,934.1758,1441.5538,929.9444,1445.01,939.1669" style="stroke:#42526E;stroke-width:1.2;stroke-linejoin:miter;stroke-miterlimit:10;"/></g><!--link sync to pg--><g class="link" data-entity-1="ent0021" data-entity-2="ent0010" data-link-type="dependency" data-source-line="68" id="lnk40"><path d="M1442.4,689.0069 C1431.9,697.5769 1418.09,707.2669 1404,712.5969 C1284.33,757.8369 896.2955,777.8949 758.9155,783.7249" fill="none" id="sync-to-pg" style="stroke:#42526E;stroke-width:1.2;"/><polygon fill="#42526E" points="753.92,783.9369,763.0815,787.5517,758.9155,783.7249,762.7423,779.5589,753.92,783.9369" style="stroke:#42526E;stroke-width:1.2;stroke-linejoin:miter;stroke-miterlimit:10;"/></g><!--link org to pg--><g class="link" data-entity-1="ent0022" data-entity-2="ent0010" data-link-type="dependency" data-source-line="69" id="lnk41"><path d="M957.96,689.0069 C944.96,696.7769 928.98,705.7469 914,712.5969 C860.56,737.0169 801.1956,756.9859 758.4056,770.2559" fill="none" id="org-to-pg" style="stroke:#42526E;stroke-width:1.2;"/><polygon fill="#42526E" points="753.63,771.7369,763.4109,772.8916,758.4056,770.2559,761.0413,765.2506,753.63,771.7369" style="stroke:#42526E;stroke-width:1.2;stroke-linejoin:miter;stroke-miterlimit:10;"/></g><!--link org to minio--><g class="link" data-entity-1="ent0022" data-entity-2="ent0011" data-link-type="dependency" data-source-line="70" id="lnk42"><path d="M973.49,653.2269 C958.64,632.0769 930.61,597.9269 896.5,583.9569 C792.44,541.3569 754.93,568.9069 643.5,583.9569 C548.9,596.7369 447.3251,628.4318 385.1351,649.9518" fill="none" id="org-to-minio" style="stroke:#42526E;stroke-width:1.2;"/><polygon fill="#42526E" points="380.41,651.5869,390.2232,652.4239,385.1351,649.9518,387.6071,644.8637,380.41,651.5869" style="stroke:#42526E;stroke-width:1.2;stroke-linejoin:miter;stroke-miterlimit:10;"/></g><!--link org to uploads--><g class="link" data-entity-1="ent0022" data-entity-2="ent0014" data-link-type="dependency" data-source-line="71" id="lnk43"><path d="M969.9,653.0569 C956.63,639.3669 936.04,620.8769 914,611.4569 C722.62,529.7069 652.49,600.0569 449,556.4569 C443.56,555.2969 442.7913,555.2147 437.2013,553.7247" fill="none" id="org-to-uploads" style="stroke:#42526E;stroke-width:1.2;"/><polygon fill="#42526E" points="432.37,552.4369,440.0362,558.6199,437.2013,553.7247,442.0966,550.8898,432.37,552.4369" style="stroke:#42526E;stroke-width:1.2;stroke-linejoin:miter;stroke-miterlimit:10;"/></g><!--link yj to pg--><g class="link" data-entity-1="ent0023" data-entity-2="ent0010" data-link-type="dependency" data-source-line="72" id="lnk44"><path d="M1088.76,688.9269 C1079.84,697.2569 1068.14,706.7469 1056,712.5969 C955.47,761.0069 828.5443,777.1305 758.8843,782.6705" fill="none" id="yj-to-pg" style="stroke:#42526E;stroke-width:1.2;"/><polygon fill="#42526E" points="753.9,783.0669,763.1888,786.3408,758.8843,782.6705,762.5546,778.366,753.9,783.0669" style="stroke:#42526E;stroke-width:1.2;stroke-linejoin:miter;stroke-miterlimit:10;"/></g><!--link yj to yjfs--><g class="link" data-entity-1="ent0023" data-entity-2="ent0013" data-link-type="dependency" data-source-line="73" id="lnk45"><path d="M1095.4,653.1269 C1086.84,639.6669 1073.03,621.4669 1056,611.4569 C891.8,514.9569 817.91,593.0869 631,556.4569 C625.18,555.3169 624.0555,555.1604 618.0755,553.6904" fill="none" id="yj-to-yjfs" style="stroke:#42526E;stroke-width:1.2;"/><polygon fill="#42526E" points="613.22,552.4969,621.005,558.5297,618.0755,553.6904,622.9147,550.7609,613.22,552.4969" style="stroke:#42526E;stroke-width:1.2;stroke-linejoin:miter;stroke-miterlimit:10;"/></g><!--link b2b to pg--><g class="link" data-entity-1="ent0024" data-entity-2="ent0010" data-link-type="dependency" data-source-line="74" id="lnk46"><path d="M1315.7,689.0269 C1303.44,697.4969 1287.6,707.0769 1272,712.5969 C1088.44,777.4969 858.2,785.8668 758.77,786.2668" fill="none" id="b2b-to-pg" style="stroke:#42526E;stroke-width:1.2;"/><polygon fill="#42526E" points="753.77,786.2869,762.786,790.2506,758.77,786.2668,762.7538,782.2507,753.77,786.2869" style="stroke:#42526E;stroke-width:1.2;stroke-linejoin:miter;stroke-miterlimit:10;"/></g><!--link b2b to pptx--><g class="link" data-entity-1="ent0024" data-entity-2="ent0015" data-link-type="dependency" data-source-line="75" id="lnk47"><path d="M1324.21,653.0569 C1312.02,639.3569 1292.97,620.8669 1272,611.4569 C1082.13,526.2669 1011.66,594.1769 807,556.4569 C789.55,553.2469 775.5534,550.0585 758.6634,545.7285" fill="none" id="b2b-to-pptx" style="stroke:#42526E;stroke-width:1.2;"/><polygon fill="#42526E" points="753.82,544.4869,761.5447,550.5966,758.6634,545.7285,763.5314,542.8472,753.82,544.4869" style="stroke:#42526E;stroke-width:1.2;stroke-linejoin:miter;stroke-miterlimit:10;"/></g><!--link roadmap to pg--><g class="link" data-entity-1="ent0025" data-entity-2="ent0010" data-link-type="dependency" data-source-line="76" id="lnk48"><path d="M1192.99,689.0869 C1182.13,697.4569 1168.07,706.9369 1154,712.5969 C1015.98,768.0669 842.9363,781.3336 758.9263,784.5836" fill="none" id="roadmap-to-pg" style="stroke:#42526E;stroke-width:1.2;"/><polygon fill="#42526E" points="753.93,784.7769,763.0779,788.426,758.9263,784.5836,762.7686,780.432,753.93,784.7769" style="stroke:#42526E;stroke-width:1.2;stroke-linejoin:miter;stroke-miterlimit:10;"/></g><!--link minioinit to minio--><g class="link" data-entity-1="ent0012" data-entity-2="ent0011" data-link-type="dependency" data-source-line="77" id="lnk49"><path d="M115.95,546.6769 C158.09,571.3069 232.2533,614.6538 280.7233,642.9838" fill="none" id="minioinit-to-minio" style="stroke:#42526E;stroke-width:1.2;"/><polygon fill="#42526E" points="285.04,645.5069,279.2883,637.512,280.7233,642.9838,275.2514,644.4187,285.04,645.5069" style="stroke:#42526E;stroke-width:1.2;stroke-linejoin:miter;stroke-miterlimit:10;"/></g><!--link pg to finebi--><g class="link" data-entity-1="ent0010" data-entity-2="ent0018" data-link-type="dependency" data-source-line="78" id="lnk50"><path d="M753.75,801.1969 C872.24,834.4769 1172.3562,918.745 1269.7762,946.105" fill="none" id="pg-to-finebi" style="stroke:#42526E;stroke-width:1.2;"/><polygon fill="#42526E" points="1274.59,947.4569,1267.0068,941.1724,1269.7762,946.105,1264.8437,948.8744,1274.59,947.4569" style="stroke:#42526E;stroke-width:1.2;stroke-linejoin:miter;stroke-miterlimit:10;"/><text fill="#000000" font-family="'Segoe UI'" font-size="13" lengthAdjust="spacing" textLength="36.7085" x="1060.15" y="885.4938">views</text></g><!--link fe to GMN51--><g class="link" data-entity-1="ent0008" data-entity-2="ent0052" data-link-type="association" data-source-line="81" id="lnk53"><path d="M228.54,503.4969 C243.45,483.6769 267.48,458.3669 296.5,451.6969 C322.7,445.6669 754.3,445.6669 780.5,451.6969 C820.4,460.8669 861.59,482.5469 891.1,500.5869" fill="none" id="fe-GMN51" style="stroke:#42526E;stroke-width:1.2;stroke-dasharray:7,7;"/></g><?plantuml-src RLNDRjj64BxlKmpKO-1KakKurQ6098keYhHMBGLeOGV5YbnHjAXTOdSPMoaCvAS52gI7eWZG7bhq5OmqHWmdSO4-mVADEhkaACgn3jJCpiVv_MQf8nqpCBzcJxEVp6Nst5oOg-nvzY9xQiv1iaH87V6G43MFU48bNO2QqK2Su25CQQnOnI95oeEUa9n9k5yv3zYKfh7s1DTVqmM3seY5Wi73GUrsq2Xwmg2n_R5np4vr9uv2lc1SWuyF9YieNomImV5qf9TOb6I-fZoCgobsf1GdFH4B2P-qcZlDU_sRnl4iykUSAGMDkysAaGlDkjIVXqMLpeNdUPt-lPie8GCcIqIlLQzN40dweE4cQC_hDpRS523RZ0BIs6rsMtiVGyPsVkkUn6og2Q6-ndTgvczpRTvblvYt-F_QdBlfebu3gY1Lp4RkzxkUHuWVYpI0si1sb3Fj414AM43Bs_5s2IdYGMqeHP3wEXAyjhB23mImz02jF8puATo1yOEHSvBhjb7uSpY0muS3-68y7euUMSIKVQzKNARY09rX5K6Jw0RaZE2Zp6XF-7CifcV7hnXcrT_sUlqocYUnZOm7H_o0OMUWlTFOtIv2hpBBaNQ-3kXHfMqExVlrUdsLmmOse9fEgBBz44g7aes-UN34spkjxQQhEmatNNyLyS7-4KzcGWi5xSzMVXSHZyGcr1rjuKEl4LRRG4r5ZFo1sbAanpIAuKJ8kSAEC1TzUJnLjyBJ91OqK7PrumbMcrEXEBpjXP6cEbLtaqIVvdMXK06UaRCADSnlveEvo7x6vwMvWEmPtYZF7ElUPo_jN71P2XOSTfwaai4UUxoVAFWKnbu-QxsH-A679EmEyc6XE5aFOIFkdqZmDzaByyvSrbPRMOH9zImV80fLpnWGHalkEwD2eMhSbo7cXBLFCMhe849M9thudKY_nBu_ohjTjNIRNUJ_S3Z-rXadpKdLUe2TNj34cMGkLqjoMxcrzRbRFk8sq6fkYqYnAVPWoiXgAwoACbfN8hJXe3yQOmKAxp5SL6B1kHMxK2gswbB1-afvULoAc7uf5_cMUe9lsAuMickYbN66QmKDjdKtH4VgKYi8IB2H1QwGB8-9xM1nN8h8Gh9gNs5RxyawG9BxBwZJXiSHEr64s5iQP1JED8YfxIK0KlSAwNDktk3_PHlCx-OlymVyznRiFF4FBrDh_f2zjEXNvXhPVONVI3IjUE9Whv3wv-OV-_qqxotl4Nu7pBzuS9tzY4QyW0bUCkvJKQGo4LgBXSt5jjkvnqWs5cwHZMzUm_gQGO1b5w0l5tkrdskl_mC0?></g></svg>