<svg xmlns="http://www.w3.org/2000/svg" xmlns:xlink="http://www.w3.org/1999/xlink" contentStyleType="text/css" height="1844px" preserveAspectRatio="none" style="width:793px;height:1844px;background:#FFFFFF;" version="1.1" viewBox="0 0 793 1844" width="793px" zoomAndPan="magnify"><title>Use Case &#8212; reporting</title><defs/><g><text fill="#000000" font-family="Segoe UI" font-size="14" font-weight="bold" lengthAdjust="spacing" textLength="156.3994" x="311.7403" y="23.5352">Use Case &#8212; reporting</text><!--cluster ??????? reporting--><g id="cluster_&#1057;&#1080;&#1089;&#1090;&#1077;&#1084;&#1072; reporting"><rect fill="#FFFFFF" height="1673" rx="4" ry="4" style="stroke:#DFE1E6;stroke-width:1;" width="616.6" x="171.28" y="165.9483"/><text fill="#000000" font-family="Segoe UI" font-size="12" font-weight="bold" lengthAdjust="spacing" textLength="114.1934" x="422.4833" y="179.5498">&#1057;&#1080;&#1089;&#1090;&#1077;&#1084;&#1072; reporting</text></g><!--cluster ???? ? ???????--><g id="cluster_&#1042;&#1093;&#1086;&#1076; &#1080; &#1087;&#1088;&#1086;&#1092;&#1080;&#1083;&#1100;"><rect fill="#FFFFFF" height="172" rx="4" ry="4" style="stroke:#DFE1E6;stroke-width:1;" width="221.26" x="542.62" y="206.9483"/><text fill="#000000" font-family="Segoe UI" font-size="12" font-weight="bold" lengthAdjust="spacing" textLength="103.1836" x="601.6582" y="220.5498">&#1042;&#1093;&#1086;&#1076; &#1080; &#1087;&#1088;&#1086;&#1092;&#1080;&#1083;&#1100;</text></g><!--cluster ???--><g id="cluster_&#1047;&#1053;&#1048;"><rect fill="#FFFFFF" height="297" rx="4" ry="4" style="stroke:#DFE1E6;stroke-width:1;" width="210.91" x="219.49" y="389.9483"/><text fill="#000000" font-family="Segoe UI" font-size="12" font-weight="bold" lengthAdjust="spacing" textLength="25.6523" x="312.1188" y="403.5498">&#1047;&#1053;&#1048;</text></g><!--cluster ?????? ???????? B2B--><g id="cluster_&#1057;&#1090;&#1072;&#1090;&#1091;&#1089; &#1087;&#1088;&#1086;&#1076;&#1091;&#1082;&#1090;&#1072; B2B"><rect fill="#FFFFFF" height="164" rx="4" ry="4" style="stroke:#DFE1E6;stroke-width:1;" width="519.8" x="230.28" y="710.9483"/><text fill="#000000" font-family="Segoe UI" font-size="12" font-weight="bold" lengthAdjust="spacing" textLength="131.1738" x="424.5931" y="724.5498">&#1057;&#1090;&#1072;&#1090;&#1091;&#1089; &#1087;&#1088;&#1086;&#1076;&#1091;&#1082;&#1090;&#1072; B2B</text></g><!--cluster ????? Digital--><g id="cluster_&#1055;&#1083;&#1072;&#1085;&#1099; Digital"><rect fill="#FFFFFF" height="99" rx="4" ry="4" style="stroke:#DFE1E6;stroke-width:1;" width="259.34" x="195.28" y="898.9483"/><text fill="#000000" font-family="Segoe UI" font-size="12" font-weight="bold" lengthAdjust="spacing" textLength="86.8887" x="281.5057" y="912.5498">&#1055;&#1083;&#1072;&#1085;&#1099; Digital</text></g><!--cluster ????? YouJail--><g id="cluster_&#1044;&#1086;&#1089;&#1082;&#1072; YouJail"><rect fill="#FFFFFF" height="168" rx="4" ry="4" style="stroke:#DFE1E6;stroke-width:1;" width="200.19" x="224.85" y="1021.9483"/><text fill="#000000" font-family="Segoe UI" font-size="12" font-weight="bold" lengthAdjust="spacing" textLength="85.6699" x="282.11" y="1035.5498">&#1044;&#1086;&#1089;&#1082;&#1072; YouJail</text></g><!--cluster Staffing--><g id="cluster_Staffing"><rect fill="#FFFFFF" height="360" rx="4" ry="4" style="stroke:#DFE1E6;stroke-width:1;" width="217.18" x="216.36" y="1213.9483"/><text fill="#000000" font-family="Segoe UI" font-size="12" font-weight="bold" lengthAdjust="spacing" textLength="48.4219" x="300.7391" y="1227.5498">Staffing</text></g><!--cluster ?????????--><g id="cluster_&#1044;&#1080;&#1072;&#1075;&#1088;&#1072;&#1084;&#1084;&#1099;"><rect fill="#FFFFFF" height="97" rx="4" ry="4" style="stroke:#DFE1E6;stroke-width:1;" width="245.35" x="202.27" y="268.9483"/><text fill="#000000" font-family="Segoe UI" font-size="12" font-weight="bold" lengthAdjust="spacing" textLength="74.0449" x="287.9225" y="282.5498">&#1044;&#1080;&#1072;&#1075;&#1088;&#1072;&#1084;&#1084;&#1099;</text></g><!--cluster ?????????? BI--><g id="cluster_&#1054;&#1090;&#1095;&#1105;&#1090;&#1085;&#1086;&#1089;&#1090;&#1100; BI"><rect fill="#FFFFFF" height="217" rx="4" ry="4" style="stroke:#DFE1E6;stroke-width:1;" width="178.69" x="235.6" y="1597.9483"/><text fill="#000000" font-family="Segoe UI" font-size="12" font-weight="bold" lengthAdjust="spacing" textLength="86.3906" x="281.7497" y="1611.5498">&#1054;&#1090;&#1095;&#1105;&#1090;&#1085;&#1086;&#1089;&#1090;&#1100; BI</text></g><!--cluster ?????????? TFS--><g id="cluster_&#1048;&#1085;&#1090;&#1077;&#1075;&#1088;&#1072;&#1094;&#1080;&#1103; TFS"><rect fill="#FFFFFF" height="284" rx="4" ry="4" style="stroke:#DFE1E6;stroke-width:1;" width="195.92" x="555.29" y="402.9483"/><text fill="#000000" font-family="Segoe UI" font-size="12" font-weight="bold" lengthAdjust="spacing" textLength="100.8457" x="602.8271" y="416.5498">&#1048;&#1085;&#1090;&#1077;&#1075;&#1088;&#1072;&#1094;&#1080;&#1103; TFS</text></g><g id="elem_UC_AUTH"><ellipse cx="653.2521" cy="341.9467" fill="#FFFFFF" rx="92.7421" ry="20.9484" style="stroke:#0052CC;stroke-width:0.5;"/><text fill="#000000" font-family="Segoe UI" font-size="12" lengthAdjust="spacing" textLength="152.9883" x="576.7579" y="344.4818">&#1042;&#1093;&#1086;&#1076; PAT / email+&#1087;&#1072;&#1088;&#1086;&#1083;&#1100;</text></g><g id="elem_UC_PROFILE"><ellipse cx="653.2511" cy="262.9451" fill="#FFFFFF" rx="94.6311" ry="22.9868" style="stroke:#0052CC;stroke-width:0.5;"/><text fill="#000000" font-family="Segoe UI" font-size="12" lengthAdjust="spacing" textLength="97.9102" x="604.296" y="258.4138">&#1051;&#1080;&#1095;&#1085;&#1099;&#1081; &#1082;&#1072;&#1073;&#1080;&#1085;&#1077;&#1090;</text><text fill="#000000" font-family="Segoe UI" font-size="12" lengthAdjust="spacing" textLength="117.5859" x="594.4581" y="272.5467">&#1092;&#1086;&#1090;&#1086;, &#1086;&#1092;&#1080;&#1089;, &#1087;&#1072;&#1088;&#1086;&#1083;&#1100;</text></g><g id="elem_UC_DASH"><ellipse cx="324.9462" cy="445.9451" fill="#FFFFFF" rx="89.4562" ry="22.9868" style="stroke:#0052CC;stroke-width:0.5;"/><text fill="#000000" font-family="Segoe UI" font-size="12" lengthAdjust="spacing" textLength="84.0234" x="282.9345" y="441.4138">&#1044;&#1072;&#1096;&#1073;&#1086;&#1088;&#1076; &#1047;&#1053;&#1048;</text><text fill="#000000" font-family="Segoe UI" font-size="12" lengthAdjust="spacing" textLength="110.2676" x="269.8124" y="455.5467">&#1084;&#1077;&#1090;&#1088;&#1080;&#1082;&#1080;, &#1092;&#1080;&#1083;&#1100;&#1090;&#1088;&#1099;</text></g><g id="elem_UC_SYNC"><ellipse cx="324.9509" cy="521.9525" fill="#FFFFFF" rx="77.4209" ry="17.8842" style="stroke:#0052CC;stroke-width:0.5;"/><text fill="#000000" font-family="Segoe UI" font-size="12" lengthAdjust="spacing" textLength="118.998" x="265.4519" y="524.4876">&#1057;&#1080;&#1085;&#1093;&#1088;&#1086;&#1085;&#1080;&#1079;&#1072;&#1094;&#1080;&#1103; TFS</text></g><g id="elem_UC_EXPORT"><ellipse cx="324.9494" cy="588.9522" fill="#FFFFFF" rx="59.4194" ry="14.2839" style="stroke:#0052CC;stroke-width:0.5;"/><text fill="#000000" font-family="Segoe UI" font-size="12" lengthAdjust="spacing" textLength="75.9727" x="286.9631" y="591.4873">&#1069;&#1082;&#1089;&#1087;&#1086;&#1088;&#1090; CSV</text></g><g id="elem_UC_BOARD"><ellipse cx="324.9531" cy="654.9449" fill="#FFFFFF" rx="69.8831" ry="16.3766" style="stroke:#0052CC;stroke-width:0.5;"/><text fill="#000000" font-family="Segoe UI" font-size="12" lengthAdjust="spacing" textLength="101.5781" x="274.164" y="657.4801">&#1042;&#1099;&#1073;&#1086;&#1088; &#1076;&#1086;&#1089;&#1082;&#1080; TFS</text></g><g id="elem_UC_B2B"><ellipse cx="653.2459" cy="781.9451" fill="#FFFFFF" rx="80.8259" ry="22.9868" style="stroke:#0052CC;stroke-width:0.5;"/><text fill="#000000" font-family="Segoe UI" font-size="12" lengthAdjust="spacing" textLength="98.0625" x="604.2147" y="777.4138">&#1058;&#1072;&#1073;&#1083;&#1080;&#1094;&#1072; &#1089;&#1090;&#1072;&#1090;&#1091;&#1089;&#1072;</text><text fill="#000000" font-family="Segoe UI" font-size="12" lengthAdjust="spacing" textLength="64.3477" x="621.0721" y="791.5467">&#1087;&#1086; &#1086;&#1092;&#1080;&#1089;&#1072;&#1084;</text></g><g id="elem_UC_NEWS"><ellipse cx="324.9463" cy="760.9495" fill="#FFFFFF" rx="74.0563" ry="17.2113" style="stroke:#0052CC;stroke-width:0.5;"/><text fill="#000000" font-family="Segoe UI" font-size="12" lengthAdjust="spacing" textLength="111.2988" x="269.2969" y="763.4847">&#1053;&#1086;&#1074;&#1086;&#1089;&#1090;&#1080; &#1080; &#1079;&#1072;&#1087;&#1091;&#1089;&#1082;&#1080;</text></g><g id="elem_UC_PPTX"><ellipse cx="324.9473" cy="835.9451" fill="#FFFFFF" rx="78.6673" ry="22.9868" style="stroke:#0052CC;stroke-width:0.5;"/><text fill="#000000" font-family="Segoe UI" font-size="12" lengthAdjust="spacing" textLength="95.0098" x="277.4424" y="831.4138">&#1043;&#1077;&#1085;&#1077;&#1088;&#1072;&#1094;&#1080;&#1103; PPTX</text><text fill="#000000" font-family="Segoe UI" font-size="12" lengthAdjust="spacing" textLength="77.1973" x="286.3487" y="845.5467">&#1087;&#1088;&#1077;&#1079;&#1077;&#1085;&#1090;&#1072;&#1094;&#1080;&#1080;</text></g><g id="elem_UC_ROADMAP"><ellipse cx="324.9514" cy="956.9526" fill="#FFFFFF" rx="113.6714" ry="25.1343" style="stroke:#0052CC;stroke-width:0.5;"/><text fill="#000000" font-family="Segoe UI" font-size="12" lengthAdjust="spacing" textLength="113.6719" x="268.1155" y="952.4213">Roadmap &#1082;&#1086;&#1083;&#1073;&#1072;&#1089;&#1082;&#1080;</text><text fill="#000000" font-family="Segoe UI" font-size="12" lengthAdjust="spacing" textLength="158.3496" x="245.7766" y="966.5541">&#1087;&#1088;&#1080;&#1086;&#1088;&#1080;&#1090;&#1077;&#1090; / &#1082;&#1086;&#1084;&#1084;&#1077;&#1085;&#1090;&#1072;&#1088;&#1080;&#1081;</text></g><g id="elem_UC_YJ"><ellipse cx="324.9545" cy="1077.9451" fill="#FFFFFF" rx="74.0145" ry="22.9868" style="stroke:#0052CC;stroke-width:0.5;"/><text fill="#000000" font-family="Segoe UI" font-size="12" lengthAdjust="spacing" textLength="83.1738" x="283.3676" y="1073.4138">Kanban &#1076;&#1086;&#1089;&#1082;&#1080;</text><text fill="#000000" font-family="Segoe UI" font-size="12" lengthAdjust="spacing" textLength="88.4297" x="280.7397" y="1087.5467">&#1082;&#1072;&#1088;&#1090;&#1086;&#1095;&#1082;&#1080;, &#1090;&#1077;&#1075;&#1080;</text></g><g id="elem_UC_YJ_ZNI"><ellipse cx="324.9546" cy="1154.9472" fill="#FFFFFF" rx="84.0946" ry="19.2189" style="stroke:#0052CC;stroke-width:0.5;"/><text fill="#000000" font-family="Segoe UI" font-size="12" lengthAdjust="spacing" textLength="133.9861" x="257.9616" y="1157.4824">&#1057;&#1074;&#1103;&#1079;&#1100; &#1082;&#1072;&#1088;&#1090;&#1086;&#1095;&#1082;&#1080; &#8596; &#1047;&#1053;&#1048;</text></g><g id="elem_UC_VAC"><ellipse cx="324.9509" cy="1334.9525" fill="#FFFFFF" rx="69.8209" ry="16.3642" style="stroke:#0052CC;stroke-width:0.5;"/><text fill="#000000" font-family="Segoe UI" font-size="12" lengthAdjust="spacing" textLength="101.4316" x="274.2351" y="1337.4876">&#1043;&#1088;&#1072;&#1092;&#1080;&#1082; &#1086;&#1090;&#1087;&#1091;&#1089;&#1082;&#1086;&#1074;</text></g><g id="elem_UC_BOOK"><ellipse cx="324.9513" cy="1399.9446" fill="#FFFFFF" rx="55.8813" ry="13.5763" style="stroke:#0052CC;stroke-width:0.5;"/><text fill="#000000" font-family="Segoe UI" font-size="12" lengthAdjust="spacing" textLength="66.6914" x="291.6056" y="1402.4797">&#1041;&#1088;&#1086;&#1085;&#1100; &#1084;&#1077;&#1089;&#1090;</text></g><g id="elem_UC_OFFICE"><ellipse cx="324.9468" cy="1264.9496" fill="#FFFFFF" rx="79.5568" ry="18.3114" style="stroke:#0052CC;stroke-width:0.5;"/><text fill="#000000" font-family="Segoe UI" font-size="12" lengthAdjust="spacing" textLength="123.832" x="263.0307" y="1267.4848">&#1057;&#1086;&#1090;&#1088;&#1091;&#1076;&#1085;&#1080;&#1082;&#1080; &#1074; &#1086;&#1092;&#1080;&#1089;&#1077;</text></g><g id="elem_UC_ORG"><ellipse cx="324.9485" cy="1471.9451" fill="#FFFFFF" rx="92.5885" ry="22.9868" style="stroke:#0052CC;stroke-width:0.5;"/><text fill="#000000" font-family="Segoe UI" font-size="12" lengthAdjust="spacing" textLength="114.6973" x="267.5999" y="1467.4138">&#1057;&#1086;&#1089;&#1090;&#1072;&#1074; / &#1087;&#1080;&#1088;&#1072;&#1084;&#1080;&#1076;&#1072;</text><text fill="#000000" font-family="Segoe UI" font-size="12" lengthAdjust="spacing" textLength="56.3848" x="296.7561" y="1481.5467">&#1086;&#1088;&#1075;&#1089;&#1093;&#1077;&#1084;&#1072;</text></g><g id="elem_UC_PHOTO"><ellipse cx="324.9456" cy="1543.9454" fill="#FFFFFF" rx="59.7856" ry="14.3571" style="stroke:#0052CC;stroke-width:0.5;"/><text fill="#000000" font-family="Segoe UI" font-size="12" lengthAdjust="spacing" textLength="76.9102" x="286.4905" y="1546.4806">&#1060;&#1086;&#1090;&#1086; &#1074; MinIO</text></g><g id="elem_UC_DIAG"><ellipse cx="324.9543" cy="325.9531" fill="#FFFFFF" rx="106.6743" ry="23.7349" style="stroke:#0052CC;stroke-width:0.5;"/><text fill="#000000" font-family="Segoe UI" font-size="12" lengthAdjust="spacing" textLength="139.7227" x="255.0929" y="321.4219">&#1050;&#1086;&#1085;&#1089;&#1090;&#1088;&#1091;&#1082;&#1090;&#1086;&#1088; &#1076;&#1080;&#1072;&#1075;&#1088;&#1072;&#1084;&#1084;</text><text fill="#000000" font-family="Segoe UI" font-size="12" lengthAdjust="spacing" textLength="19.5762" x="315.1662" y="335.5547">(UI)</text></g><g id="elem_UC2"><ellipse cx="324.9515" cy="1715.9526" fill="#FFFFFF" rx="69.7215" ry="16.3443" style="stroke:#0052CC;stroke-width:0.5;"/><text fill="#000000" font-family="Segoe UI" font-size="12" lengthAdjust="spacing" textLength="101.1973" x="274.3529" y="1718.4877">&#1042;&#1088;&#1077;&#1084;&#1103; &#1074; &#1089;&#1090;&#1072;&#1090;&#1091;&#1089;&#1072;&#1093;</text></g><g id="elem_UC3"><ellipse cx="324.9537" cy="1782.953" fill="#FFFFFF" rx="67.9737" ry="15.9947" style="stroke:#0052CC;stroke-width:0.5;"/><text fill="#000000" font-family="Segoe UI" font-size="12" lengthAdjust="spacing" textLength="97.0547" x="276.4264" y="1785.4882">&#1042;&#1088;&#1077;&#1084;&#1103; &#1074; &#1073;&#1101;&#1082;&#1083;&#1086;&#1075;&#1077;</text></g><g id="elem_UC4"><ellipse cx="324.9458" cy="1647.9474" fill="#FFFFFF" rx="73.3458" ry="17.0692" style="stroke:#0052CC;stroke-width:0.5;"/><text fill="#000000" font-family="Segoe UI" font-size="12" lengthAdjust="spacing" textLength="109.6582" x="270.1167" y="1650.4826">&#1047;&#1072;&#1075;&#1088;&#1091;&#1079;&#1082;&#1072; &#1082;&#1086;&#1084;&#1072;&#1085;&#1076;&#1099;</text></g><g id="elem_UC9A"><ellipse cx="653.2455" cy="452.9494" fill="#FFFFFF" rx="72.9055" ry="16.9811" style="stroke:#0052CC;stroke-width:0.5;"/><text fill="#000000" font-family="Segoe UI" font-size="12" lengthAdjust="spacing" textLength="108.6387" x="598.9261" y="455.4845">WIQL &#8594; Batch &#1047;&#1053;&#1048;</text></g><g id="elem_UC9B"><ellipse cx="653.2477" cy="651.9498" fill="#FFFFFF" rx="81.9577" ry="18.7915" style="stroke:#0052CC;stroke-width:0.5;"/><text fill="#000000" font-family="Segoe UI" font-size="12" lengthAdjust="spacing" textLength="129.2227" x="588.6363" y="654.485">&#1057;&#1074;&#1103;&#1079;&#1080; &#1047;&#1053;&#1048; &#8594; &#1054;&#1096;&#1080;&#1073;&#1082;&#1072;</text></g><g id="elem_UC9C"><ellipse cx="653.2459" cy="584.9515" fill="#FFFFFF" rx="55.6659" ry="13.5332" style="stroke:#0052CC;stroke-width:0.5;"/><text fill="#000000" font-family="Segoe UI" font-size="12" lengthAdjust="spacing" textLength="66.1113" x="620.1902" y="587.4866">Upsert task</text></g><g id="elem_UC16"><ellipse cx="653.2497" cy="520.9442" fill="#FFFFFF" rx="65.7797" ry="15.5559" style="stroke:#0052CC;stroke-width:0.5;"/><text fill="#000000" font-family="Segoe UI" font-size="12" lengthAdjust="spacing" textLength="91.7871" x="607.3562" y="523.4794">&#1040;&#1091;&#1076;&#1080;&#1090; sync_run</text></g><!--entity user--><g id="elem_user"><ellipse cx="65.1354" cy="770.3783" fill="#DEEBFF" rx="8" ry="8" style="stroke:#0052CC;stroke-width:0.5;"/><path d="M65.1354,778.3783 L65.1354,805.3783 M52.1354,786.3783 L78.1354,786.3783 M65.1354,805.3783 L52.1354,820.3783 M65.1354,805.3783 L78.1354,820.3783 " fill="none" style="stroke:#0052CC;stroke-width:0.5;"/><text fill="#000000" font-family="Segoe UI" font-size="12" lengthAdjust="spacing" textLength="80.9707" x="24.65" y="833.4798">&#1055;&#1086;&#1083;&#1100;&#1079;&#1086;&#1074;&#1072;&#1090;&#1077;&#1083;&#1100;</text></g><!--entity admin--><g id="elem_admin"><ellipse cx="65.1387" cy="1407.3783" fill="#DEEBFF" rx="8" ry="8" style="stroke:#0052CC;stroke-width:0.5;"/><path d="M65.1387,1415.3783 L65.1387,1442.3783 M52.1387,1423.3783 L78.1387,1423.3783 M65.1387,1442.3783 L52.1387,1457.3783 M65.1387,1442.3783 L78.1387,1457.3783 " fill="none" style="stroke:#0052CC;stroke-width:0.5;"/><text fill="#000000" font-family="Segoe UI" font-size="12" lengthAdjust="spacing" textLength="118.2773" x="6" y="1470.4798">&#1040;&#1076;&#1084;&#1080;&#1085;&#1080;&#1089;&#1090;&#1088;&#1072;&#1090;&#1086;&#1088; org</text></g><!--entity bi--><g id="elem_bi"><ellipse cx="65.1373" cy="1687.3783" fill="#DEEBFF" rx="8" ry="8" style="stroke:#0052CC;stroke-width:0.5;"/><path d="M65.1373,1695.3783 L65.1373,1722.3783 M52.1373,1703.3783 L78.1373,1703.3783 M65.1373,1722.3783 L52.1373,1737.3783 M65.1373,1722.3783 L78.1373,1737.3783 " fill="none" style="stroke:#0052CC;stroke-width:0.5;"/><text fill="#000000" font-family="Segoe UI" font-size="12" lengthAdjust="spacing" textLength="34.3945" x="47.94" y="1750.4798">FineBI</text></g><!--link user to UC_AUTH--><g id="link_user_UC_AUTH"><path d="M68.31,761.4083 C76.41,627.5583 106.91,179.4183 154.28,137.9483 C262.17,43.4883 339.3,159.7683 462.62,232.9483 C501,255.7283 496.47,279.7783 534.62,302.9483 C551.08,312.9383 564.7012,318.8719 582.8812,324.7519 " fill="none" id="user-to-UC_AUTH" style="stroke:#42526E;stroke-width:1;"/><polygon fill="#42526E" points="588.59,326.5983,581.2577,320.0228,583.8326,325.0596,578.7958,327.6345,588.59,326.5983" style="stroke:#42526E;stroke-width:1;"/></g><!--link user to UC_PROFILE--><g id="link_user_UC_PROFILE"><path d="M66.36,761.5283 C67.94,645.9083 79.68,298.2183 163.28,232.9483 C295.34,129.8383 508.1771,200.8673 601.8171,240.1473 " fill="none" id="user-to-UC_PROFILE" style="stroke:#42526E;stroke-width:1;"/><polygon fill="#42526E" points="607.35,242.4683,600.5979,235.2983,602.7392,240.5342,597.5033,242.6755,607.35,242.4683" style="stroke:#42526E;stroke-width:1;"/></g><!--link user to UC_DASH--><g id="link_user_UC_DASH"><path d="M66.63,761.4483 C69.59,696.0083 85.41,560.8683 163.28,486.9483 C183.43,467.8183 205.3412,458.536 232.1512,452.836 " fill="none" id="user-to-UC_DASH" style="stroke:#42526E;stroke-width:1;"/><polygon fill="#42526E" points="238.02,451.5883,228.3849,449.5474,233.1293,452.6281,230.0486,457.3725,238.02,451.5883" style="stroke:#42526E;stroke-width:1;"/></g><!--link user to UC_SYNC--><g id="link_user_UC_SYNC"><path d="M70.28,761.5383 C78.3,707.8283 101.04,609.5583 163.28,556.9483 C186.61,537.2283 212.561,528.7316 241.791,524.5316 " fill="none" id="user-to-UC_SYNC" style="stroke:#42526E;stroke-width:1;"/><polygon fill="#42526E" points="247.73,523.6783,238.2526,520.999,242.7808,524.3894,239.3904,528.9177,247.73,523.6783" style="stroke:#42526E;stroke-width:1;"/></g><!--link user to UC_EXPORT--><g id="link_user_UC_EXPORT"><path d="M76.14,761.6183 C89.16,720.5183 116.05,655.6683 163.28,620.9483 C192.5,599.4683 226.4794,591.9301 259.2494,589.2901 " fill="none" id="user-to-UC_EXPORT" style="stroke:#42526E;stroke-width:1;"/><polygon fill="#42526E" points="265.23,588.8083,255.9379,585.5439,260.2461,589.2098,256.5803,593.5181,265.23,588.8083" style="stroke:#42526E;stroke-width:1;"/></g><!--link user to UC_BOARD--><g id="link_user_UC_BOARD"><path d="M106,766.9683 C123.09,754.0083 143.62,739.4383 163.28,727.9483 C204.02,704.1483 248.3154,684.8022 281.5954,671.3822 " fill="none" id="user-to-UC_BOARD" style="stroke:#42526E;stroke-width:1;"/><polygon fill="#42526E" points="287.16,669.1383,277.3171,668.7944,282.5228,671.0082,280.309,676.2139,287.16,669.1383" style="stroke:#42526E;stroke-width:1;"/></g><!--link user to UC_B2B--><g id="link_user_UC_B2B"><path d="M67.31,761.4783 C71.53,653.6983 89.9,346.7383 163.28,285.9483 C265.73,201.0783 341.81,230.2183 462.62,285.9483 C502.41,304.2983 510.96,320.0183 526.62,360.9483 C539.57,394.7883 518.6,654.4483 534.62,686.9483 C550.99,720.1483 579.8487,742.5386 607.1087,758.6986 " fill="none" id="user-to-UC_B2B" style="stroke:#42526E;stroke-width:1;"/><polygon fill="#42526E" points="612.27,761.7583,606.5679,753.728,607.969,759.2086,602.4884,760.6097,612.27,761.7583" style="stroke:#42526E;stroke-width:1;"/></g><!--link user to UC_NEWS--><g id="link_user_UC_NEWS"><path d="M105.86,793.0983 C147.38,786.9783 207.1941,778.1529 255.6541,771.0129 " fill="none" id="user-to-UC_NEWS" style="stroke:#42526E;stroke-width:1;"/><polygon fill="#42526E" points="261.59,770.1383,252.1031,767.4929,256.6434,770.8671,253.2692,775.4074,261.59,770.1383" style="stroke:#42526E;stroke-width:1;"/></g><!--link user to UC_PPTX--><g id="link_user_UC_PPTX"><path d="M105.86,804.6483 C145.12,810.2883 200.1108,818.1764 247.5908,824.9864 " fill="none" id="user-to-UC_PPTX" style="stroke:#42526E;stroke-width:1;"/><polygon fill="#42526E" points="253.53,825.8383,245.1891,820.601,248.5806,825.1284,244.0533,828.52,253.53,825.8383" style="stroke:#42526E;stroke-width:1;"/></g><!--link user to UC_ROADMAP--><g id="link_user_UC_ROADMAP"><path d="M105.98,832.9283 C123.07,846.7483 143.6,862.3983 163.28,874.9483 C198.66,897.5183 235.595,916.3651 267.935,931.6451 " fill="none" id="user-to-UC_ROADMAP" style="stroke:#42526E;stroke-width:1;"/><polygon fill="#42526E" points="273.36,934.2083,266.9314,926.7469,268.8392,932.0723,263.5138,933.9801,273.36,934.2083" style="stroke:#42526E;stroke-width:1;"/></g><!--link user to UC_YJ--><g id="link_user_UC_YJ"><path d="M97.81,836.5083 C117.71,862.2583 142.04,898.1183 155.28,933.9483 C165.21,960.8383 146.7,974.5583 163.28,997.9483 C187.42,1032.0183 224.6097,1050.4656 260.0097,1062.0956 " fill="none" id="user-to-UC_YJ" style="stroke:#42526E;stroke-width:1;"/><polygon fill="#42526E" points="265.71,1063.9683,258.4081,1057.359,260.9598,1062.4077,255.9111,1064.9594,265.71,1063.9683" style="stroke:#42526E;stroke-width:1;"/></g><!--link user to UC_YJ_ZNI--><g id="link_user_UC_YJ_ZNI"><path d="M90.58,836.3683 C111.91,871.1983 141.53,925.3483 155.28,976.9483 C159.32,992.1083 153.16,1105.9483 163.28,1117.9483 C182.28,1140.4883 206.0782,1149.976 234.8082,1154.346 " fill="none" id="user-to-UC_YJ_ZNI" style="stroke:#42526E;stroke-width:1;"/><polygon fill="#42526E" points="240.74,1155.2483,232.4438,1149.9404,235.7969,1154.4964,231.2408,1157.8494,240.74,1155.2483" style="stroke:#42526E;stroke-width:1;"/></g><!--link user to UC_VAC--><g id="link_user_UC_VAC"><path d="M81.4,836.2783 C102.47,889.8283 139.63,992.0383 155.28,1082.9483 C157.33,1094.8883 155.47,1291.6783 163.28,1300.9483 C185.67,1327.5683 217.2219,1336.161 250.3919,1338.251 " fill="none" id="user-to-UC_VAC" style="stroke:#42526E;stroke-width:1;"/><polygon fill="#42526E" points="256.38,1338.6283,247.6493,1334.0702,251.3899,1338.3139,247.1463,1342.0544,256.38,1338.6283" style="stroke:#42526E;stroke-width:1;"/></g><!--link user to UC_BOOK--><g id="link_user_UC_BOOK"><path d="M78.08,836.2883 C98.21,901.1283 138.34,1039.0883 155.28,1158.9483 C156.91,1170.5083 155.67,1360.0883 163.28,1368.9483 C189.64,1399.6683 230.4408,1405.8991 266.7508,1405.2891 " fill="none" id="user-to-UC_BOOK" style="stroke:#42526E;stroke-width:1;"/><polygon fill="#42526E" points="272.75,1405.1883,263.6841,1401.34,267.7507,1405.2723,263.8185,1409.3389,272.75,1405.1883" style="stroke:#42526E;stroke-width:1;"/></g><!--link user to UC_OFFICE--><g id="link_user_UC_OFFICE"><path d="M85.41,836.3583 C106.85,880.0583 140.42,955.1583 155.28,1023.9483 C159.18,1041.9983 152.99,1174.6183 163.28,1189.9483 C185.92,1223.6883 222.1725,1240.8896 257.5625,1251.2696 " fill="none" id="user-to-UC_OFFICE" style="stroke:#42526E;stroke-width:1;"/><polygon fill="#42526E" points="263.32,1252.9583,255.8096,1246.587,258.5221,1251.551,253.558,1254.2636,263.32,1252.9583" style="stroke:#42526E;stroke-width:1;"/></g><!--link user to UC_ORG--><g id="link_user_UC_ORG"><path d="M75,836.3083 C93.45,915.7583 135.86,1107.6083 155.28,1270.9483 C157.38,1288.6283 152.01,1417.1683 163.28,1430.9483 C180.41,1451.8983 200.7536,1461.729 227.0736,1467.379 " fill="none" id="user-to-UC_ORG" style="stroke:#42526E;stroke-width:1;"/><polygon fill="#42526E" points="232.94,1468.6383,224.98,1462.8384,228.0514,1467.5889,223.3009,1470.6602,232.94,1468.6383" style="stroke:#42526E;stroke-width:1;"/></g><!--link user to UC_DIAG--><g id="link_user_UC_DIAG"><path d="M65.53,761.5683 C66.22,686.2083 77.79,514.0983 163.28,406.9483 C187.14,377.0383 219.3529,359.3339 252.3029,346.7839 " fill="none" id="user-to-UC_DIAG" style="stroke:#42526E;stroke-width:1;"/><polygon fill="#42526E" points="257.91,344.6483,248.0757,344.1137,253.2374,346.428,250.9232,351.5897,257.91,344.6483" style="stroke:#42526E;stroke-width:1;"/></g><!--link user to UC_PHOTO--><g id="link_user_UC_PHOTO"><path d="M70.6,836.0483 C88.08,980.6883 151.49,1499.4183 163.28,1511.9483 C189.39,1539.7083 226.1916,1547.0389 261.0516,1547.8489 " fill="none" id="user-to-UC_PHOTO" style="stroke:#42526E;stroke-width:1;"/><polygon fill="#42526E" points="267.05,1547.9883,258.1453,1543.7803,262.0513,1547.8721,257.9595,1551.7781,267.05,1547.9883" style="stroke:#42526E;stroke-width:1;"/></g><!--link admin to UC_ORG--><g id="link_admin_UC_ORG"><path d="M124.64,1444.1183 C159.85,1449.0383 199.2277,1454.5283 237.7477,1459.9083 " fill="none" id="admin-to-UC_ORG" style="stroke:#42526E;stroke-width:1;"/><polygon fill="#42526E" points="243.69,1460.7383,235.3298,1455.5318,238.7381,1460.0467,234.2232,1463.4549,243.69,1460.7383" style="stroke:#42526E;stroke-width:1;"/></g><!--link admin to UC_BOOK--><g id="link_admin_UC_BOOK"><path d="M124.64,1427.7783 C170.25,1421.4083 226.8775,1413.4972 269.6775,1407.5272 " fill="none" id="admin-to-UC_BOOK" style="stroke:#42526E;stroke-width:1;"/><polygon fill="#42526E" points="275.62,1406.6983,266.1537,1403.98,270.6679,1407.389,267.2589,1411.9033,275.62,1406.6983" style="stroke:#42526E;stroke-width:1;"/></g><!--link admin to UC_VAC--><g id="link_admin_UC_VAC"><path d="M112.35,1398.5583 C127.79,1387.6083 145.59,1376.5583 163.28,1368.9483 C194.45,1355.5383 225.4399,1348.2343 256.0099,1343.1943 " fill="none" id="admin-to-UC_VAC" style="stroke:#42526E;stroke-width:1;"/><polygon fill="#42526E" points="261.93,1342.2183,252.3992,1339.7356,256.9966,1343.0316,253.7006,1347.629,261.93,1342.2183" style="stroke:#42526E;stroke-width:1;"/></g><!--link admin to UC_PHOTO--><g id="link_admin_UC_PHOTO"><path d="M105.39,1473.5083 C122.07,1487.5483 142.45,1502.3883 163.28,1511.9483 C196.24,1527.0783 230.272,1534.2797 262.102,1538.4997 " fill="none" id="admin-to-UC_PHOTO" style="stroke:#42526E;stroke-width:1;"/><polygon fill="#42526E" points="268.05,1539.2883,259.6538,1534.1401,263.0934,1538.6311,258.6024,1542.0707,268.05,1539.2883" style="stroke:#42526E;stroke-width:1;"/></g><!--link bi to UC2--><g id="link_bi_UC2"><path d="M82.66,1715.9483 C116.72,1715.9483 190.47,1715.9483 249,1715.9483 " fill="none" id="bi-to-UC2" style="stroke:#42526E;stroke-width:1;"/><polygon fill="#42526E" points="255,1715.9483,246,1711.9483,250,1715.9483,246,1719.9483,255,1715.9483" style="stroke:#42526E;stroke-width:1;"/></g><!--link bi to UC3--><g id="link_bi_UC3"><path d="M82.77,1722.5383 C101.94,1729.9483 134.52,1741.9983 163.28,1749.9483 C198,1759.5483 231.7413,1766.6205 262.9613,1772.4305 " fill="none" id="bi-to-UC3" style="stroke:#42526E;stroke-width:1;"/><polygon fill="#42526E" points="268.86,1773.5283,260.7437,1767.9492,263.9444,1772.6135,259.2801,1775.8141,268.86,1773.5283" style="stroke:#42526E;stroke-width:1;"/></g><!--link bi to UC4--><g id="link_bi_UC4"><path d="M82.78,1709.3883 C101.96,1701.9983 134.54,1689.9783 163.28,1681.9483 C196.91,1672.5483 229.2608,1665.5062 259.9908,1659.5162 " fill="none" id="bi-to-UC4" style="stroke:#42526E;stroke-width:1;"/><polygon fill="#42526E" points="265.88,1658.3683,256.281,1656.1641,260.9724,1659.3249,257.8115,1664.0163,265.88,1658.3683" style="stroke:#42526E;stroke-width:1;"/></g><!--link UC_SYNC to UC9A--><g id="link_UC_SYNC_UC9A"><path d="M383.16,509.8483 C443.75,497.0383 532.8198,478.1995 592.2198,465.6395 " fill="none" id="UC_SYNC-to-UC9A" style="stroke:#42526E;stroke-width:1;stroke-dasharray:7.0,7.0;"/><polygon fill="#42526E" points="598.09,464.3983,588.4572,462.3467,593.1982,465.4326,590.1122,470.1736,598.09,464.3983" style="stroke:#42526E;stroke-width:1;"/><text fill="#000000" font-family="Segoe UI" font-size="12" lengthAdjust="spacing" textLength="54.791" x="471.62" y="477.8698">&#171;include&#187;</text></g><!--link UC_SYNC to UC9B--><g id="link_UC_SYNC_UC9B"><path d="M399.79,526.9383 C422.37,531.8383 445.69,540.8083 462.62,556.9483 C471.37,565.2883 462.86,573.6783 470.62,582.9483 C491.15,607.4983 504.98,603.8883 534.62,615.9483 C554.99,624.2383 572.2628,629.9987 592.5028,635.9387 " fill="none" id="UC_SYNC-to-UC9B" style="stroke:#42526E;stroke-width:1;stroke-dasharray:7.0,7.0;"/><polygon fill="#42526E" points="598.26,637.6283,590.7506,631.2557,593.4623,636.2203,588.4978,638.932,598.26,637.6283" style="stroke:#42526E;stroke-width:1;"/><text fill="#000000" font-family="Segoe UI" font-size="12" lengthAdjust="spacing" textLength="54.791" x="471.62" y="579.5498">&#171;include&#187;</text></g><!--link UC_SYNC to UC9C--><g id="link_UC_SYNC_UC9C"><path d="M385.42,533.4283 C449.94,545.8883 545.5088,564.3407 602.9388,575.4307 " fill="none" id="UC_SYNC-to-UC9C" style="stroke:#42526E;stroke-width:1;stroke-dasharray:7.0,7.0;"/><polygon fill="#42526E" points="608.83,576.5683,600.7517,570.9344,603.9207,575.6203,599.2348,578.7893,608.83,576.5683" style="stroke:#42526E;stroke-width:1;"/><text fill="#000000" font-family="Segoe UI" font-size="12" lengthAdjust="spacing" textLength="54.791" x="471.62" y="548.1598">&#171;include&#187;</text></g><!--link UC_SYNC to UC16--><g id="link_UC_SYNC_UC16"><path d="M402.45,521.7183 C458.59,521.5383 528,521.3263 581.23,521.1663 " fill="none" id="UC_SYNC-to-UC16" style="stroke:#42526E;stroke-width:1;stroke-dasharray:7.0,7.0;"/><polygon fill="#42526E" points="587.23,521.1483,578.218,517.1754,582.23,521.1633,578.2421,525.1753,587.23,521.1483" style="stroke:#42526E;stroke-width:1;"/><text fill="#000000" font-family="Segoe UI" font-size="12" lengthAdjust="spacing" textLength="54.791" x="471.62" y="517.9598">&#171;include&#187;</text></g><!--link UC_DASH to UC_AUTH--><g id="link_UC_DASH_UC_AUTH"><path d="M382.41,427.9483 C442.97,408.6483 532.7333,380.0402 592.3833,361.0302 " fill="none" id="UC_DASH-to-UC_AUTH" style="stroke:#42526E;stroke-width:1;stroke-dasharray:7.0,7.0;"/><polygon fill="#42526E" points="598.1,359.2083,588.3104,358.1299,593.3361,360.7265,590.7395,365.7522,598.1,359.2083" style="stroke:#42526E;stroke-width:1;"/><text fill="#000000" font-family="Segoe UI" font-size="12" lengthAdjust="spacing" textLength="54.791" x="471.62" y="381.2298">&#171;include&#187;</text></g><!--link UC_PPTX to UC_B2B--><g id="link_UC_PPTX_UC_B2B"><path d="M393.96,824.6983 C449.24,815.5483 521.0105,803.6678 576.7305,794.4478 " fill="none" id="UC_PPTX-to-UC_B2B" style="stroke:#42526E;stroke-width:1;stroke-dasharray:7.0,7.0;"/><polygon fill="#42526E" points="582.65,793.4683,573.1177,790.9912,577.7171,794.2845,574.4237,798.8839,582.65,793.4683" style="stroke:#42526E;stroke-width:1;"/><text fill="#000000" font-family="Segoe UI" font-size="12" lengthAdjust="spacing" textLength="54.791" x="471.62" y="800.7098">&#171;include&#187;</text></g><!--SRC=[XLPRJnjN47xVNp4YBwsQXE00QQi8oRTDd0jsVKb2XOGEzc9Mc5sqNYjAeqfS2aGYLIv5IjGgZQZwMibSB1mmpbyuvo_abtJEsNFiixiMoKjWpZSptynyCql3MlB1Ty6pwyi-r6pFglgswnZD5TjP8nvPXJLINI5rg-G_QrZ0dubJRrWQeBbCQkvJswd34caqzHVFRJcrjEivbWVVQ_QQjKHQ3Tzq7N-Mh5emLhBghWMLtDXeKCd-nOA9XFQOz3ptQTfjk1vScKnC9QQpsYEf-gwNGjfrIK30CjbioZHZCDUhMPw4tBWnbKYdDKYhQLL9quh5CiM_4S1BeybEngDDcbFchH50FLh6p4vaf_Ncgb5ydTqGEYAYuTi-JhRIj22D9S2NzNrqM7Cz7qTg6A9BC4O_qZuzPo_fAVv_HDjiatRuxsD0chnwRm1yJKzeZtRf1Uso3RR9rWMupzR1zUe2JcghjgFmfkrOgPomBzg6CQ2AaGw229YeHzj3JcFmt310DGbnRzasaZe1sWNw6VFrsM-ONv1xZa1Gqz6WXMGPni5Q9NRZE_eP6Qu7vGaUbVH2ibA-6t7z2zdiqWksHpy1FQDjUYYAxB3DUGSJzdcHLo58pZRmfn5X2yMycNkGnSY_XajuHp_Gzt6w-nZY1IR2xl7w16hUmNPqH6ExoADx5LIvtCRsLAvCiXGjuO0pPjk25Ou7PzbcEyZs5PJDal8hpSsc8tx_qJEsWVKW3RO9wT8ZXSq-AUIBvLYFzmBAW4heeoEIr1EayibY9jw20smWAeLjiGqvHdh2jZ0pcY6LICMxyuyOmZaMi8CG8HKPWBQnIyXtC0v4zWRv4wb8e0z2qtqHeIjaX9r13bi1UUKuctrSYdZ-WUBa6bWVTB9GA3_XoT7KmJ3uB6ZXup0GnyGRy15BQNE1GSQkspvfn2ekkhWwP8tB3sM5jRS3WZ9VL-YaopS6npGUm7fSBP84XtnI98hvPEPXiX3diI-7reOvjtKFDoJ6upvn5ecZZHS9dF7uOj5tfIhvuXuFYvwx5rFZ4Nj5JzbBY3h3bvrzK3kXl1T-dit5o9PyihGaRq9aCc8cV3FEG2od6YUEMWLzb8mg_Ksm6vmJNp8Kn52r-Vkn0lfYvRQm4HV1CW8z6cgketppffbBPqTu2ycYopY_5btEM9pE4w5VFinZX6m71t0Gh7Wd4kdVuFZmt0zj9vSVoEnklfmVDTykvZcMsNhyOaIRzwTemeQixapUR-GLyfntlgdalXtScrpoJZpPtnXZbxt121T1lTXQVkxZXvdlImyN2Ai8hpBRbYaIb_dGG_OxJk0ScHyFEdypul4ke8yrdGg1omt1hSDReoxdPBoAzsA1Ea7f-icCbF4uzzC35EzRI16_kXoMy0_9qVhdeX4uuOWDUu5TFkJqb6FaN5NMy7EBVxIHvef2H6NyMcWIBm4qdpdL1Q_bIEJ4j2WEo-FVRBXsRMRmjTCDwZkbsyJtH3U83uLka5y3tHJS-f05hw_-kpYgeTpyEEe6TQXq6nwJyA_YEkWcljjX9hY_ka4kPSY4gnKgcKiwn4rib27-WD6TGWQHAMJXN4866MVHbeR4yCURmnyd3KEs6QvVdn4IWX_XzctRgJPQDMjc9lgSklmvVUdpn7JycSzSFWkHn15yMWg1euq0_WS0]--></g></svg>