<svg xmlns="http://www.w3.org/2000/svg" xmlns:xlink="http://www.w3.org/1999/xlink" contentStyleType="text/css" data-diagram-type="DESCRIPTION" height="1260px" preserveAspectRatio="none" style="width:754px;height:1260px;background:#FFFFFF;" version="1.1" viewBox="0 0 754 1260" width="754px" zoomAndPan="magnify"><?plantuml 1.2026.4?><defs/><g><g class="title" data-source-line="4"><text fill="#000000" font-family="sans-serif" font-size="14" font-weight="700" lengthAdjust="spacing" textLength="329.0547" x="209.3227" y="22.9951">Use Case &#8212; reporting (&#1047;&#1053;&#1048; + &#1077;&#1076;&#1080;&#1085;&#1072;&#1103; &#1041;&#1044;)</text></g><!--cluster ??????? reporting--><g class="cluster" data-qualified-name="....... reporting" data-source-line="10" id="ent0004"><rect fill="none" height="1202" rx="2.5" ry="2.5" style="stroke:#181818;stroke-width:1;" width="571.61" x="169.09" y="44.2969"/><text fill="#000000" font-family="sans-serif" font-size="14" font-weight="700" lengthAdjust="spacing" textLength="146.1797" x="381.8052" y="59.292">&#1057;&#1080;&#1089;&#1090;&#1077;&#1084;&#1072; reporting</text></g><!--cluster ???-?????????? (pallink.fun)--><g class="cluster" data-qualified-name="....... reporting....-.......... .pallink.fun." data-source-line="12" id="ent0005"><rect fill="none" height="355" rx="2.5" ry="2.5" style="stroke:#181818;stroke-width:1;" width="518.23" x="193.09" y="416.2969"/><text fill="#000000" font-family="sans-serif" font-size="14" font-weight="700" lengthAdjust="spacing" textLength="239.6885" x="332.3608" y="431.292">&#1042;&#1077;&#1073;-&#1087;&#1088;&#1080;&#1083;&#1086;&#1078;&#1077;&#1085;&#1080;&#1077; (pallink.fun)</text></g><!--cluster ?????????? BI--><g class="cluster" data-qualified-name="....... reporting........... BI" data-source-line="20" id="ent0011"><rect fill="none" height="302" rx="2.5" ry="2.5" style="stroke:#181818;stroke-width:1;" width="197.45" x="212.07" y="920.2969"/><text fill="#000000" font-family="sans-serif" font-size="14" font-weight="700" lengthAdjust="spacing" textLength="112.5469" x="254.5216" y="935.292">&#1054;&#1090;&#1095;&#1105;&#1090;&#1085;&#1086;&#1089;&#1090;&#1100; BI</text></g><!--cluster ?????????????????--><g class="cluster" data-qualified-name="....... reporting.................." data-source-line="27" id="ent0016"><rect fill="none" height="101" rx="2.5" ry="2.5" style="stroke:#181818;stroke-width:1;" width="188.39" x="216.6" y="795.2969"/><text fill="#000000" font-family="sans-serif" font-size="14" font-weight="700" lengthAdjust="spacing" textLength="166.0449" x="227.7725" y="810.292">&#1040;&#1076;&#1084;&#1080;&#1085;&#1080;&#1089;&#1090;&#1088;&#1080;&#1088;&#1086;&#1074;&#1072;&#1085;&#1080;&#1077;</text></g><!--cluster ?????????? TFS--><g class="cluster" data-qualified-name="....... reporting........... TFS" data-source-line="31" id="ent0018"><rect fill="none" height="305" rx="2.5" ry="2.5" style="stroke:#181818;stroke-width:1;" width="193.2" x="523.5" y="87.2969"/><text fill="#000000" font-family="sans-serif" font-size="14" font-weight="700" lengthAdjust="spacing" textLength="129.0283" x="555.5858" y="102.292">&#1048;&#1085;&#1090;&#1077;&#1075;&#1088;&#1072;&#1094;&#1080;&#1103; TFS</text></g><!--entity UC_AUTH--><g class="entity" data-qualified-name="....... reporting....-.......... .pallink.fun..UC_AUTH" data-source-line="13" id="ent0006"><ellipse cx="620.1023" cy="507.3013" fill="#F1F1F1" rx="75.2223" ry="17.4445" style="stroke:#181818;stroke-width:0.5;"/><text fill="#000000" font-family="sans-serif" font-size="14" lengthAdjust="spacing" textLength="119.2666" x="560.469" y="511.9498">&#1042;&#1093;&#1086;&#1076; &#1087;&#1086; PAT TFS</text></g><!--entity UC_DASH--><g class="entity" data-qualified-name="....... reporting....-.......... .pallink.fun..UC_DASH" data-source-line="14" id="ent0007"><ellipse cx="310.8014" cy="558.2995" fill="#F1F1F1" rx="101.7014" ry="24.5826" style="stroke:#181818;stroke-width:0.5;"/><text fill="#000000" font-family="sans-serif" font-size="14" lengthAdjust="spacing" textLength="102.5186" x="259.5422" y="552.6525">&#1044;&#1072;&#1096;&#1073;&#1086;&#1088;&#1076; &#1047;&#1053;&#1048;</text><text fill="#000000" font-family="sans-serif" font-size="14" lengthAdjust="spacing" textLength="149.0576" x="236.2726" y="568.9494">(&#1092;&#1080;&#1083;&#1100;&#1090;&#1088;&#1099;, &#1084;&#1077;&#1090;&#1088;&#1080;&#1082;&#1080;)</text></g><!--entity UC_SYNC--><g class="entity" data-qualified-name="....... reporting....-.......... .pallink.fun..UC_SYNC" data-source-line="15" id="ent0008"><ellipse cx="310.8033" cy="475.2936" fill="#F1F1F1" rx="76.3633" ry="23.7767" style="stroke:#181818;stroke-width:0.5;"/><text fill="#000000" font-family="sans-serif" font-size="14" lengthAdjust="spacing" textLength="115.0898" x="253.2584" y="475.2031">&#1057;&#1080;&#1085;&#1093;&#1088;&#1086;&#1085;&#1080;&#1079;&#1072;&#1094;&#1080;&#1103;</text><text fill="#000000" font-family="sans-serif" font-size="14" lengthAdjust="spacing" textLength="46.4844" x="287.5611" y="491.5">&#1080;&#1079; TFS</text></g><!--entity UC_EXPORT--><g class="entity" data-qualified-name="....... reporting....-.......... .pallink.fun..UC_EXPORT" data-source-line="16" id="ent0009"><ellipse cx="310.7959" cy="643.2981" fill="#F1F1F1" rx="82.7459" ry="24.9912" style="stroke:#181818;stroke-width:0.5;"/><text fill="#000000" font-family="sans-serif" font-size="14" lengthAdjust="spacing" textLength="93.3789" x="264.1064" y="638.2669">&#1069;&#1082;&#1089;&#1087;&#1086;&#1088;&#1090; CSV</text><text fill="#000000" font-family="sans-serif" font-size="14" lengthAdjust="spacing" textLength="118.1934" x="251.6992" y="654.5638">(&#1047;&#1053;&#1048; + &#1086;&#1096;&#1080;&#1073;&#1082;&#1080;)</text></g><!--entity UC_BOARD--><g class="entity" data-qualified-name="....... reporting....-.......... .pallink.fun..UC_BOARD" data-source-line="17" id="ent0010"><ellipse cx="310.8002" cy="729.2982" fill="#F1F1F1" rx="61.9102" ry="26.0214" style="stroke:#181818;stroke-width:0.5;"/><text fill="#000000" font-family="sans-serif" font-size="14" lengthAdjust="spacing" textLength="83.0293" x="269.2855" y="725.7616">&#1042;&#1089;&#1077; &#1076;&#1086;&#1089;&#1082;&#1080; /</text><text fill="#000000" font-family="sans-serif" font-size="14" lengthAdjust="spacing" textLength="83.4053" x="269.0975" y="742.0585">&#1086;&#1076;&#1085;&#1072; &#1076;&#1086;&#1089;&#1082;&#1072;</text></g><!--entity UC2--><g class="entity" data-qualified-name="....... reporting........... BI.UC2" data-source-line="21" id="ent0012"><ellipse cx="310.8018" cy="973.2972" fill="#F1F1F1" rx="79.1518" ry="18.2304" style="stroke:#181818;stroke-width:0.5;"/><text fill="#000000" font-family="sans-serif" font-size="14" lengthAdjust="spacing" textLength="128.6729" x="246.4654" y="977.9457">&#1042;&#1088;&#1077;&#1084;&#1103; &#1074; &#1089;&#1090;&#1072;&#1090;&#1091;&#1089;&#1072;&#1093;</text></g><!--entity UC3--><g class="entity" data-qualified-name="....... reporting........... BI.UC3" data-source-line="22" id="ent0013"><ellipse cx="310.795" cy="1044.2959" fill="#F1F1F1" rx="76.145" ry="17.629" style="stroke:#181818;stroke-width:0.5;"/><text fill="#000000" font-family="sans-serif" font-size="14" lengthAdjust="spacing" textLength="121.4951" x="250.0474" y="1048.9443">&#1042;&#1088;&#1077;&#1084;&#1103; &#1074; &#1073;&#1101;&#1082;&#1083;&#1086;&#1075;&#1077;</text></g><!--entity UC4--><g class="entity" data-qualified-name="....... reporting........... BI.UC4" data-source-line="23" id="ent0014"><ellipse cx="310.7966" cy="1116.2922" fill="#F1F1F1" rx="82.7266" ry="18.9453" style="stroke:#181818;stroke-width:0.5;"/><text fill="#000000" font-family="sans-serif" font-size="14" lengthAdjust="spacing" textLength="137.0605" x="242.2663" y="1120.9406">&#1047;&#1072;&#1075;&#1088;&#1091;&#1079;&#1082;&#1072; &#1082;&#1086;&#1084;&#1072;&#1085;&#1076;&#1099;</text></g><!--entity UC5--><g class="entity" data-qualified-name="....... reporting........... BI.UC5" data-source-line="24" id="ent0015"><ellipse cx="310.8046" cy="1188.2978" fill="#F1F1F1" rx="79.0046" ry="18.2009" style="stroke:#181818;stroke-width:0.5;"/><text fill="#000000" font-family="sans-serif" font-size="14" lengthAdjust="spacing" textLength="128.3242" x="246.6425" y="1192.9462">&#1054;&#1090;&#1075;&#1088;&#1091;&#1079;&#1082;&#1072; &#1074; &#1088;&#1077;&#1083;&#1080;&#1079;</text></g><!--entity UC6--><g class="entity" data-qualified-name="....... reporting...................UC6" data-source-line="28" id="ent0017"><ellipse cx="310.7976" cy="855.3001" fill="#F1F1F1" rx="78.1976" ry="24.6132" style="stroke:#181818;stroke-width:0.5;"/><text fill="#000000" font-family="sans-serif" font-size="14" lengthAdjust="spacing" textLength="113.4014" x="254.0969" y="853.9004">&#1052;&#1072;&#1087;&#1087;&#1080;&#1085;&#1075; &#1087;&#1086;&#1083;&#1077;&#1081;</text><text fill="#000000" font-family="sans-serif" font-size="14" lengthAdjust="spacing" textLength="78.9346" x="271.3303" y="870.1972">&#1080; &#1089;&#1090;&#1072;&#1090;&#1091;&#1089;&#1086;&#1074;</text></g><!--entity UC9A--><g class="entity" data-qualified-name="....... reporting........... TFS.UC9A" data-source-line="32" id="ent0019"><ellipse cx="620.101" cy="357.2971" fill="#F1F1F1" rx="80.601" ry="18.5202" style="stroke:#181818;stroke-width:0.5;"/><text fill="#000000" font-family="sans-serif" font-size="14" lengthAdjust="spacing" textLength="132.0908" x="554.0556" y="361.9455">WIQL &#8594; Batch &#1047;&#1053;&#1048;</text></g><!--entity UC9B--><g class="entity" data-qualified-name="....... reporting........... TFS.UC9B" data-source-line="33" id="ent0020"><ellipse cx="620.0995" cy="279.2995" fill="#F1F1F1" rx="76.1495" ry="24.8327" style="stroke:#181818;stroke-width:0.5;"/><text fill="#000000" font-family="sans-serif" font-size="14" lengthAdjust="spacing" textLength="82.1543" x="579.0223" y="274.0311">WIQL &#1089;&#1074;&#1103;&#1079;&#1080;</text><text fill="#000000" font-family="sans-serif" font-size="14" lengthAdjust="spacing" textLength="109.2041" x="565.4974" y="290.328">&#1047;&#1053;&#1048; &#8594; &#1054;&#1096;&#1080;&#1073;&#1082;&#1072;</text></g><!--entity UC9C--><g class="entity" data-qualified-name="....... reporting........... TFS.UC9C" data-source-line="34" id="ent0021"><ellipse cx="620.1042" cy="205.3005" fill="#F1F1F1" rx="59.7142" ry="14.5236" style="stroke:#181818;stroke-width:0.5;"/><text fill="#000000" font-family="sans-serif" font-size="14" lengthAdjust="spacing" textLength="80.2061" x="580.0012" y="209.9489">Upsert task</text></g><!--entity UC16--><g class="entity" data-qualified-name="....... reporting........... TFS.UC16" data-source-line="35" id="ent0022"><ellipse cx="620.1012" cy="139.2991" fill="#F1F1F1" rx="72.2112" ry="16.8422" style="stroke:#181818;stroke-width:0.5;"/><text fill="#000000" font-family="sans-serif" font-size="14" lengthAdjust="spacing" textLength="111.8975" x="564.1524" y="143.9475">&#1040;&#1091;&#1076;&#1080;&#1090; sync_run</text></g><!--entity analyst--><g class="entity" data-qualified-name="analyst" data-source-line="6" id="ent0001"><ellipse cx="64.0432" cy="528.6469" fill="#F1F1F1" rx="8" ry="8" style="stroke:#181818;stroke-width:0.5;"/><path d="M64.0432,536.6469 L64.0432,563.6469 M51.0432,544.6469 L77.0432,544.6469 M64.0432,563.6469 L51.0432,578.6469 M64.0432,563.6469 L77.0432,578.6469" fill="none" style="stroke:#181818;stroke-width:0.5;"/><text fill="#000000" font-family="sans-serif" font-size="14" lengthAdjust="spacing" textLength="71.0664" x="28.51" y="593.142">&#1040;&#1085;&#1072;&#1083;&#1080;&#1090;&#1080;&#1082;</text></g><!--entity admin--><g class="entity" data-qualified-name="admin" data-source-line="7" id="ent0002"><ellipse cx="64.0474" cy="825.6469" fill="#F1F1F1" rx="8" ry="8" style="stroke:#181818;stroke-width:0.5;"/><path d="M64.0474,833.6469 L64.0474,860.6469 M51.0474,841.6469 L77.0474,841.6469 M64.0474,860.6469 L51.0474,875.6469 M64.0474,860.6469 L77.0474,875.6469" fill="none" style="stroke:#181818;stroke-width:0.5;"/><text fill="#000000" font-family="sans-serif" font-size="14" lengthAdjust="spacing" textLength="116.0947" x="6" y="890.142">&#1040;&#1076;&#1084;&#1080;&#1085;&#1080;&#1089;&#1090;&#1088;&#1072;&#1090;&#1086;&#1088;</text></g><!--entity bi--><g class="entity" data-qualified-name="bi" data-source-line="8" id="ent0003"><ellipse cx="64.0511" cy="1050.6469" fill="#F1F1F1" rx="8" ry="8" style="stroke:#181818;stroke-width:0.5;"/><path d="M64.0511,1058.6469 L64.0511,1085.6469 M51.0511,1066.6469 L77.0511,1066.6469 M64.0511,1085.6469 L51.0511,1100.6469 M64.0511,1085.6469 L77.0511,1100.6469" fill="none" style="stroke:#181818;stroke-width:0.5;"/><text fill="#000000" font-family="sans-serif" font-size="14" lengthAdjust="spacing" textLength="43.1621" x="42.47" y="1115.142">FineBI</text></g><!--link analyst to UC_AUTH--><g class="link" data-entity-1="ent0001" data-entity-2="ent0006" data-link-type="dependency" data-source-line="39" id="lnk23"><path d="M88.2,519.9069 C105.68,493.3269 131.65,458.5069 161.09,434.2969 C269.15,345.4569 306.36,325.4969 442.5,293.2969 C470.61,286.6469 486.26,273.7069 507.5,293.2969 C523.72,308.2669 506.76,372.0269 515.5,392.2969 C533.37,433.7569 568.5313,467.1593 593.2513,487.3993" fill="none" id="analyst-to-UC_AUTH" style="stroke:#181818;stroke-width:1;"/><polygon fill="#181818" points="597.12,490.5669,592.6904,481.7703,593.2513,487.3993,587.6224,487.9602,597.12,490.5669" style="stroke:#181818;stroke-width:1;stroke-linejoin:miter;stroke-miterlimit:10;"/></g><!--link analyst to UC_DASH--><g class="link" data-entity-1="ent0001" data-entity-2="ent0007" data-link-type="dependency" data-source-line="40" id="lnk24"><path d="M99.85,558.2969 C128.29,558.2969 164.99,558.2969 203.74,558.2969" fill="none" id="analyst-to-UC_DASH" style="stroke:#181818;stroke-width:1;"/><polygon fill="#181818" points="208.74,558.2969,199.74,554.2969,203.74,558.2969,199.74,562.2969,208.74,558.2969" style="stroke:#181818;stroke-width:1;stroke-linejoin:miter;stroke-miterlimit:10;"/></g><!--link analyst to UC_SYNC--><g class="link" data-entity-1="ent0001" data-entity-2="ent0008" data-link-type="dependency" data-source-line="41" id="lnk25"><path d="M99.69,541.7169 C117.75,533.4369 140.34,523.6569 161.09,516.2969 C189.74,506.1469 217.3816,498.1979 244.6616,491.0879" fill="none" id="analyst-to-UC_SYNC" style="stroke:#181818;stroke-width:1;"/><polygon fill="#181818" points="249.5,489.8269,239.7821,488.226,244.6616,491.0879,241.7998,495.9674,249.5,489.8269" style="stroke:#181818;stroke-width:1;stroke-linejoin:miter;stroke-miterlimit:10;"/></g><!--link analyst to UC_EXPORT--><g class="link" data-entity-1="ent0001" data-entity-2="ent0009" data-link-type="dependency" data-source-line="42" id="lnk26"><path d="M99.73,574.7769 C117.79,583.0169 140.38,592.8069 161.09,600.2969 C188.9,610.3469 215.4413,618.3628 242.1713,625.7628" fill="none" id="analyst-to-UC_EXPORT" style="stroke:#181818;stroke-width:1;"/><polygon fill="#181818" points="246.99,627.0969,239.3835,620.8406,242.1713,625.7628,237.249,628.5506,246.99,627.0969" style="stroke:#181818;stroke-width:1;stroke-linejoin:miter;stroke-miterlimit:10;"/></g><!--link analyst to UC_BOARD--><g class="link" data-entity-1="ent0001" data-entity-2="ent0010" data-link-type="dependency" data-source-line="43" id="lnk27"><path d="M85.32,596.9469 C102.07,625.2869 128.36,662.6369 161.09,685.2969 C187.88,703.8369 217.6823,713.6332 246.8123,719.9132" fill="none" id="analyst-to-UC_BOARD" style="stroke:#181818;stroke-width:1;"/><polygon fill="#181818" points="251.7,720.9669,243.7451,715.16,246.8123,719.9132,242.0592,722.9803,251.7,720.9669" style="stroke:#181818;stroke-width:1;stroke-linejoin:miter;stroke-miterlimit:10;"/></g><!--link bi to UC2--><g class="link" data-entity-1="ent0003" data-entity-2="ent0012" data-link-type="dependency" data-source-line="45" id="lnk28"><path d="M85.95,1060.9469 C104.41,1044.8669 132.73,1022.5469 161.09,1009.2969 C186.96,997.2069 212.4357,989.9493 238.9557,984.4093" fill="none" id="bi-to-UC2" style="stroke:#181818;stroke-width:1;"/><polygon fill="#181818" points="243.85,983.3869,234.2222,981.3118,238.9557,984.4093,235.8581,989.1427,243.85,983.3869" style="stroke:#181818;stroke-width:1;stroke-linejoin:miter;stroke-miterlimit:10;"/></g><!--link bi to UC3--><g class="link" data-entity-1="ent0003" data-entity-2="ent0013" data-link-type="dependency" data-source-line="46" id="lnk29"><path d="M85.91,1077.2269 C120.88,1072.0869 187.7333,1062.2553 240.6333,1054.4653" fill="none" id="bi-to-UC3" style="stroke:#181818;stroke-width:1;"/><polygon fill="#181818" points="245.58,1053.7369,236.0933,1051.0907,240.6333,1054.4653,237.2588,1059.0054,245.58,1053.7369" style="stroke:#181818;stroke-width:1;stroke-linejoin:miter;stroke-miterlimit:10;"/></g><!--link bi to UC4--><g class="link" data-entity-1="ent0003" data-entity-2="ent0014" data-link-type="dependency" data-source-line="47" id="lnk30"><path d="M85.91,1083.3669 C119.73,1088.3369 183.0332,1097.6495 235.3332,1105.3395" fill="none" id="bi-to-UC4" style="stroke:#181818;stroke-width:1;"/><polygon fill="#181818" points="240.28,1106.0669,231.9576,1100.8002,235.3332,1105.3395,230.7939,1108.7151,240.28,1106.0669" style="stroke:#181818;stroke-width:1;stroke-linejoin:miter;stroke-miterlimit:10;"/></g><!--link bi to UC5--><g class="link" data-entity-1="ent0003" data-entity-2="ent0015" data-link-type="dependency" data-source-line="48" id="lnk31"><path d="M85.9,1099.9269 C104.33,1116.2469 132.63,1138.8869 161.09,1152.2969 C186.92,1164.4669 212.3852,1171.7466 238.9152,1177.2766" fill="none" id="bi-to-UC5" style="stroke:#181818;stroke-width:1;"/><polygon fill="#181818" points="243.81,1178.2969,235.8156,1172.5445,238.9152,1177.2766,234.1831,1180.3762,243.81,1178.2969" style="stroke:#181818;stroke-width:1;stroke-linejoin:miter;stroke-miterlimit:10;"/></g><!--link admin to UC6--><g class="link" data-entity-1="ent0002" data-entity-2="ent0017" data-link-type="dependency" data-source-line="50" id="lnk32"><path d="M122.43,855.2969 C155.21,855.2969 191.75,855.2969 227.39,855.2969" fill="none" id="admin-to-UC6" style="stroke:#181818;stroke-width:1;"/><polygon fill="#181818" points="232.39,855.2969,223.39,851.2969,227.39,855.2969,223.39,859.2969,232.39,855.2969" style="stroke:#181818;stroke-width:1;stroke-linejoin:miter;stroke-miterlimit:10;"/></g><!--link UC_SYNC to UC9A--><g class="link" data-entity-1="ent0008" data-entity-2="ent0019" data-link-type="dependency" data-source-line="52" id="lnk33"><path d="M358.73,494.1769 C402.46,508.3369 466.86,519.9569 507.5,485.2969 C524.62,470.6969 503.89,454.5769 515.5,435.2969 C531.7,408.3969 556.6675,390.1254 579.9875,376.8154" fill="none" id="UC_SYNC-to-UC9A" style="stroke:#181818;stroke-width:1;stroke-dasharray:7,7;"/><polygon fill="#181818" points="584.33,374.3369,574.5308,375.3242,579.9875,376.8154,578.4963,382.2721,584.33,374.3369" style="stroke:#181818;stroke-width:1;stroke-linejoin:miter;stroke-miterlimit:10;"/><text fill="#000000" font-family="sans-serif" font-size="13" lengthAdjust="spacing" textLength="63.0068" x="443.5" y="481.3638">&#171;include&#187;</text></g><!--link UC_SYNC to UC9B--><g class="link" data-entity-1="ent0008" data-entity-2="ent0020" data-link-type="dependency" data-source-line="53" id="lnk34"><path d="M383.06,467.0369 C432.14,459.7669 491.31,447.3269 507.5,428.2969 C522.95,410.1369 501.45,340.5569 515.5,321.2969 C525.22,307.9669 535.279,300.742 550.559,294.522" fill="none" id="UC_SYNC-to-UC9B" style="stroke:#181818;stroke-width:1;stroke-dasharray:7,7;"/><polygon fill="#181818" points="555.19,292.6369,545.3461,292.3253,550.559,294.522,548.3623,299.7349,555.19,292.6369" style="stroke:#181818;stroke-width:1;stroke-linejoin:miter;stroke-miterlimit:10;"/><text fill="#000000" font-family="sans-serif" font-size="13" lengthAdjust="spacing" textLength="63.0068" x="443.5" y="424.3638">&#171;include&#187;</text></g><!--link UC_SYNC to UC9C--><g class="link" data-entity-1="ent0008" data-entity-2="ent0021" data-link-type="dependency" data-source-line="54" id="lnk35"><path d="M351.1,454.7169 C407.9,424.9269 506.31,373.1369 507.5,371.2969 C523.62,346.1969 497.08,260.7669 515.5,237.2969 C527.06,222.5669 540.4342,215.6392 558.3942,211.2292" fill="none" id="UC_SYNC-to-UC9C" style="stroke:#181818;stroke-width:1;stroke-dasharray:7,7;"/><polygon fill="#181818" points="563.25,210.0369,553.5558,208.2984,558.3942,211.2292,555.4635,216.0676,563.25,210.0369" style="stroke:#181818;stroke-width:1;stroke-linejoin:miter;stroke-miterlimit:10;"/><text fill="#000000" font-family="sans-serif" font-size="13" lengthAdjust="spacing" textLength="63.0068" x="443.5" y="367.3638">&#171;include&#187;</text></g><!--link UC_SYNC to UC16--><g class="link" data-entity-1="ent0008" data-entity-2="ent0022" data-link-type="dependency" data-source-line="55" id="lnk36"><path d="M321.38,451.3569 C345.34,394.5369 413.33,250.5169 515.5,173.2969 C529.54,162.6769 542.2702,156.7545 558.8802,151.6545" fill="none" id="UC_SYNC-to-UC16" style="stroke:#181818;stroke-width:1;stroke-dasharray:7,7;"/><polygon fill="#181818" points="563.66,150.1869,553.8823,149.0047,558.8802,151.6545,556.2305,156.6524,563.66,150.1869" style="stroke:#181818;stroke-width:1;stroke-linejoin:miter;stroke-miterlimit:10;"/><text fill="#000000" font-family="sans-serif" font-size="13" lengthAdjust="spacing" textLength="63.0068" x="443.5" y="181.5738">&#171;include&#187;</text></g><!--link UC_DASH to UC_AUTH--><g class="link" data-entity-1="ent0007" data-entity-2="ent0006" data-link-type="dependency" data-source-line="56" id="lnk37"><path d="M411.69,554.4269 C442.6,552.0769 476.63,548.3169 507.5,542.2969 C531.61,537.5869 553.1314,531.1419 574.1114,523.9319" fill="none" id="UC_DASH-to-UC_AUTH" style="stroke:#181818;stroke-width:1;stroke-dasharray:7,7;"/><polygon fill="#181818" points="578.84,522.3069,569.0286,521.4491,574.1114,523.9319,571.6286,529.0148,578.84,522.3069" style="stroke:#181818;stroke-width:1;stroke-linejoin:miter;stroke-miterlimit:10;"/><text fill="#000000" font-family="sans-serif" font-size="13" lengthAdjust="spacing" textLength="63.0068" x="443.5" y="538.3638">&#171;include&#187;</text></g><?plantuml-src VLJjIXj15Fs_Jt7nbz9gyHCi4aXYfKAfrYJz047MTOrBuYJiRdv8AIInse8MFn3qHrlm0GhH9EqsQdo5cLVmINfciclCf6X0Pk-zvzvpxpqpUNlT9xz0hfFTy6dDSMtBTmhCy78EAvgkkKb5qygPMJlbR-LjacwJPVEsOVYE3qF6iobfujzT-GJUOi7r7PQbGNxAV_0pUaAyoHiyu3Uy9Ww87_6J8SCmBR_WqW0_b6P-nGDHHKXhW4oFJ6Rcjpp_GKo3Nwi4WQY8gYWZKPMtHRaJlRRfi2Xspc5sObxPLnt3kEUABESTDCXSyrgNvm1zD0oAMaJSCI8kXlajoWGWrkQ_OK1ftgJ1efdFEomtibvYGn98-2jvjYMx1rBi8Bn1_9QtQJ6UflHSIb7995VYcVHBBVm4RNpb5x8H2LBJMcQ3uhEiA_PbesBlAO5kKpMDyV1WA4eu6q_f2S_bZCGEGjkAy1yKs4NN1yjCVZsaa_hmEgcXV_6Mg4ZgA5kbPEejk7HNs0RL06GVKdZnVd5XATqtX0ecXOsrSK0qFKDrJ4NkkMkkHJaI2_6bMQJurBk4d-ZuYpZ2kcua0b_x9FVQF_AoNAZKrIMfzK8QOXirQc8dh37s68PVY6_W8_TSvyqGCQuXJY7HEiQoZP6sP1ijX4D58DSGUo5eGWEXXLuG2Ch2Lt8N8MQol_D-iGTgePUgN20vwaFu3jSjVX9KL-f3aIR_AzVUEnIa2IjFzLS-WtZazQYh2wQ4qv6CLk_T_9jNTBTxJ0dJjpP2uOPff-F_YKNXIt60CGHWr56KX6D2aQOYEKmdUk6PecUxU9nCBnT5wB8zn80RylaWRujPAsw9XP6ZdHRHPFYUqF1mxFugQZPrcpIRkYEQBPIyPks8s5XrGiDOzpZUFKvqZvCW9P-jy7FACC9wD38IKsEavpGpup0hNrgpOp7TdNZSdNpKFJhLxvRzXsur7otY7m00?></g></svg>