<svg xmlns="http://www.w3.org/2000/svg" xmlns:xlink="http://www.w3.org/1999/xlink" contentStyleType="text/css" data-diagram-type="DESCRIPTION" height="1391px" preserveAspectRatio="none" style="width:1392px;height:1391px;background:#FFFFFF;" version="1.1" viewBox="0 0 1392 1391" width="1392px" zoomAndPan="magnify"><?plantuml 1.2026.4?><defs/><g><g class="title" data-source-line="4"><text fill="#000000" font-family="sans-serif" font-size="14" font-weight="700" lengthAdjust="spacing" textLength="276.6914" x="554.5293" y="22.9951">Use Case &#8212; &#1077;&#1076;&#1080;&#1085;&#1072;&#1103; &#1089;&#1080;&#1089;&#1090;&#1077;&#1084;&#1072; &#1079;&#1072;&#1076;&#1072;&#1095;</text></g><!--cluster ??????? reporting--><g class="cluster" data-qualified-name="....... reporting" data-source-line="11" id="ent0005"><rect fill="none" height="1121" rx="2.5" ry="2.5" style="stroke:#181818;stroke-width:1;" width="1209.66" x="169.09" y="44.2969"/><text fill="#000000" font-family="sans-serif" font-size="14" font-weight="700" lengthAdjust="spacing" textLength="146.1797" x="700.8302" y="59.292">&#1057;&#1080;&#1089;&#1090;&#1077;&#1084;&#1072; reporting</text></g><!--cluster ??????????--><g class="cluster" data-qualified-name="....... reporting..........." data-source-line="13" id="ent0006"><rect fill="none" height="387" rx="2.5" ry="2.5" style="stroke:#181818;stroke-width:1;" width="221.9" x="202.81" y="87.2969"/><text fill="#000000" font-family="sans-serif" font-size="14" font-weight="700" lengthAdjust="spacing" textLength="91.793" x="267.8635" y="102.292">&#1054;&#1090;&#1095;&#1105;&#1090;&#1085;&#1086;&#1089;&#1090;&#1100;</text></g><!--cluster ?????????????????--><g class="cluster" data-qualified-name="....... reporting.................." data-source-line="21" id="ent0012"><rect fill="none" height="174" rx="2.5" ry="2.5" style="stroke:#181818;stroke-width:1;" width="241.33" x="193.09" y="498.2969"/><text fill="#000000" font-family="sans-serif" font-size="14" font-weight="700" lengthAdjust="spacing" textLength="166.0449" x="230.7325" y="513.292">&#1040;&#1076;&#1084;&#1080;&#1085;&#1080;&#1089;&#1090;&#1088;&#1080;&#1088;&#1086;&#1074;&#1072;&#1085;&#1080;&#1077;</text></g><!--cluster ??????????--><g class="cluster" data-qualified-name="....... reporting..........." data-source-line="26" id="ent0015"><rect fill="none" height="445" rx="2.5" ry="2.5" style="stroke:#181818;stroke-width:1;" width="1152.46" x="202.29" y="696.2969"/><text fill="#000000" font-family="sans-serif" font-size="14" font-weight="700" lengthAdjust="spacing" textLength="94.958" x="731.041" y="711.292">&#1048;&#1085;&#1090;&#1077;&#1075;&#1088;&#1072;&#1094;&#1080;&#1103;</text></g><!--entity UC1--><g class="entity" data-qualified-name="....... reporting............UC1" data-source-line="14" id="ent0007"><ellipse cx="313.7597" cy="433.2933" fill="#F1F1F1" rx="94.9497" ry="25.2264" style="stroke:#181818;stroke-width:0.5;"/><text fill="#000000" font-family="sans-serif" font-size="14" lengthAdjust="spacing" textLength="134.8389" x="246.3403" y="430.9764">&#1054;&#1090;&#1095;&#1105;&#1090;&#1099;: &#1089;&#1076;&#1077;&#1083;&#1072;&#1085;&#1086; /</text><text fill="#000000" font-family="sans-serif" font-size="14" lengthAdjust="spacing" textLength="113.5859" x="256.9667" y="447.2733">&#1074; &#1088;&#1072;&#1073;&#1086;&#1090;&#1077; / &#1087;&#1083;&#1072;&#1085;</text></g><!--entity UC2--><g class="entity" data-qualified-name="....... reporting............UC2" data-source-line="15" id="ent0008"><ellipse cx="313.7618" cy="355.2972" fill="#F1F1F1" rx="79.1518" ry="18.2304" style="stroke:#181818;stroke-width:0.5;"/><text fill="#000000" font-family="sans-serif" font-size="14" lengthAdjust="spacing" textLength="128.6729" x="249.4254" y="359.9457">&#1042;&#1088;&#1077;&#1084;&#1103; &#1074; &#1089;&#1090;&#1072;&#1090;&#1091;&#1089;&#1072;&#1093;</text></g><!--entity UC3--><g class="entity" data-qualified-name="....... reporting............UC3" data-source-line="16" id="ent0009"><ellipse cx="313.755" cy="211.2959" fill="#F1F1F1" rx="76.145" ry="17.629" style="stroke:#181818;stroke-width:0.5;"/><text fill="#000000" font-family="sans-serif" font-size="14" lengthAdjust="spacing" textLength="121.4951" x="253.0074" y="215.9443">&#1042;&#1088;&#1077;&#1084;&#1103; &#1074; &#1073;&#1101;&#1082;&#1083;&#1086;&#1075;&#1077;</text></g><!--entity UC4--><g class="entity" data-qualified-name="....... reporting............UC4" data-source-line="17" id="ent0010"><ellipse cx="313.7566" cy="283.2922" fill="#F1F1F1" rx="82.7266" ry="18.9453" style="stroke:#181818;stroke-width:0.5;"/><text fill="#000000" font-family="sans-serif" font-size="14" lengthAdjust="spacing" textLength="137.0605" x="245.2263" y="287.9406">&#1047;&#1072;&#1075;&#1088;&#1091;&#1079;&#1082;&#1072; &#1082;&#1086;&#1084;&#1072;&#1085;&#1076;&#1099;</text></g><!--entity UC5--><g class="entity" data-qualified-name="....... reporting............UC5" data-source-line="18" id="ent0011"><ellipse cx="313.7646" cy="140.2978" fill="#F1F1F1" rx="79.0046" ry="18.2009" style="stroke:#181818;stroke-width:0.5;"/><text fill="#000000" font-family="sans-serif" font-size="14" lengthAdjust="spacing" textLength="128.3242" x="249.6025" y="144.9462">&#1054;&#1090;&#1075;&#1088;&#1091;&#1079;&#1082;&#1072; &#1074; &#1088;&#1077;&#1083;&#1080;&#1079;</text></g><!--entity UC6--><g class="entity" data-qualified-name="....... reporting...................UC6" data-source-line="22" id="ent0013"><ellipse cx="313.7607" cy="631.2955" fill="#F1F1F1" rx="104.6607" ry="24.8086" style="stroke:#181818;stroke-width:0.5;"/><text fill="#000000" font-family="sans-serif" font-size="14" lengthAdjust="spacing" textLength="113.4014" x="257.06" y="625.9909">&#1052;&#1072;&#1087;&#1087;&#1080;&#1085;&#1075; &#1087;&#1086;&#1083;&#1077;&#1081;</text><text fill="#000000" font-family="sans-serif" font-size="14" lengthAdjust="spacing" textLength="151.9355" x="237.7929" y="642.2878">(Jira/TFS/Trello/Other)</text></g><!--entity UC7--><g class="entity" data-qualified-name="....... reporting...................UC7" data-source-line="23" id="ent0014"><ellipse cx="313.7595" cy="552.2948" fill="#F1F1F1" rx="81.5895" ry="18.7179" style="stroke:#181818;stroke-width:0.5;"/><text fill="#000000" font-family="sans-serif" font-size="14" lengthAdjust="spacing" textLength="134.4082" x="246.5554" y="556.9432">&#1052;&#1072;&#1087;&#1087;&#1080;&#1085;&#1075; &#1089;&#1090;&#1072;&#1090;&#1091;&#1089;&#1086;&#1074;</text></g><!--entity UC8--><g class="entity" data-qualified-name="....... reporting............UC8" data-source-line="27" id="ent0016"><ellipse cx="313.7596" cy="779.2988" fill="#F1F1F1" rx="73.2096" ry="17.0419" style="stroke:#181818;stroke-width:0.5;"/><text fill="#000000" font-family="sans-serif" font-size="14" lengthAdjust="spacing" textLength="114.3584" x="256.5804" y="783.9472">&#1047;&#1072;&#1075;&#1088;&#1091;&#1079;&#1082;&#1072; &#1080;&#1079; Jira</text></g><!--entity UC9--><g class="entity" data-qualified-name="....... reporting............UC9" data-source-line="28" id="ent0017"><ellipse cx="313.7631" cy="848.2955" fill="#F1F1F1" rx="74.4931" ry="17.2986" style="stroke:#181818;stroke-width:0.5;"/><text fill="#000000" font-family="sans-serif" font-size="14" lengthAdjust="spacing" textLength="117.4961" x="255.015" y="852.9439">&#1047;&#1072;&#1075;&#1088;&#1091;&#1079;&#1082;&#1072; &#1080;&#1079; TFS</text></g><!--entity UC10--><g class="entity" data-qualified-name="....... reporting............UC10" data-source-line="29" id="ent0018"><ellipse cx="313.7623" cy="919.2973" fill="#F1F1F1" rx="80.2523" ry="18.4505" style="stroke:#181818;stroke-width:0.5;"/><text fill="#000000" font-family="sans-serif" font-size="14" lengthAdjust="spacing" textLength="131.2705" x="248.127" y="923.9458">&#1047;&#1072;&#1075;&#1088;&#1091;&#1079;&#1082;&#1072; &#1080;&#1079; Trello</text></g><!--entity UC11--><g class="entity" data-qualified-name="....... reporting............UC11" data-source-line="30" id="ent0019"><ellipse cx="313.7622" cy="996.2993" fill="#F1F1F1" rx="95.4622" ry="23.8425" style="stroke:#181818;stroke-width:0.5;"/><text fill="#000000" font-family="sans-serif" font-size="14" lengthAdjust="spacing" textLength="144.5938" x="241.4653" y="996.1031">&#1047;&#1072;&#1075;&#1088;&#1091;&#1079;&#1082;&#1072; &#1080;&#1079; &#1087;&#1088;&#1086;&#1095;&#1077;&#1081;</text><text fill="#000000" font-family="sans-serif" font-size="14" lengthAdjust="spacing" textLength="62.877" x="282.3237" y="1012.4">&#1089;&#1080;&#1089;&#1090;&#1077;&#1084;&#1099;</text></g><!--entity UC12--><g class="entity" data-qualified-name="....... reporting............UC12" data-source-line="31" id="ent0020"><ellipse cx="628.5131" cy="891.2994" fill="#F1F1F1" rx="83.0931" ry="25.6826" style="stroke:#181818;stroke-width:0.5;"/><text fill="#000000" font-family="sans-serif" font-size="14" lengthAdjust="spacing" textLength="115.0898" x="570.9681" y="888.3194">&#1057;&#1080;&#1085;&#1093;&#1088;&#1086;&#1085;&#1080;&#1079;&#1072;&#1094;&#1080;&#1103;</text><text fill="#000000" font-family="sans-serif" font-size="14" lengthAdjust="spacing" textLength="107.4951" x="574.7655" y="904.6163">&#1082;&#1086;&#1084;&#1084;&#1077;&#1085;&#1090;&#1072;&#1088;&#1080;&#1077;&#1074;</text></g><!--entity UC13--><g class="entity" data-qualified-name="....... reporting............UC13" data-source-line="32" id="ent0021"><ellipse cx="628.5067" cy="1062.2972" fill="#F1F1F1" rx="76.4567" ry="24.2203" style="stroke:#181818;stroke-width:0.5;"/><text fill="#000000" font-family="sans-serif" font-size="14" lengthAdjust="spacing" textLength="112.8271" x="572.0931" y="1061.5031">&#1048;&#1089;&#1090;&#1086;&#1088;&#1080;&#1103; &#1089;&#1084;&#1077;&#1085;&#1099;</text><text fill="#000000" font-family="sans-serif" font-size="14" lengthAdjust="spacing" textLength="65.3857" x="595.8138" y="1077.8">&#1089;&#1090;&#1072;&#1090;&#1091;&#1089;&#1086;&#1074;</text></g><!--entity UC14--><g class="entity" data-qualified-name="....... reporting............UC14" data-source-line="33" id="ent0022"><ellipse cx="941.6684" cy="1090.2964" fill="#F1F1F1" rx="105.0684" ry="23.9795" style="stroke:#181818;stroke-width:0.5;"/><text fill="#000000" font-family="sans-serif" font-size="14" lengthAdjust="spacing" textLength="158.5732" x="862.3818" y="1089.8814">&#1056;&#1072;&#1089;&#1095;&#1105;&#1090; &#1076;&#1083;&#1080;&#1090;&#1077;&#1083;&#1100;&#1085;&#1086;&#1089;&#1090;&#1080;</text><text fill="#000000" font-family="sans-serif" font-size="14" lengthAdjust="spacing" textLength="78.1348" x="902.601" y="1106.1783">&#1074; &#1089;&#1090;&#1072;&#1090;&#1091;&#1089;&#1072;&#1093;</text></g><!--entity UC15--><g class="entity" data-qualified-name="....... reporting............UC15" data-source-line="34" id="ent0023"><ellipse cx="1254.2469" cy="1096.2971" fill="#F1F1F1" rx="84.5069" ry="24.0602" style="stroke:#181818;stroke-width:0.5;"/><text fill="#000000" font-family="sans-serif" font-size="14" lengthAdjust="spacing" textLength="126.1436" x="1191.1751" y="1095.7544">&#1057;&#1085;&#1080;&#1084;&#1082;&#1080; &#1079;&#1072;&#1075;&#1088;&#1091;&#1079;&#1082;&#1080;</text><text fill="#000000" font-family="sans-serif" font-size="14" lengthAdjust="spacing" textLength="66.0488" x="1221.2224" y="1112.0512">&#1082;&#1086;&#1084;&#1072;&#1085;&#1076;&#1099;</text></g><!--entity UC16--><g class="entity" data-qualified-name="....... reporting............UC16" data-source-line="35" id="ent0024"><ellipse cx="313.757" cy="1076.2943" fill="#F1F1F1" rx="94.087" ry="21.2174" style="stroke:#181818;stroke-width:0.5;"/><text fill="#000000" font-family="sans-serif" font-size="14" lengthAdjust="spacing" textLength="162.9346" x="232.2897" y="1080.9427">&#1040;&#1091;&#1076;&#1080;&#1090; &#1089;&#1080;&#1085;&#1093;&#1088;&#1086;&#1085;&#1080;&#1079;&#1072;&#1094;&#1080;&#1081;</text></g><!--entity analyst--><g class="entity" data-qualified-name="analyst" data-source-line="6" id="ent0001"><ellipse cx="64.0432" cy="318.6469" fill="#F1F1F1" rx="8" ry="8" style="stroke:#181818;stroke-width:0.5;"/><path d="M64.0432,326.6469 L64.0432,353.6469 M51.0432,334.6469 L77.0432,334.6469 M64.0432,353.6469 L51.0432,368.6469 M64.0432,353.6469 L77.0432,368.6469" fill="none" style="stroke:#181818;stroke-width:0.5;"/><text fill="#000000" font-family="sans-serif" font-size="14" lengthAdjust="spacing" textLength="71.0664" x="28.51" y="383.142">&#1040;&#1085;&#1072;&#1083;&#1080;&#1090;&#1080;&#1082;</text></g><!--entity admin--><g class="entity" data-qualified-name="admin" data-source-line="7" id="ent0002"><ellipse cx="64.0474" cy="552.6469" fill="#F1F1F1" rx="8" ry="8" style="stroke:#181818;stroke-width:0.5;"/><path d="M64.0474,560.6469 L64.0474,587.6469 M51.0474,568.6469 L77.0474,568.6469 M64.0474,587.6469 L51.0474,602.6469 M64.0474,587.6469 L77.0474,602.6469" fill="none" style="stroke:#181818;stroke-width:0.5;"/><text fill="#000000" font-family="sans-serif" font-size="14" lengthAdjust="spacing" textLength="116.0947" x="6" y="617.142">&#1040;&#1076;&#1084;&#1080;&#1085;&#1080;&#1089;&#1090;&#1088;&#1072;&#1090;&#1086;&#1088;</text></g><!--entity etl--><g class="entity" data-qualified-name="etl" data-source-line="8" id="ent0003"><ellipse cx="64.0466" cy="1046.6469" fill="#F1F1F1" rx="8" ry="8" style="stroke:#181818;stroke-width:0.5;"/><path d="M64.0466,1054.6469 L64.0466,1081.6469 M51.0466,1062.6469 L77.0466,1062.6469 M64.0466,1081.6469 L51.0466,1096.6469 M64.0466,1081.6469 L77.0466,1096.6469" fill="none" style="stroke:#181818;stroke-width:0.5;"/><text fill="#000000" font-family="sans-serif" font-size="14" lengthAdjust="spacing" textLength="80.4932" x="23.8" y="1111.142">ETL-&#1089;&#1077;&#1088;&#1074;&#1080;&#1089;</text></g><!--entity bi--><g class="entity" data-qualified-name="bi" data-source-line="9" id="ent0004"><ellipse cx="64.0511" cy="195.6469" fill="#F1F1F1" rx="8" ry="8" style="stroke:#181818;stroke-width:0.5;"/><path d="M64.0511,203.6469 L64.0511,230.6469 M51.0511,211.6469 L77.0511,211.6469 M64.0511,230.6469 L51.0511,245.6469 M64.0511,230.6469 L77.0511,245.6469" fill="none" style="stroke:#181818;stroke-width:0.5;"/><text fill="#000000" font-family="sans-serif" font-size="14" lengthAdjust="spacing" textLength="43.1621" x="42.47" y="260.142">FineBI</text></g><!--link analyst to UC1--><g class="link" data-entity-1="ent0001" data-entity-2="ent0007" data-link-type="dependency" data-source-line="39" id="lnk25"><path d="M99.65,365.3169 C117.7,373.7969 140.3,383.8069 161.09,391.2969 C187.31,400.7369 211.8897,408.0253 237.7697,414.9453" fill="none" id="analyst-to-UC1" style="stroke:#181818;stroke-width:1;"/><polygon fill="#181818" points="242.6,416.2369,234.9387,410.0478,237.7697,414.9453,232.8722,417.7763,242.6,416.2369" style="stroke:#181818;stroke-width:1;stroke-linejoin:miter;stroke-miterlimit:10;"/></g><!--link analyst to UC2--><g class="link" data-entity-1="ent0001" data-entity-2="ent0008" data-link-type="dependency" data-source-line="40" id="lnk26"><path d="M99.68,361.1569 C115.43,366.3469 134.46,371.7169 152.09,374.2969 C187.53,379.4769 222.6104,375.7336 253.8304,369.7136" fill="none" id="analyst-to-UC2" style="stroke:#181818;stroke-width:1;"/><polygon fill="#181818" points="258.74,368.7669,249.1454,366.5433,253.8304,369.7136,250.6601,374.3986,258.74,368.7669" style="stroke:#181818;stroke-width:1;stroke-linejoin:miter;stroke-miterlimit:10;"/></g><!--link analyst to UC3--><g class="link" data-entity-1="ent0001" data-entity-2="ent0009" data-link-type="dependency" data-source-line="41" id="lnk27"><path d="M97.53,309.8069 C119.26,284.9469 146.46,255.7069 161.09,247.2969 C186.31,232.7969 212.1881,225.0616 239.4081,219.8816" fill="none" id="analyst-to-UC3" style="stroke:#181818;stroke-width:1;"/><polygon fill="#181818" points="244.32,218.9469,234.7309,216.6999,239.4081,219.8816,236.2265,224.5589,244.32,218.9469" style="stroke:#181818;stroke-width:1;stroke-linejoin:miter;stroke-miterlimit:10;"/></g><!--link analyst to UC4--><g class="link" data-entity-1="ent0001" data-entity-2="ent0010" data-link-type="dependency" data-source-line="42" id="lnk28"><path d="M100.03,337.1869 C118.17,331.5569 140.74,324.7769 161.09,319.2969 C191.27,311.1669 220.2181,304.1714 248.2481,297.7014" fill="none" id="analyst-to-UC4" style="stroke:#181818;stroke-width:1;"/><polygon fill="#181818" points="253.12,296.5769,243.4509,294.7035,248.2481,297.7014,245.2502,302.4986,253.12,296.5769" style="stroke:#181818;stroke-width:1;stroke-linejoin:miter;stroke-miterlimit:10;"/></g><!--link analyst to UC5--><g class="link" data-entity-1="ent0001" data-entity-2="ent0011" data-link-type="dependency" data-source-line="43" id="lnk29"><path d="M99.8,312.1369 C107.82,302.5969 115.83,291.9669 122.09,281.2969 C147.28,238.3569 123.8,209.2769 161.09,176.2969 C181.67,158.0969 204.8488,149.5613 231.2788,144.8113" fill="none" id="analyst-to-UC5" style="stroke:#181818;stroke-width:1;"/><polygon fill="#181818" points="236.2,143.9269,226.6344,141.5819,231.2788,144.8113,228.0495,149.4558,236.2,143.9269" style="stroke:#181818;stroke-width:1;stroke-linejoin:miter;stroke-miterlimit:10;"/></g><!--link bi to UC1--><g class="link" data-entity-1="ent0004" data-entity-2="ent0007" data-link-type="dependency" data-source-line="45" id="lnk30"><path d="M86.03,246.2169 C97.77,258.7769 112.04,275.5269 122.09,292.2969 C146.42,332.8469 125.94,359.6569 161.09,391.2969 C178.96,407.3769 197.6397,416.0753 220.7897,422.2653" fill="none" id="bi-to-UC1" style="stroke:#181818;stroke-width:1;"/><polygon fill="#181818" points="225.62,423.5569,217.9587,417.3678,220.7897,422.2653,215.8922,425.0963,225.62,423.5569" style="stroke:#181818;stroke-width:1;stroke-linejoin:miter;stroke-miterlimit:10;"/></g><!--link bi to UC2--><g class="link" data-entity-1="ent0004" data-entity-2="ent0008" data-link-type="dependency" data-source-line="46" id="lnk31"><path d="M86.12,252.9069 C103.85,274.1969 131.06,302.7369 161.09,319.2969 C186.1,333.0769 211.3439,340.6525 238.1539,345.9225" fill="none" id="bi-to-UC2" style="stroke:#181818;stroke-width:1;"/><polygon fill="#181818" points="243.06,346.8869,235.0005,341.2261,238.1539,345.9225,233.4575,349.0759,243.06,346.8869" style="stroke:#181818;stroke-width:1;stroke-linejoin:miter;stroke-miterlimit:10;"/></g><!--link bi to UC3--><g class="link" data-entity-1="ent0004" data-entity-2="ent0009" data-link-type="dependency" data-source-line="47" id="lnk32"><path d="M86.12,217.1169 C103.51,210.8369 129,202.6769 152.09,199.2969 C185.03,194.4869 217.0989,196.1143 247.2989,199.9043" fill="none" id="bi-to-UC3" style="stroke:#181818;stroke-width:1;"/><polygon fill="#181818" points="252.26,200.5269,243.8281,195.4373,247.2989,199.9043,242.832,203.3751,252.26,200.5269" style="stroke:#181818;stroke-width:1;stroke-linejoin:miter;stroke-miterlimit:10;"/></g><!--link bi to UC4--><g class="link" data-entity-1="ent0004" data-entity-2="ent0010" data-link-type="dependency" data-source-line="48" id="lnk33"><path d="M85.74,230.1469 C122.48,238.7469 195.4817,255.8368 249.7117,268.5368" fill="none" id="bi-to-UC4" style="stroke:#181818;stroke-width:1;"/><polygon fill="#181818" points="254.58,269.6769,246.7292,263.7301,249.7117,268.5368,244.905,271.5193,254.58,269.6769" style="stroke:#181818;stroke-width:1;stroke-linejoin:miter;stroke-miterlimit:10;"/></g><!--link bi to UC5--><g class="link" data-entity-1="ent0004" data-entity-2="ent0011" data-link-type="dependency" data-source-line="49" id="lnk34"><path d="M85.83,210.1369 C102.85,198.4269 127.97,182.6669 152.09,173.2969 C181.29,161.9569 210.1349,155.129 239.1549,150.049" fill="none" id="bi-to-UC5" style="stroke:#181818;stroke-width:1;"/><polygon fill="#181818" points="244.08,149.1869,234.5251,146.7987,239.1549,150.049,235.9045,154.6788,244.08,149.1869" style="stroke:#181818;stroke-width:1;stroke-linejoin:miter;stroke-miterlimit:10;"/></g><!--link admin to UC6--><g class="link" data-entity-1="ent0002" data-entity-2="ent0013" data-link-type="dependency" data-source-line="51" id="lnk35"><path d="M122.5,593.6569 C155.09,600.1069 191.4751,607.3063 227.2551,614.3863" fill="none" id="admin-to-UC6" style="stroke:#181818;stroke-width:1;"/><polygon fill="#181818" points="232.16,615.3569,224.1076,609.6859,227.2551,614.3863,222.5547,617.5338,232.16,615.3569" style="stroke:#181818;stroke-width:1;stroke-linejoin:miter;stroke-miterlimit:10;"/></g><!--link admin to UC7--><g class="link" data-entity-1="ent0002" data-entity-2="ent0014" data-link-type="dependency" data-source-line="52" id="lnk36"><path d="M122.5,575.3369 C157.8,571.0669 198.3563,566.1479 236.0163,561.5879" fill="none" id="admin-to-UC7" style="stroke:#181818;stroke-width:1;"/><polygon fill="#181818" points="240.98,560.9869,231.5644,558.0977,236.0163,561.5879,232.5261,566.0397,240.98,560.9869" style="stroke:#181818;stroke-width:1;stroke-linejoin:miter;stroke-miterlimit:10;"/></g><!--link etl to UC8--><g class="link" data-entity-1="ent0003" data-entity-2="ent0016" data-link-type="dependency" data-source-line="54" id="lnk37"><path d="M67.82,1037.7069 C74.12,979.9769 94.62,871.6669 161.09,813.2969 C182.79,794.2469 207.8939,785.9088 235.5339,781.8188" fill="none" id="etl-to-UC8" style="stroke:#181818;stroke-width:1;"/><polygon fill="#181818" points="240.48,781.0869,230.9914,778.4474,235.5339,781.8188,232.1625,786.3612,240.48,781.0869" style="stroke:#181818;stroke-width:1;stroke-linejoin:miter;stroke-miterlimit:10;"/></g><!--link etl to UC9--><g class="link" data-entity-1="ent0003" data-entity-2="ent0017" data-link-type="dependency" data-source-line="55" id="lnk38"><path d="M73.69,1037.7569 C85.64,993.6069 111.58,922.3569 161.09,883.2969 C183.58,865.5569 208.517,857.3224 235.797,852.8124" fill="none" id="etl-to-UC9" style="stroke:#181818;stroke-width:1;"/><polygon fill="#181818" points="240.73,851.9969,231.1981,849.5184,235.797,852.8124,232.503,857.4113,240.73,851.9969" style="stroke:#181818;stroke-width:1;stroke-linejoin:miter;stroke-miterlimit:10;"/></g><!--link etl to UC10--><g class="link" data-entity-1="ent0003" data-entity-2="ent0018" data-link-type="dependency" data-source-line="56" id="lnk39"><path d="M86.11,1037.8469 C102.92,1010.7269 128.96,975.7369 161.09,955.2969 C184.39,940.4869 208.283,932.7166 234.513,927.5866" fill="none" id="etl-to-UC10" style="stroke:#181818;stroke-width:1;"/><polygon fill="#181818" points="239.42,926.6269,229.8196,924.4287,234.513,927.5866,231.3551,932.28,239.42,926.6269" style="stroke:#181818;stroke-width:1;stroke-linejoin:miter;stroke-miterlimit:10;"/></g><!--link etl to UC11--><g class="link" data-entity-1="ent0003" data-entity-2="ent0019" data-link-type="dependency" data-source-line="57" id="lnk40"><path d="M104.36,1059.0669 C121.59,1051.8569 142.16,1043.6769 161.09,1037.2969 C187.98,1028.2469 213.2127,1021.042 239.4427,1014.182" fill="none" id="etl-to-UC11" style="stroke:#181818;stroke-width:1;"/><polygon fill="#181818" points="244.28,1012.9169,234.5608,1011.3242,239.4427,1014.182,236.5849,1019.0639,244.28,1012.9169" style="stroke:#181818;stroke-width:1;stroke-linejoin:miter;stroke-miterlimit:10;"/></g><!--link etl to UC12--><g class="link" data-entity-1="ent0003" data-entity-2="ent0020" data-link-type="dependency" data-source-line="58" id="lnk41"><path d="M104.68,1096.0269 C189.36,1135.0669 390.41,1210.7569 515.42,1118.2969 C552.04,1091.2069 526.35,1061.6669 545.42,1020.2969 C563.08,981.9669 587.5381,945.5371 605.7581,920.3671" fill="none" id="etl-to-UC12" style="stroke:#181818;stroke-width:1;"/><polygon fill="#181818" points="608.69,916.3169,600.1725,921.2618,605.7581,920.3671,606.6528,925.9527,608.69,916.3169" style="stroke:#181818;stroke-width:1;stroke-linejoin:miter;stroke-miterlimit:10;"/></g><!--link etl to UC13--><g class="link" data-entity-1="ent0003" data-entity-2="ent0021" data-link-type="dependency" data-source-line="59" id="lnk42"><path d="M86.9,1114.8369 C102,1137.3169 124.34,1163.6569 152.09,1176.2969 C299.05,1243.2069 366.49,1238.7169 515.42,1176.2969 C558.93,1158.0569 591.2917,1117.9105 609.9917,1090.2205" fill="none" id="etl-to-UC13" style="stroke:#181818;stroke-width:1;"/><polygon fill="#181818" points="612.79,1086.0769,604.4382,1091.2967,609.9917,1090.2205,611.0679,1095.774,612.79,1086.0769" style="stroke:#181818;stroke-width:1;stroke-linejoin:miter;stroke-miterlimit:10;"/></g><!--link etl to UC14--><g class="link" data-entity-1="ent0003" data-entity-2="ent0022" data-link-type="dependency" data-source-line="60" id="lnk43"><path d="M76.37,1114.7169 C89.8,1152.5269 116.22,1208.1469 161.09,1233.2969 C417.06,1376.7669 783.228,1184.5349 899.828,1115.4749" fill="none" id="etl-to-UC14" style="stroke:#181818;stroke-width:1;"/><polygon fill="#181818" points="904.13,1112.9269,894.3479,1114.0717,899.828,1115.4749,898.4247,1120.9549,904.13,1112.9269" style="stroke:#181818;stroke-width:1;stroke-linejoin:miter;stroke-miterlimit:10;"/></g><!--link etl to UC15--><g class="link" data-entity-1="ent0003" data-entity-2="ent0023" data-link-type="dependency" data-source-line="61" id="lnk44"><path d="M73.42,1114.9369 C85.45,1162.1869 111.81,1242.0469 161.09,1292.2969 C213.21,1345.4369 238.33,1363.2969 312.76,1363.2969 C312.76,1363.2969 312.76,1363.2969 942.67,1363.2969 C1090.93,1363.2969 1201.2597,1190.5509 1238.0097,1124.8309" fill="none" id="etl-to-UC15" style="stroke:#181818;stroke-width:1;"/><polygon fill="#181818" points="1240.45,1120.4669,1232.5662,1126.3699,1238.0097,1124.8309,1239.5486,1130.2744,1240.45,1120.4669" style="stroke:#181818;stroke-width:1;stroke-linejoin:miter;stroke-miterlimit:10;"/></g><!--link etl to UC16--><g class="link" data-entity-1="ent0003" data-entity-2="ent0024" data-link-type="dependency" data-source-line="62" id="lnk45"><path d="M104.57,1076.2969 C135.44,1076.2969 174.62,1076.2969 214.35,1076.2969" fill="none" id="etl-to-UC16" style="stroke:#181818;stroke-width:1;"/><polygon fill="#181818" points="219.35,1076.2969,210.35,1072.2969,214.35,1076.2969,210.35,1080.2969,219.35,1076.2969" style="stroke:#181818;stroke-width:1;stroke-linejoin:miter;stroke-miterlimit:10;"/></g><!--link UC8 to UC13--><g class="link" data-entity-1="ent0016" data-entity-2="ent0021" data-link-type="dependency" data-source-line="64" id="lnk46"><path d="M369.37,790.6669 C421.67,802.6369 495.48,822.7069 515.42,844.2969 C544.02,875.2769 527.23,896.2569 545.42,934.2969 C563.75,972.6469 588.5572,1009.3374 606.6272,1034.2874" fill="none" id="UC8-to-UC13" style="stroke:#181818;stroke-width:1;stroke-dasharray:7,7;"/><polygon fill="#181818" points="609.56,1038.3369,607.5205,1028.7015,606.6272,1034.2874,601.0413,1033.3941,609.56,1038.3369" style="stroke:#181818;stroke-width:1;stroke-linejoin:miter;stroke-miterlimit:10;"/><text fill="#000000" font-family="sans-serif" font-size="13" lengthAdjust="spacing" textLength="63.0068" x="451.42" y="809.3638">&#171;include&#187;</text></g><!--link UC9 to UC13--><g class="link" data-entity-1="ent0017" data-entity-2="ent0021" data-link-type="dependency" data-source-line="65" id="lnk47"><path d="M386.17,852.8469 C407.16,857.7469 428.26,866.8269 442.42,883.2969 C462.26,906.3669 434.15,925.5769 450.42,951.2969 C479.42,997.1469 530.3243,1025.3746 571.5043,1042.5246" fill="none" id="UC9-to-UC13" style="stroke:#181818;stroke-width:1;stroke-dasharray:7,7;"/><polygon fill="#181818" points="576.12,1044.4469,569.3495,1037.2942,571.5043,1042.5246,566.2739,1044.6793,576.12,1044.4469" style="stroke:#181818;stroke-width:1;stroke-linejoin:miter;stroke-miterlimit:10;"/><text fill="#000000" font-family="sans-serif" font-size="13" lengthAdjust="spacing" textLength="63.0068" x="451.42" y="947.3638">&#171;include&#187;</text></g><!--link UC10 to UC13--><g class="link" data-entity-1="ent0018" data-entity-2="ent0021" data-link-type="dependency" data-source-line="66" id="lnk48"><path d="M390.06,925.2069 C409.82,930.4469 429.26,939.5869 442.42,955.2969 C454.03,969.1669 437.93,1023.2069 450.42,1036.2969 C477.12,1064.2969 514.7301,1071.245 551.4701,1070.965" fill="none" id="UC10-to-UC13" style="stroke:#181818;stroke-width:1;stroke-dasharray:7,7;"/><polygon fill="#181818" points="556.47,1070.9269,547.4398,1066.9956,551.4701,1070.965,547.5007,1074.9953,556.47,1070.9269" style="stroke:#181818;stroke-width:1;stroke-linejoin:miter;stroke-miterlimit:10;"/><text fill="#000000" font-family="sans-serif" font-size="13" lengthAdjust="spacing" textLength="63.0068" x="451.42" y="1032.3638">&#171;include&#187;</text></g><!--link UC11 to UC13--><g class="link" data-entity-1="ent0019" data-entity-2="ent0021" data-link-type="dependency" data-source-line="67" id="lnk49"><path d="M397.43,1008.1869 C414.49,1014.3169 430.78,1023.5069 442.42,1037.2969 C458.63,1056.5069 431.42,1076.8269 450.42,1093.2969 C489.44,1127.1469 547.5806,1106.5672 586.9506,1086.1672" fill="none" id="UC11-to-UC13" style="stroke:#181818;stroke-width:1;stroke-dasharray:7,7;"/><polygon fill="#181818" points="591.39,1083.8669,581.5588,1084.4559,586.9506,1086.1672,585.2393,1091.559,591.39,1083.8669" style="stroke:#181818;stroke-width:1;stroke-linejoin:miter;stroke-miterlimit:10;"/><text fill="#000000" font-family="sans-serif" font-size="13" lengthAdjust="spacing" textLength="63.0068" x="451.42" y="1089.3638">&#171;include&#187;</text></g><!--link UC8 to UC12--><g class="link" data-entity-1="ent0016" data-entity-2="ent0020" data-link-type="dependency" data-source-line="69" id="lnk50"><path d="M378.19,770.8269 C418.92,768.0069 472.11,769.2969 515.42,787.2969 C555.13,803.8069 586.3706,837.1434 606.2306,862.2834" fill="none" id="UC8-to-UC12" style="stroke:#181818;stroke-width:1;stroke-dasharray:7,7;"/><polygon fill="#181818" points="609.33,866.2069,606.8898,856.6651,606.2306,862.2834,600.6123,861.6242,609.33,866.2069" style="stroke:#181818;stroke-width:1;stroke-linejoin:miter;stroke-miterlimit:10;"/><text fill="#000000" font-family="sans-serif" font-size="13" lengthAdjust="spacing" textLength="63.0068" x="451.42" y="767.9538">&#171;include&#187;</text></g><!--link UC9 to UC12--><g class="link" data-entity-1="ent0017" data-entity-2="ent0020" data-link-type="dependency" data-source-line="70" id="lnk51"><path d="M378.8,857.1069 C429.02,864.0069 494.0766,872.9558 547.0266,880.2358" fill="none" id="UC9-to-UC12" style="stroke:#181818;stroke-width:1;stroke-dasharray:7,7;"/><polygon fill="#181818" points="551.98,880.9169,543.6087,875.7283,547.0266,880.2358,542.519,883.6537,551.98,880.9169" style="stroke:#181818;stroke-width:1;stroke-linejoin:miter;stroke-miterlimit:10;"/><text fill="#000000" font-family="sans-serif" font-size="13" lengthAdjust="spacing" textLength="63.0068" x="451.42" y="863.2938">&#171;include&#187;</text></g><!--link UC10 to UC12--><g class="link" data-entity-1="ent0018" data-entity-2="ent0020" data-link-type="dependency" data-source-line="71" id="lnk52"><path d="M389.4,925.6969 C427.31,927.6169 473.99,927.9169 515.42,922.2969 C533.72,919.8169 548.4497,916.5111 566.0097,911.5311" fill="none" id="UC10-to-UC12" style="stroke:#181818;stroke-width:1;stroke-dasharray:7,7;"/><polygon fill="#181818" points="570.82,910.1669,561.0701,908.7742,566.0097,911.5311,563.2528,916.4707,570.82,910.1669" style="stroke:#181818;stroke-width:1;stroke-linejoin:miter;stroke-miterlimit:10;"/><text fill="#000000" font-family="sans-serif" font-size="13" lengthAdjust="spacing" textLength="63.0068" x="451.42" y="918.3638">&#171;include&#187;</text></g><!--link UC13 to UC14--><g class="link" data-entity-1="ent0021" data-entity-2="ent0022" data-link-type="dependency" data-source-line="73" id="lnk53"><path d="M702.46,1068.8569 C744.41,1072.6369 792.6601,1076.9792 838.1601,1081.0692" fill="none" id="UC13-to-UC14" style="stroke:#181818;stroke-width:1;stroke-dasharray:7,7;"/><polygon fill="#181818" points="843.14,1081.5169,834.5343,1076.7272,838.1601,1081.0692,833.818,1084.695,843.14,1081.5169" style="stroke:#181818;stroke-width:1;stroke-linejoin:miter;stroke-miterlimit:10;"/><text fill="#000000" font-family="sans-serif" font-size="13" lengthAdjust="spacing" textLength="63.0068" x="742.6" y="1069.0338">&#171;include&#187;</text></g><!--link UC14 to UC15--><g class="link" data-entity-1="ent0022" data-entity-2="ent0023" data-link-type="dependency" data-source-line="74" id="lnk54"><path d="M1046.52,1092.3069 C1086.55,1093.0769 1126.7209,1093.8505 1164.6009,1094.5805" fill="none" id="UC14-to-UC15" style="stroke:#181818;stroke-width:1;stroke-dasharray:7,7;"/><polygon fill="#181818" points="1169.6,1094.6769,1160.6787,1090.5042,1164.6009,1094.5805,1160.5246,1098.5027,1169.6,1094.6769" style="stroke:#181818;stroke-width:1;stroke-linejoin:miter;stroke-miterlimit:10;"/><text fill="#000000" font-family="sans-serif" font-size="13" lengthAdjust="spacing" textLength="61.1851" x="1077.74" y="1089.0038">&#171;extend&#187;</text></g><?plantuml-src ZLJBJjj05DtFLunOjGiQx3ZX8SIYg4YjAdK1xDYOP1eiZ8ESGIggAWKGPG4LjAfK5bLL_Y2GH9YGX5-O-OL-IS-CxSGFY021vlgUSn_dtXcNVUIKrwdlrBOuhJe-gt2dxf76jkFjshwzGtVjohPTOwjytsLKkMslvZ92kCFnORt1wBADV_-QFwdeYeu8n42qv3cL1oAG1_8G7_kYHSMjQC7RaYU4s1LUz-cKk51GSG_S8MYzAMetgEtPxdw39p0Ty5LG7Kqs4U9G36KpH5Tt72_6lbbxFusiNM1k55eZ67TZ_uhZiTTlzTTDXv1HByXobQhLPxjrdpjUROf-9eJ64W3t1nMSoEz03b23gkTCOIX-zXgieeH8WEJfWfAXWx3tQ1GKMjZmn0rLNOXhH416Mg3Y8VJhqjQNZKoy7u2ZC6YggAfCI22F4BabZoEEEOaZhkKtqKEEeMYBRiGePXY_K45RDkKH9jLJ0-i1tjTbT-HfHBBohQP9kZVLRY1k8qu9d2zf6VD33V0tnDXKka3Lc1NrDrmF-5Majb9iY2HTSRVXlNZd-7PXRMMriEOprwqNFl0jvh-CifSdnacfYVmHQJPVygKOwFrewmtyYeBFyqNcD8GAL9KNnPrx3XwTHF3vPy5rq_7gp3o78XwKsl8ar2zvKKU3Dh9BUAKKayTwJ6f4jx4AMEXmK_e8CD1oDjK8Hs8QsTsyrDc6UkhwdGYPfwgKHyTXP7VrBq07uHsZMANm1S7MoRFuNeeWl6YFtnR3odMdUkgZao1ygSQQ1QC6qrV1A6LYN83GKPNef-yniSHTp2th1SEAHSyTdPvUqZS_RPiPkvYnhOnT8cJJ6SKQ7StniJW-MkCZUFebZSnoofeb18zePCmbplE9CnOlOHX9mqmQnQHX9OrIqYWJWbpqrQkGH1VeugBZLTozAbjQWcl-QPSnCy5dFELBfZEVJcTEI6VcGo9DvBJoH2lsbRIFVUBCgyBr7m00?></g></svg>