<svg xmlns="http://www.w3.org/2000/svg" xmlns:xlink="http://www.w3.org/1999/xlink" contentStyleType="text/css" data-diagram-type="DESCRIPTION" height="1812px" preserveAspectRatio="none" style="width:780px;height:1812px;background:#FFFFFF;" version="1.1" viewBox="0 0 780 1812" width="780px" zoomAndPan="magnify"><?plantuml 1.2026.6?><defs/><g><g class="title" data-source-line="17"><text fill="#000000" font-family="'Segoe UI'" font-size="14" font-weight="700" lengthAdjust="spacing" textLength="169.791" x="301.6845" y="22.9951">Use Case &#8212; reporting</text></g><!--cluster ??????? reporting--><g class="cluster" data-qualified-name="....... reporting" data-source-line="23" id="ent0004"><rect fill="#FFFFFF" height="1640" rx="4" ry="4" style="stroke:#DFE1E6;stroke-width:1;" width="589.94" x="176.22" y="158.6069"/><text fill="#000000" font-family="'Segoe UI'" font-size="12" font-weight="700" lengthAdjust="spacing" textLength="125.2969" x="408.5416" y="171.7455">&#1057;&#1080;&#1089;&#1090;&#1077;&#1084;&#1072; reporting</text></g><!--cluster ???? ? ???????--><g class="cluster" data-qualified-name="....... reporting..... . ......." data-source-line="25" id="ent0005"><rect fill="#FFFFFF" height="167" rx="4" ry="4" style="stroke:#DFE1E6;stroke-width:1;" width="210.1" x="532.06" y="198.6069"/><text fill="#000000" font-family="'Segoe UI'" font-size="12" font-weight="700" lengthAdjust="spacing" textLength="113.4023" x="580.4088" y="211.7455">&#1042;&#1093;&#1086;&#1076; &#1080; &#1087;&#1088;&#1086;&#1092;&#1080;&#1083;&#1100;</text></g><!--cluster ???--><g class="cluster" data-qualified-name="....... reporting...." data-source-line="30" id="ent0008"><rect fill="#FFFFFF" height="290" rx="4" ry="4" style="stroke:#DFE1E6;stroke-width:1;" width="196.32" x="221.98" y="376.6069"/><text fill="#000000" font-family="'Segoe UI'" font-size="12" font-weight="700" lengthAdjust="spacing" textLength="28.6113" x="305.8343" y="389.7455">&#1047;&#1053;&#1048;</text></g><!--cluster ?????? ???????? B2B--><g class="cluster" data-qualified-name="....... reporting....... ........ B2B" data-source-line="37" id="ent0013"><rect fill="#FFFFFF" height="161" rx="4" ry="4" style="stroke:#DFE1E6;stroke-width:1;" width="493.53" x="232.1" y="690.6069"/><text fill="#000000" font-family="'Segoe UI'" font-size="12" font-weight="700" lengthAdjust="spacing" textLength="146.584" x="405.573" y="703.7455">&#1057;&#1090;&#1072;&#1090;&#1091;&#1089; &#1087;&#1088;&#1086;&#1076;&#1091;&#1082;&#1090;&#1072; B2B</text></g><!--cluster ????? Digital--><g class="cluster" data-qualified-name="....... reporting...... Digital" data-source-line="43" id="ent0017"><rect fill="#FFFFFF" height="94" rx="4" ry="4" style="stroke:#DFE1E6;stroke-width:1;" width="239.84" x="200.22" y="875.6069"/><text fill="#000000" font-family="'Segoe UI'" font-size="12" font-weight="700" lengthAdjust="spacing" textLength="94.9746" x="272.6527" y="888.7455">&#1055;&#1083;&#1072;&#1085;&#1099; Digital</text></g><!--cluster ????? YouJail--><g class="cluster" data-qualified-name="....... reporting...... YouJail" data-source-line="47" id="ent0019"><rect fill="#FFFFFF" height="165" rx="4" ry="4" style="stroke:#DFE1E6;stroke-width:1;" width="196.25" x="222.01" y="993.6069"/><text fill="#000000" font-family="'Segoe UI'" font-size="12" font-weight="700" lengthAdjust="spacing" textLength="92.7305" x="273.7698" y="1006.7455">&#1044;&#1086;&#1089;&#1082;&#1072; YouJail</text></g><!--cluster Staffing--><g class="cluster" data-qualified-name="....... reporting.Staffing" data-source-line="52" id="ent0022"><rect fill="#FFFFFF" height="352" rx="4" ry="4" style="stroke:#DFE1E6;stroke-width:1;" width="190.64" x="224.82" y="1182.6069"/><text fill="#000000" font-family="'Segoe UI'" font-size="12" font-weight="700" lengthAdjust="spacing" textLength="54.1641" x="293.058" y="1195.7455">Staffing</text></g><!--cluster ?????????--><g class="cluster" data-qualified-name="....... reporting.........." data-source-line="60" id="ent0028"><rect fill="#FFFFFF" height="90" rx="4" ry="4" style="stroke:#DFE1E6;stroke-width:1;" width="217.28" x="211.5" y="262.6069"/><text fill="#000000" font-family="'Segoe UI'" font-size="12" font-weight="700" lengthAdjust="spacing" textLength="80.6191" x="279.8304" y="275.7455">&#1044;&#1080;&#1072;&#1075;&#1088;&#1072;&#1084;&#1084;&#1099;</text></g><!--cluster ?????????? BI--><g class="cluster" data-qualified-name="....... reporting........... BI" data-source-line="64" id="ent0030"><rect fill="#FFFFFF" height="216" rx="4" ry="4" style="stroke:#DFE1E6;stroke-width:1;" width="174.68" x="232.8" y="1558.6069"/><text fill="#000000" font-family="'Segoe UI'" font-size="12" font-weight="700" lengthAdjust="spacing" textLength="96.4688" x="271.9056" y="1571.7455">&#1054;&#1090;&#1095;&#1105;&#1090;&#1085;&#1086;&#1089;&#1090;&#1100; BI</text></g><!--cluster ?????????? TFS--><g class="cluster" data-qualified-name="....... reporting........... TFS" data-source-line="70" id="ent0034"><rect fill="#FFFFFF" height="277" rx="4" ry="4" style="stroke:#DFE1E6;stroke-width:1;" width="189.34" x="542.44" y="389.6069"/><text fill="#000000" font-family="'Segoe UI'" font-size="12" font-weight="700" lengthAdjust="spacing" textLength="110.5957" x="581.8121" y="402.7455">&#1048;&#1085;&#1090;&#1077;&#1075;&#1088;&#1072;&#1094;&#1080;&#1103; TFS</text></g><!--entity UC_AUTH--><g class="entity" data-qualified-name="....... reporting..... . ........UC_AUTH" data-source-line="26" id="ent0006"><ellipse cx="637.1067" cy="329.6062" fill="#FFFFFF" rx="89.0467" ry="20.2093" style="stroke:#0052CC;stroke-width:0.5;"/><text fill="#000000" font-family="'Segoe UI'" font-size="12" lengthAdjust="spacing" textLength="157.2832" x="558.4651" y="333.0906">&#1042;&#1093;&#1086;&#1076; PAT / email+&#1087;&#1072;&#1088;&#1086;&#1083;&#1100;</text></g><!--entity UC_PROFILE--><g class="entity" data-qualified-name="....... reporting..... . ........UC_PROFILE" data-source-line="27" id="ent0007"><ellipse cx="637.1076" cy="252.6089" fill="#FFFFFF" rx="87.6676" ry="22.062" style="stroke:#0052CC;stroke-width:0.5;"/><text fill="#000000" font-family="'Segoe UI'" font-size="12" lengthAdjust="spacing" textLength="104.8652" x="584.675" y="248.1106">&#1051;&#1080;&#1095;&#1085;&#1099;&#1081; &#1082;&#1072;&#1073;&#1080;&#1085;&#1077;&#1090;</text><text fill="#000000" font-family="'Segoe UI'" font-size="12" lengthAdjust="spacing" textLength="124.0898" x="575.0627" y="262.0794">&#1092;&#1086;&#1090;&#1086;, &#1086;&#1092;&#1080;&#1089;, &#1087;&#1072;&#1088;&#1086;&#1083;&#1100;</text></g><!--entity UC_DASH--><g class="entity" data-qualified-name="....... reporting.....UC_DASH" data-source-line="31" id="ent0009"><ellipse cx="320.1406" cy="430.6054" fill="#FFFFFF" rx="82.1606" ry="21.6786" style="stroke:#0052CC;stroke-width:0.5;"/><text fill="#000000" font-family="'Segoe UI'" font-size="12" lengthAdjust="spacing" textLength="87.873" x="276.2041" y="425.5368">&#1044;&#1072;&#1096;&#1073;&#1086;&#1088;&#1076; &#1047;&#1053;&#1048;</text><text fill="#000000" font-family="'Segoe UI'" font-size="12" lengthAdjust="spacing" textLength="118.4004" x="260.9404" y="439.5055">&#1084;&#1077;&#1090;&#1088;&#1080;&#1082;&#1080;, &#1092;&#1080;&#1083;&#1100;&#1090;&#1088;&#1099;</text></g><!--entity UC_SYNC--><g class="entity" data-qualified-name="....... reporting.....UC_SYNC" data-source-line="32" id="ent0010"><ellipse cx="320.1447" cy="504.6058" fill="#FFFFFF" rx="74.2947" ry="17.2589" style="stroke:#0052CC;stroke-width:0.5;"/><text fill="#000000" font-family="'Segoe UI'" font-size="12" lengthAdjust="spacing" textLength="124.3125" x="257.9885" y="508.0902">&#1057;&#1080;&#1085;&#1093;&#1088;&#1086;&#1085;&#1080;&#1079;&#1072;&#1094;&#1080;&#1103; TFS</text></g><!--entity UC_EXPORT--><g class="entity" data-qualified-name="....... reporting.....UC_EXPORT" data-source-line="33" id="ent0011"><ellipse cx="320.144" cy="570.6097" fill="#FFFFFF" rx="56.114" ry="13.6228" style="stroke:#0052CC;stroke-width:0.5;"/><text fill="#000000" font-family="'Segoe UI'" font-size="12" lengthAdjust="spacing" textLength="80.0391" x="280.1245" y="574.0941">&#1069;&#1082;&#1089;&#1087;&#1086;&#1088;&#1090; CSV</text></g><!--entity UC_BOARD--><g class="entity" data-qualified-name="....... reporting.....UC_BOARD" data-source-line="34" id="ent0012"><ellipse cx="320.1369" cy="634.6103" fill="#FFFFFF" rx="66.8169" ry="15.7634" style="stroke:#0052CC;stroke-width:0.5;"/><text fill="#000000" font-family="'Segoe UI'" font-size="12" lengthAdjust="spacing" textLength="106.8281" x="266.7229" y="638.0946">&#1042;&#1099;&#1073;&#1086;&#1088; &#1076;&#1086;&#1089;&#1082;&#1080; TFS</text></g><!--entity UC_B2B--><g class="entity" data-qualified-name="....... reporting....... ........ B2B.UC_B2B" data-source-line="38" id="ent0014"><ellipse cx="637.1119" cy="758.6021" fill="#FFFFFF" rx="72.5219" ry="21.3453" style="stroke:#0052CC;stroke-width:0.5;"/><text fill="#000000" font-family="'Segoe UI'" font-size="12" lengthAdjust="spacing" textLength="105.873" x="584.1754" y="757.1788">&#1058;&#1072;&#1073;&#1083;&#1080;&#1094;&#1072; &#1089;&#1090;&#1072;&#1090;&#1091;&#1089;&#1072;</text><text fill="#000000" font-family="'Segoe UI'" font-size="12" lengthAdjust="spacing" textLength="67.4063" x="603.4088" y="771.1475">&#1087;&#1086; &#1086;&#1092;&#1080;&#1089;&#1072;&#1084;</text></g><!--entity UC_NEWS--><g class="entity" data-qualified-name="....... reporting....... ........ B2B.UC_NEWS" data-source-line="39" id="ent0015"><ellipse cx="320.136" cy="739.6021" fill="#FFFFFF" rx="71.526" ry="16.7052" style="stroke:#0052CC;stroke-width:0.5;"/><text fill="#000000" font-family="'Segoe UI'" font-size="12" lengthAdjust="spacing" textLength="117.9199" x="261.1761" y="743.0865">&#1053;&#1086;&#1074;&#1086;&#1089;&#1090;&#1080; &#1080; &#1079;&#1072;&#1087;&#1091;&#1089;&#1082;&#1080;</text></g><!--entity UC_PPTX--><g class="entity" data-qualified-name="....... reporting....... ........ B2B.UC_PPTX" data-source-line="40" id="ent0016"><ellipse cx="320.1433" cy="813.6118" fill="#FFFFFF" rx="72.0433" ry="21.9249" style="stroke:#0052CC;stroke-width:0.5;"/><text fill="#000000" font-family="'Segoe UI'" font-size="12" lengthAdjust="spacing" textLength="101.9238" x="269.1814" y="811.3124">&#1043;&#1077;&#1085;&#1077;&#1088;&#1072;&#1094;&#1080;&#1103; PPTX</text><text fill="#000000" font-family="'Segoe UI'" font-size="12" lengthAdjust="spacing" textLength="82.5645" x="278.861" y="825.2811">&#1087;&#1088;&#1077;&#1079;&#1077;&#1085;&#1090;&#1072;&#1094;&#1080;&#1080;</text></g><!--entity UC_ROADMAP--><g class="entity" data-qualified-name="....... reporting...... Digital.UC_ROADMAP" data-source-line="44" id="ent0018"><ellipse cx="320.1426" cy="930.6114" fill="#FFFFFF" rx="103.9226" ry="23.1845" style="stroke:#0052CC;stroke-width:0.5;"/><text fill="#000000" font-family="'Segoe UI'" font-size="12" lengthAdjust="spacing" textLength="119.7832" x="260.251" y="924.8341">Roadmap &#1082;&#1086;&#1083;&#1073;&#1072;&#1089;&#1082;&#1080;</text><text fill="#000000" font-family="'Segoe UI'" font-size="12" lengthAdjust="spacing" textLength="164.5371" x="237.874" y="938.8028">&#1087;&#1088;&#1080;&#1086;&#1088;&#1080;&#1090;&#1077;&#1090; / &#1082;&#1086;&#1084;&#1084;&#1077;&#1085;&#1090;&#1072;&#1088;&#1080;&#1081;</text></g><!--entity UC_YJ--><g class="entity" data-qualified-name="....... reporting...... YouJail.UC_YJ" data-source-line="48" id="ent0020"><ellipse cx="320.1422" cy="1047.603" fill="#FFFFFF" rx="68.6422" ry="22.3461" style="stroke:#0052CC;stroke-width:0.5;"/><text fill="#000000" font-family="'Segoe UI'" font-size="12" lengthAdjust="spacing" textLength="86.502" x="276.8912" y="1043.5188">Kanban &#1076;&#1086;&#1089;&#1082;&#1080;</text><text fill="#000000" font-family="'Segoe UI'" font-size="12" lengthAdjust="spacing" textLength="94.793" x="272.7457" y="1057.4876">&#1082;&#1072;&#1088;&#1090;&#1086;&#1095;&#1082;&#1080;, &#1090;&#1077;&#1075;&#1080;</text></g><!--entity UC_YJ_ZNI--><g class="entity" data-qualified-name="....... reporting...... YouJail.UC_YJ_ZNI" data-source-line="49" id="ent0021"><ellipse cx="320.1444" cy="1123.6118" fill="#FFFFFF" rx="82.1244" ry="18.8249" style="stroke:#0052CC;stroke-width:0.5;"/><text fill="#000000" font-family="'Segoe UI'" font-size="12" lengthAdjust="spacing" textLength="142.002" x="249.1435" y="1127.0961">&#1057;&#1074;&#1103;&#1079;&#1100; &#1082;&#1072;&#1088;&#1090;&#1086;&#1095;&#1082;&#1080; &#8596; &#1047;&#1053;&#1048;</text></g><!--entity UC_VAC--><g class="entity" data-qualified-name="....... reporting.Staffing.UC_VAC" data-source-line="53" id="ent0023"><ellipse cx="320.1372" cy="1301.6083" fill="#FFFFFF" rx="67.7072" ry="15.9414" style="stroke:#0052CC;stroke-width:0.5;"/><text fill="#000000" font-family="'Segoe UI'" font-size="12" lengthAdjust="spacing" textLength="108.9492" x="265.6626" y="1305.0927">&#1043;&#1088;&#1072;&#1092;&#1080;&#1082; &#1086;&#1090;&#1087;&#1091;&#1089;&#1082;&#1086;&#1074;</text></g><!--entity UC_BOOK--><g class="entity" data-qualified-name="....... reporting.Staffing.UC_BOOK" data-source-line="54" id="ent0024"><ellipse cx="320.1362" cy="1365.6041" fill="#FFFFFF" rx="53.1362" ry="13.0272" style="stroke:#0052CC;stroke-width:0.5;"/><text fill="#000000" font-family="'Segoe UI'" font-size="12" lengthAdjust="spacing" textLength="71.9473" x="284.1626" y="1369.0885">&#1041;&#1088;&#1086;&#1085;&#1100; &#1084;&#1077;&#1089;&#1090;</text></g><!--entity UC_OFFICE--><g class="entity" data-qualified-name="....... reporting.Staffing.UC_OFFICE" data-source-line="55" id="ent0025"><ellipse cx="320.1374" cy="1232.6084" fill="#FFFFFF" rx="77.0074" ry="17.8015" style="stroke:#0052CC;stroke-width:0.5;"/><text fill="#000000" font-family="'Segoe UI'" font-size="12" lengthAdjust="spacing" textLength="130.5" x="254.8874" y="1236.0927">&#1057;&#1086;&#1090;&#1088;&#1091;&#1076;&#1085;&#1080;&#1082;&#1080; &#1074; &#1086;&#1092;&#1080;&#1089;&#1077;</text></g><!--entity UC_ORG--><g class="entity" data-qualified-name="....... reporting.Staffing.UC_ORG" data-source-line="56" id="ent0026"><ellipse cx="320.137" cy="1434.6058" fill="#FFFFFF" rx="79.317" ry="20.9889" style="stroke:#0052CC;stroke-width:0.5;"/><text fill="#000000" font-family="'Segoe UI'" font-size="12" lengthAdjust="spacing" textLength="118.5234" x="260.8753" y="1433.7399">&#1057;&#1086;&#1089;&#1090;&#1072;&#1074; / &#1087;&#1080;&#1088;&#1072;&#1084;&#1080;&#1076;&#1072;</text><text fill="#000000" font-family="'Segoe UI'" font-size="12" lengthAdjust="spacing" textLength="58.752" x="290.761" y="1447.7086">&#1086;&#1088;&#1075;&#1089;&#1093;&#1077;&#1084;&#1072;</text></g><!--entity UC_PHOTO--><g class="entity" data-qualified-name="....... reporting.Staffing.UC_PHOTO" data-source-line="57" id="ent0027"><ellipse cx="320.1403" cy="1504.6109" fill="#FFFFFF" rx="56.4703" ry="13.6941" style="stroke:#0052CC;stroke-width:0.5;"/><text fill="#000000" font-family="'Segoe UI'" font-size="12" lengthAdjust="spacing" textLength="80.9824" x="279.6491" y="1508.0953">&#1060;&#1086;&#1090;&#1086; &#1074; MinIO</text></g><!--entity UC_DIAG--><g class="entity" data-qualified-name="....... reporting...........UC_DIAG" data-source-line="61" id="ent0029"><ellipse cx="320.1437" cy="315.6056" fill="#FFFFFF" rx="92.6437" ry="20.9287" style="stroke:#0052CC;stroke-width:0.5;"/><text fill="#000000" font-family="'Segoe UI'" font-size="12" lengthAdjust="spacing" textLength="147.8555" x="246.216" y="315.934">&#1050;&#1086;&#1085;&#1089;&#1090;&#1088;&#1091;&#1082;&#1090;&#1086;&#1088; &#1076;&#1080;&#1072;&#1075;&#1088;&#1072;&#1084;&#1084;</text><text fill="#000000" font-family="'Segoe UI'" font-size="12" lengthAdjust="spacing" textLength="21.6855" x="309.3009" y="329.9027">(UI)</text></g><!--entity UC2--><g class="entity" data-qualified-name="....... reporting........... BI.UC2" data-source-line="65" id="ent0031"><ellipse cx="320.143" cy="1675.6115" fill="#FFFFFF" rx="68.273" ry="16.0546" style="stroke:#0052CC;stroke-width:0.5;"/><text fill="#000000" font-family="'Segoe UI'" font-size="12" lengthAdjust="spacing" textLength="110.291" x="264.9975" y="1679.0958">&#1042;&#1088;&#1077;&#1084;&#1103; &#1074; &#1089;&#1090;&#1072;&#1090;&#1091;&#1089;&#1072;&#1093;</text></g><!--entity UC3--><g class="entity" data-qualified-name="....... reporting........... BI.UC3" data-source-line="66" id="ent0032"><ellipse cx="320.1357" cy="1742.606" fill="#FFFFFF" rx="65.6957" ry="15.5391" style="stroke:#0052CC;stroke-width:0.5;"/><text fill="#000000" font-family="'Segoe UI'" font-size="12" lengthAdjust="spacing" textLength="104.1387" x="268.0664" y="1746.0904">&#1042;&#1088;&#1077;&#1084;&#1103; &#1074; &#1073;&#1101;&#1082;&#1083;&#1086;&#1075;&#1077;</text></g><!--entity UC4--><g class="entity" data-qualified-name="....... reporting........... BI.UC4" data-source-line="67" id="ent0033"><ellipse cx="320.1371" cy="1607.6043" fill="#FFFFFF" rx="71.3371" ry="16.6674" style="stroke:#0052CC;stroke-width:0.5;"/><text fill="#000000" font-family="'Segoe UI'" font-size="12" lengthAdjust="spacing" textLength="117.4805" x="261.3968" y="1611.0887">&#1047;&#1072;&#1075;&#1088;&#1091;&#1079;&#1082;&#1072; &#1082;&#1086;&#1084;&#1072;&#1085;&#1076;&#1099;</text></g><!--entity UC9A--><g class="entity" data-qualified-name="....... reporting........... TFS.UC9A" data-source-line="71" id="ent0035"><ellipse cx="637.1052" cy="437.6099" fill="#FFFFFF" rx="69.5152" ry="16.303" style="stroke:#0052CC;stroke-width:0.5;"/><text fill="#000000" font-family="'Segoe UI'" font-size="12" lengthAdjust="spacing" textLength="113.2207" x="580.4948" y="441.0943">WIQL &#8594; Batch &#1047;&#1053;&#1048;</text></g><!--entity UC9B--><g class="entity" data-qualified-name="....... reporting........... TFS.UC9B" data-source-line="72" id="ent0036"><ellipse cx="637.1135" cy="632.6116" fill="#FFFFFF" rx="78.6735" ry="18.1347" style="stroke:#0052CC;stroke-width:0.5;"/><text fill="#000000" font-family="'Segoe UI'" font-size="12" lengthAdjust="spacing" textLength="134.2676" x="569.9797" y="636.096">&#1057;&#1074;&#1103;&#1079;&#1080; &#1047;&#1053;&#1048; &#8594; &#1054;&#1096;&#1080;&#1073;&#1082;&#1072;</text></g><!--entity UC9C--><g class="entity" data-qualified-name="....... reporting........... TFS.UC9C" data-source-line="73" id="ent0037"><ellipse cx="637.1122" cy="566.6043" fill="#FFFFFF" rx="51.6122" ry="12.8774" style="stroke:#0052CC;stroke-width:0.5;"/><text fill="#000000" font-family="'Segoe UI'" font-size="12" lengthAdjust="spacing" textLength="68.748" x="602.7382" y="570.0886">Upsert task</text></g><!--entity UC16--><g class="entity" data-qualified-name="....... reporting........... TFS.UC16" data-source-line="74" id="ent0038"><ellipse cx="637.1139" cy="503.6116" fill="#FFFFFF" rx="62.3239" ry="14.8648" style="stroke:#0052CC;stroke-width:0.5;"/><text fill="#000000" font-family="'Segoe UI'" font-size="12" lengthAdjust="spacing" textLength="95.9121" x="589.1578" y="507.096">&#1040;&#1091;&#1076;&#1080;&#1090; sync_run</text></g><!--entity user--><g class="entity" data-qualified-name="user" data-source-line="19" id="ent0001"><ellipse cx="67.6055" cy="748.1269" fill="#DEEBFF" rx="8" ry="8" style="stroke:#0052CC;stroke-width:0.5;"/><path d="M67.6055,756.1269 L67.6055,783.1269 M54.6055,764.1269 L80.6055,764.1269 M67.6055,783.1269 L54.6055,798.1269 M67.6055,783.1269 L80.6055,798.1269" fill="none" style="stroke:#0052CC;stroke-width:0.5;"/><text fill="#000000" font-family="'Segoe UI'" font-size="12" lengthAdjust="spacing" textLength="88.3711" x="23.42" y="810.7655">&#1055;&#1086;&#1083;&#1100;&#1079;&#1086;&#1074;&#1072;&#1090;&#1077;&#1083;&#1100;</text></g><!--entity admin--><g class="entity" data-qualified-name="admin" data-source-line="20" id="ent0002"><ellipse cx="67.6084" cy="1372.1269" fill="#DEEBFF" rx="8" ry="8" style="stroke:#0052CC;stroke-width:0.5;"/><path d="M67.6084,1380.1269 L67.6084,1407.1269 M54.6084,1388.1269 L80.6084,1388.1269 M67.6084,1407.1269 L54.6084,1422.1269 M67.6084,1407.1269 L80.6084,1422.1269" fill="none" style="stroke:#0052CC;stroke-width:0.5;"/><text fill="#000000" font-family="'Segoe UI'" font-size="12" lengthAdjust="spacing" textLength="123.2168" x="6" y="1434.7655">&#1040;&#1076;&#1084;&#1080;&#1085;&#1080;&#1089;&#1090;&#1088;&#1072;&#1090;&#1086;&#1088; org</text></g><!--entity bi--><g class="entity" data-qualified-name="bi" data-source-line="21" id="ent0003"><ellipse cx="67.608" cy="1647.1269" fill="#DEEBFF" rx="8" ry="8" style="stroke:#0052CC;stroke-width:0.5;"/><path d="M67.608,1655.1269 L67.608,1682.1269 M54.608,1663.1269 L80.608,1663.1269 M67.608,1682.1269 L54.608,1697.1269 M67.608,1682.1269 L80.608,1697.1269" fill="none" style="stroke:#0052CC;stroke-width:0.5;"/><text fill="#000000" font-family="'Segoe UI'" font-size="12" lengthAdjust="spacing" textLength="36.9961" x="49.11" y="1709.7655">FineBI</text></g><!--link user to UC_AUTH--><g class="link" data-entity-1="ent0001" data-entity-2="ent0006" data-link-type="dependency" data-source-line="78" id="lnk39"><path d="M71.02,739.5169 C79.93,608.3169 112.87,171.8969 159.22,131.6069 C260.79,43.2969 330.35,157.3469 448.06,222.6069 C482.8,241.8669 489.68,250.9069 516.06,280.6069 C520.32,285.3969 518.96,288.7269 524.06,292.6069 C537.59,302.9069 549.3819,308.8199 565.5519,314.2699" fill="none" id="user-to-UC_AUTH" style="stroke:#42526E;stroke-width:1;"/><polygon fill="#42526E" points="570.29,315.8669,563.039,309.2019,565.5519,314.2699,560.4838,316.7829,570.29,315.8669" style="stroke:#42526E;stroke-width:1;stroke-linejoin:miter;stroke-miterlimit:10;"/></g><!--link user to UC_PROFILE--><g class="link" data-entity-1="ent0001" data-entity-2="ent0007" data-link-type="dependency" data-source-line="79" id="lnk40"><path d="M69.21,739.2369 C71.94,625.4169 86.87,286.9369 168.22,222.6069 C294.31,122.8869 499.7305,192.9262 589.1305,231.0362" fill="none" id="user-to-UC_PROFILE" style="stroke:#42526E;stroke-width:1;"/><polygon fill="#42526E" points="593.73,232.9969,587.0194,225.788,589.1305,231.0362,583.8823,233.1472,593.73,232.9969" style="stroke:#42526E;stroke-width:1;stroke-linejoin:miter;stroke-miterlimit:10;"/></g><!--link user to UC_DASH--><g class="link" data-entity-1="ent0001" data-entity-2="ent0009" data-link-type="dependency" data-source-line="80" id="lnk41"><path d="M69.67,739.1869 C73.6,674.5769 91.19,542.0869 168.22,469.6069 C187.63,451.3369 209.5561,442.3814 235.2061,437.0114" fill="none" id="user-to-UC_DASH" style="stroke:#42526E;stroke-width:1;"/><polygon fill="#42526E" points="240.1,435.9869,230.4713,433.916,235.2061,437.0114,232.1106,441.7462,240.1,435.9869" style="stroke:#42526E;stroke-width:1;stroke-linejoin:miter;stroke-miterlimit:10;"/></g><!--link user to UC_SYNC--><g class="link" data-entity-1="ent0001" data-entity-2="ent0010" data-link-type="dependency" data-source-line="81" id="lnk42"><path d="M73.64,739.1569 C82.77,686.4569 107.13,591.0969 168.22,539.6069 C190.02,521.2269 214.7046,512.868 241.9346,508.448" fill="none" id="user-to-UC_SYNC" style="stroke:#42526E;stroke-width:1;"/><polygon fill="#42526E" points="246.87,507.6469,237.3454,505.1406,241.9346,508.448,238.6272,513.0372,246.87,507.6469" style="stroke:#42526E;stroke-width:1;stroke-linejoin:miter;stroke-miterlimit:10;"/></g><!--link user to UC_EXPORT--><g class="link" data-entity-1="ent0001" data-entity-2="ent0011" data-link-type="dependency" data-source-line="82" id="lnk43"><path d="M79.6,739.2069 C93.48,698.7769 121.4,635.5969 168.22,601.6069 C195.71,581.6469 228.0904,574.3184 258.7504,571.5384" fill="none" id="user-to-UC_EXPORT" style="stroke:#42526E;stroke-width:1;"/><polygon fill="#42526E" points="263.73,571.0869,254.4056,567.9159,258.7504,571.5384,255.128,575.8832,263.73,571.0869" style="stroke:#42526E;stroke-width:1;stroke-linejoin:miter;stroke-miterlimit:10;"/></g><!--link user to UC_BOARD--><g class="link" data-entity-1="ent0001" data-entity-2="ent0012" data-link-type="dependency" data-source-line="83" id="lnk44"><path d="M112.18,743.6069 C129.24,731.3269 149.24,717.6969 168.22,706.6069 C207.32,683.7569 250.2222,664.005 281.3522,650.515" fill="none" id="user-to-UC_BOARD" style="stroke:#42526E;stroke-width:1;"/><polygon fill="#42526E" points="285.94,648.5269,276.0916,648.4352,281.3522,650.515,279.2725,655.7756,285.94,648.5269" style="stroke:#42526E;stroke-width:1;stroke-linejoin:miter;stroke-miterlimit:10;"/></g><!--link user to UC_B2B--><g class="link" data-entity-1="ent0001" data-entity-2="ent0014" data-link-type="dependency" data-source-line="84" id="lnk45"><path d="M70.18,739.4569 C75.51,634.1069 96.71,337.2269 168.22,278.6069 C290.1,178.6869 454.46,202.5369 516.06,347.6069 C529.92,380.2369 508.51,634.7469 524.06,666.6069 C539.96,699.1769 569.1372,721.6533 595.3772,737.3233" fill="none" id="user-to-UC_B2B" style="stroke:#42526E;stroke-width:1;"/><polygon fill="#42526E" points="599.67,739.8869,593.9938,731.8382,595.3772,737.3233,589.8921,738.7067,599.67,739.8869" style="stroke:#42526E;stroke-width:1;stroke-linejoin:miter;stroke-miterlimit:10;"/></g><!--link user to UC_NEWS--><g class="link" data-entity-1="ent0001" data-entity-2="ent0015" data-link-type="dependency" data-source-line="85" id="lnk46"><path d="M112.25,770.1669 C152.76,764.1769 208.5138,755.9482 253.6938,749.2682" fill="none" id="user-to-UC_NEWS" style="stroke:#42526E;stroke-width:1;"/><polygon fill="#42526E" points="258.64,748.5369,249.1517,745.8963,253.6938,749.2682,250.3218,753.8102,258.64,748.5369" style="stroke:#42526E;stroke-width:1;stroke-linejoin:miter;stroke-miterlimit:10;"/></g><!--link user to UC_PPTX--><g class="link" data-entity-1="ent0001" data-entity-2="ent0016" data-link-type="dependency" data-source-line="86" id="lnk47"><path d="M112.25,783.0469 C151.64,788.8669 205.1637,796.7763 249.9137,803.3863" fill="none" id="user-to-UC_PPTX" style="stroke:#42526E;stroke-width:1;"/><polygon fill="#42526E" points="254.86,804.1169,246.5411,798.8447,249.9137,803.3863,245.3721,806.7588,254.86,804.1169" style="stroke:#42526E;stroke-width:1;stroke-linejoin:miter;stroke-miterlimit:10;"/></g><!--link user to UC_ROADMAP--><g class="link" data-entity-1="ent0001" data-entity-2="ent0018" data-link-type="dependency" data-source-line="87" id="lnk48"><path d="M112.13,811.8069 C129.18,824.9469 149.19,839.5769 168.22,851.6069 C202.59,873.3369 239.0881,892.3209 269.6681,907.2709" fill="none" id="user-to-UC_ROADMAP" style="stroke:#42526E;stroke-width:1;"/><polygon fill="#42526E" points="274.16,909.4669,267.8313,901.9205,269.6681,907.2709,264.3177,909.1076,274.16,909.4669" style="stroke:#42526E;stroke-width:1;stroke-linejoin:miter;stroke-miterlimit:10;"/></g><!--link user to UC_YJ--><g class="link" data-entity-1="ent0001" data-entity-2="ent0020" data-link-type="dependency" data-source-line="88" id="lnk49"><path d="M101.02,814.0869 C121.42,839.7969 146.41,875.6469 160.22,911.6069 C169.54,935.8969 153.19,948.3569 168.22,969.6069 C191.29,1002.2369 227.4938,1020.5449 260.9138,1032.0849" fill="none" id="user-to-UC_YJ" style="stroke:#42526E;stroke-width:1;"/><polygon fill="#42526E" points="265.64,1033.7169,258.4385,1026.9984,260.9138,1032.0849,255.8273,1034.5603,265.64,1033.7169" style="stroke:#42526E;stroke-width:1;stroke-linejoin:miter;stroke-miterlimit:10;"/></g><!--link user to UC_YJ_ZNI--><g class="link" data-entity-1="ent0001" data-entity-2="ent0021" data-link-type="dependency" data-source-line="89" id="lnk50"><path d="M93.69,813.9369 C115.59,848.7069 146.01,902.8269 160.22,954.6069 C164.13,968.8869 158.7,1076.2669 168.22,1087.6069 C185.36,1108.0269 206.8961,1117.1776 232.8961,1121.7676" fill="none" id="user-to-UC_YJ_ZNI" style="stroke:#42526E;stroke-width:1;"/><polygon fill="#42526E" points="237.82,1122.6369,229.6525,1117.1331,232.8961,1121.7676,228.2617,1125.0113,237.82,1122.6369" style="stroke:#42526E;stroke-width:1;stroke-linejoin:miter;stroke-miterlimit:10;"/></g><!--link user to UC_VAC--><g class="link" data-entity-1="ent0001" data-entity-2="ent0023" data-link-type="dependency" data-source-line="90" id="lnk51"><path d="M84.47,813.9269 C106.15,866.9669 144.17,967.6969 160.22,1057.6069 C162.27,1069.0969 160.75,1258.6269 168.22,1267.6069 C188.57,1292.0769 217.4298,1300.7326 247.9198,1303.4526" fill="none" id="user-to-UC_VAC" style="stroke:#42526E;stroke-width:1;"/><polygon fill="#42526E" points="252.9,1303.8969,244.291,1299.113,247.9198,1303.4526,243.5802,1307.0813,252.9,1303.8969" style="stroke:#42526E;stroke-width:1;stroke-linejoin:miter;stroke-miterlimit:10;"/></g><!--link user to UC_BOOK--><g class="link" data-entity-1="ent0001" data-entity-2="ent0024" data-link-type="dependency" data-source-line="91" id="lnk52"><path d="M81.13,814.0369 C101.9,878.0469 142.9,1013.0069 160.22,1130.6069 C161.87,1141.8269 160.88,1325.9569 168.22,1334.6069 C192.53,1363.2569 230.62,1369.7866 264.55,1369.8566" fill="none" id="user-to-UC_BOOK" style="stroke:#42526E;stroke-width:1;"/><polygon fill="#42526E" points="269.55,1369.8669,260.5583,1365.8483,264.55,1369.8566,260.5418,1373.8483,269.55,1369.8669" style="stroke:#42526E;stroke-width:1;stroke-linejoin:miter;stroke-miterlimit:10;"/></g><!--link user to UC_OFFICE--><g class="link" data-entity-1="ent0001" data-entity-2="ent0025" data-link-type="dependency" data-source-line="92" id="lnk53"><path d="M88.39,813.7769 C110.41,857.2169 144.9,931.9169 160.22,1000.6069 C164.04,1017.7669 158.54,1143.9269 168.22,1158.6069 C189.66,1191.1369 225.0082,1208.3636 258.4982,1218.8436" fill="none" id="user-to-UC_OFFICE" style="stroke:#42526E;stroke-width:1;"/><polygon fill="#42526E" points="263.27,1220.3369,255.8753,1213.8316,258.4982,1218.8436,253.4861,1221.4665,263.27,1220.3369" style="stroke:#42526E;stroke-width:1;stroke-linejoin:miter;stroke-miterlimit:10;"/></g><!--link user to UC_ORG--><g class="link" data-entity-1="ent0001" data-entity-2="ent0026" data-link-type="dependency" data-source-line="93" id="lnk54"><path d="M77.97,813.8669 C97.1,891.7669 140.54,1077.8169 160.22,1236.6069 C162.41,1254.2669 156.93,1382.8469 168.22,1396.6069 C185.87,1418.1269 208.8237,1427.6218 235.8437,1432.3118" fill="none" id="user-to-UC_ORG" style="stroke:#42526E;stroke-width:1;"/><polygon fill="#42526E" points="240.77,1433.1669,232.5867,1427.6866,235.8437,1432.3118,231.2185,1435.5688,240.77,1433.1669" style="stroke:#42526E;stroke-width:1;stroke-linejoin:miter;stroke-miterlimit:10;"/></g><!--link user to UC_DIAG--><g class="link" data-entity-1="ent0001" data-entity-2="ent0029" data-link-type="dependency" data-source-line="94" id="lnk55"><path d="M68.57,739.1469 C70.39,664.8869 84.25,497.2069 168.22,392.6069 C191.79,363.2469 224.8369,345.7486 256.6769,333.8386" fill="none" id="user-to-UC_DIAG" style="stroke:#42526E;stroke-width:1;"/><polygon fill="#42526E" points="261.36,332.0869,251.529,331.4935,256.6769,333.8386,254.3318,338.9865,261.36,332.0869" style="stroke:#42526E;stroke-width:1;stroke-linejoin:miter;stroke-miterlimit:10;"/></g><!--link user to UC_PHOTO--><g class="link" data-entity-1="ent0001" data-entity-2="ent0027" data-link-type="dependency" data-source-line="95" id="lnk56"><path d="M73.35,813.7869 C91.58,956.2969 156.76,1460.3669 168.22,1472.6069 C192.46,1498.5269 227.0444,1505.9781 259.5844,1507.3381" fill="none" id="user-to-UC_PHOTO" style="stroke:#42526E;stroke-width:1;"/><polygon fill="#42526E" points="264.58,1507.5469,255.7549,1503.1745,259.5844,1507.3381,255.4208,1511.1676,264.58,1507.5469" style="stroke:#42526E;stroke-width:1;stroke-linejoin:miter;stroke-miterlimit:10;"/></g><!--link admin to UC_ORG--><g class="link" data-entity-1="ent0002" data-entity-2="ent0026" data-link-type="dependency" data-source-line="97" id="lnk57"><path d="M129.57,1408.8769 C165.64,1413.7769 206.5053,1419.3254 244.0653,1424.4154" fill="none" id="admin-to-UC_ORG" style="stroke:#42526E;stroke-width:1;"/><polygon fill="#42526E" points="249.02,1425.0869,240.6387,1419.9145,244.0653,1424.4154,239.5644,1427.842,249.02,1425.0869" style="stroke:#42526E;stroke-width:1;stroke-linejoin:miter;stroke-miterlimit:10;"/></g><!--link admin to UC_BOOK--><g class="link" data-entity-1="ent0002" data-entity-2="ent0024" data-link-type="dependency" data-source-line="98" id="lnk58"><path d="M129.57,1392.0869 C173.9,1385.8969 227.9981,1378.339 268.3481,1372.699" fill="none" id="admin-to-UC_BOOK" style="stroke:#42526E;stroke-width:1;"/><polygon fill="#42526E" points="273.3,1372.0069,263.8329,1369.2913,268.3481,1372.699,264.9404,1377.2142,273.3,1372.0069" style="stroke:#42526E;stroke-width:1;stroke-linejoin:miter;stroke-miterlimit:10;"/></g><!--link admin to UC_VAC--><g class="link" data-entity-1="ent0002" data-entity-2="ent0023" data-link-type="dependency" data-source-line="99" id="lnk59"><path d="M117.23,1363.2069 C132.83,1352.6569 150.64,1342.0469 168.22,1334.6069 C197.36,1322.2769 226.7853,1315.1611 255.3353,1310.1511" fill="none" id="admin-to-UC_VAC" style="stroke:#42526E;stroke-width:1;"/><polygon fill="#42526E" points="260.26,1309.2869,250.7041,1306.9026,255.3353,1310.1511,252.0868,1314.7822,260.26,1309.2869" style="stroke:#42526E;stroke-width:1;stroke-linejoin:miter;stroke-miterlimit:10;"/></g><!--link admin to UC_PHOTO--><g class="link" data-entity-1="ent0002" data-entity-2="ent0027" data-link-type="dependency" data-source-line="100" id="lnk60"><path d="M111.78,1437.8469 C128.47,1450.5569 148.32,1463.7869 168.22,1472.6069 C199.8,1486.6169 232.9356,1493.8836 262.9356,1498.3936" fill="none" id="admin-to-UC_PHOTO" style="stroke:#42526E;stroke-width:1;"/><polygon fill="#42526E" points="267.88,1499.1369,259.5747,1493.8434,262.9356,1498.3936,258.3854,1501.7545,267.88,1499.1369" style="stroke:#42526E;stroke-width:1;stroke-linejoin:miter;stroke-miterlimit:10;"/></g><!--link bi to UC2--><g class="link" data-entity-1="ent0003" data-entity-2="ent0031" data-link-type="dependency" data-source-line="102" id="lnk61"><path d="M86.23,1675.6069 C120.03,1675.6069 190.6,1675.6069 246.54,1675.6069" fill="none" id="bi-to-UC2" style="stroke:#42526E;stroke-width:1;"/><polygon fill="#42526E" points="251.54,1675.6069,242.54,1671.6069,246.54,1675.6069,242.54,1679.6069,251.54,1675.6069" style="stroke:#42526E;stroke-width:1;stroke-linejoin:miter;stroke-miterlimit:10;"/></g><!--link bi to UC3--><g class="link" data-entity-1="ent0003" data-entity-2="ent0032" data-link-type="dependency" data-source-line="103" id="lnk62"><path d="M86.41,1682.3669 C106.19,1689.7169 139.18,1701.5069 168.22,1709.6069 C201.03,1718.7569 233.529,1725.967 262.889,1731.897" fill="none" id="bi-to-UC3" style="stroke:#42526E;stroke-width:1;"/><polygon fill="#42526E" points="267.79,1732.8869,259.7601,1727.1842,262.889,1731.897,258.1762,1735.0259,267.79,1732.8869" style="stroke:#42526E;stroke-width:1;stroke-linejoin:miter;stroke-miterlimit:10;"/></g><!--link bi to UC4--><g class="link" data-entity-1="ent0003" data-entity-2="ent0033" data-link-type="dependency" data-source-line="104" id="lnk63"><path d="M86.42,1668.8769 C106.21,1661.5569 139.2,1649.7969 168.22,1641.6069 C199.88,1632.6669 230.9078,1625.5296 259.7578,1619.4396" fill="none" id="bi-to-UC4" style="stroke:#42526E;stroke-width:1;"/><polygon fill="#42526E" points="264.65,1618.4069,255.0179,1616.352,259.7578,1619.4396,256.6702,1624.1795,264.65,1618.4069" style="stroke:#42526E;stroke-width:1;stroke-linejoin:miter;stroke-miterlimit:10;"/></g><!--link UC_SYNC to UC9A--><g class="link" data-entity-1="ent0010" data-entity-2="ent0035" data-link-type="dependency" data-source-line="106" id="lnk64"><path d="M376,492.9369 C434.69,480.4469 522.1796,461.8478 579.5896,449.6278" fill="none" id="UC_SYNC-to-UC9A" style="stroke:#42526E;stroke-width:1;stroke-dasharray:7,7;"/><polygon fill="#42526E" points="584.48,448.5869,574.8444,446.5482,579.5896,449.6278,576.51,454.3729,584.48,448.5869" style="stroke:#42526E;stroke-width:1;stroke-linejoin:miter;stroke-miterlimit:10;"/><text fill="#000000" font-family="'Segoe UI'" font-size="12" lengthAdjust="spacing" textLength="58.1602" x="457.06" y="462.2455">&#171;include&#187;</text></g><!--link UC_SYNC to UC9B--><g class="link" data-entity-1="ent0010" data-entity-2="ent0036" data-link-type="dependency" data-source-line="107" id="lnk65"><path d="M390.01,510.8769 C410.88,515.8669 432.4,524.5669 448.06,539.6069 C456.48,547.6869 448.37,555.8369 456.06,564.6069 C478.09,589.7069 492.99,584.3569 524.06,596.6069 C544.31,604.5869 562.3247,610.6749 582.0447,616.7949" fill="none" id="UC_SYNC-to-UC9B" style="stroke:#42526E;stroke-width:1;stroke-dasharray:7,7;"/><polygon fill="#42526E" points="586.82,618.2769,579.41,611.789,582.0447,616.7949,577.0388,619.4295,586.82,618.2769" style="stroke:#42526E;stroke-width:1;stroke-linejoin:miter;stroke-miterlimit:10;"/><text fill="#000000" font-family="'Segoe UI'" font-size="12" lengthAdjust="spacing" textLength="58.1602" x="457.06" y="561.7455">&#171;include&#187;</text></g><!--link UC_SYNC to UC9C--><g class="link" data-entity-1="ent0010" data-entity-2="ent0037" data-link-type="dependency" data-source-line="108" id="lnk66"><path d="M377.81,515.7669 C440.51,528.1069 535.0842,546.7211 590.5042,557.6311" fill="none" id="UC_SYNC-to-UC9C" style="stroke:#42526E;stroke-width:1;stroke-dasharray:7,7;"/><polygon fill="#42526E" points="595.41,558.5969,587.3521,552.9338,590.5042,557.6311,585.8069,560.7832,595.41,558.5969" style="stroke:#42526E;stroke-width:1;stroke-linejoin:miter;stroke-miterlimit:10;"/><text fill="#000000" font-family="'Segoe UI'" font-size="12" lengthAdjust="spacing" textLength="58.1602" x="457.06" y="529.0355">&#171;include&#187;</text></g><!--link UC_SYNC to UC16--><g class="link" data-entity-1="ent0010" data-entity-2="ent0038" data-link-type="dependency" data-source-line="109" id="lnk67"><path d="M394.59,504.3769 C449.21,504.1969 517.91,503.9824 569.48,503.8224" fill="none" id="UC_SYNC-to-UC16" style="stroke:#42526E;stroke-width:1;stroke-dasharray:7,7;"/><polygon fill="#42526E" points="574.48,503.8069,565.4676,499.8348,569.48,503.8224,565.4925,507.8348,574.48,503.8069" style="stroke:#42526E;stroke-width:1;stroke-linejoin:miter;stroke-miterlimit:10;"/><text fill="#000000" font-family="'Segoe UI'" font-size="12" lengthAdjust="spacing" textLength="58.1602" x="457.06" y="501.1555">&#171;include&#187;</text></g><!--link UC_DASH to UC_AUTH--><g class="link" data-entity-1="ent0009" data-entity-2="ent0006" data-link-type="dependency" data-source-line="110" id="lnk68"><path d="M373.5,413.8169 C431.93,395.0769 521.119,366.4842 579.379,347.7942" fill="none" id="UC_DASH-to-UC_AUTH" style="stroke:#42526E;stroke-width:1;stroke-dasharray:7,7;"/><polygon fill="#42526E" points="584.14,346.2669,574.3483,345.2073,579.379,347.7942,576.7921,352.8249,584.14,346.2669" style="stroke:#42526E;stroke-width:1;stroke-linejoin:miter;stroke-miterlimit:10;"/><text fill="#000000" font-family="'Segoe UI'" font-size="12" lengthAdjust="spacing" textLength="58.1602" x="457.06" y="368.1955">&#171;include&#187;</text></g><!--link UC_PPTX to UC_B2B--><g class="link" data-entity-1="ent0016" data-entity-2="ent0014" data-link-type="dependency" data-source-line="111" id="lnk69"><path d="M383.37,802.7369 C438.59,793.0969 513.9046,779.9473 569.0846,770.3073" fill="none" id="UC_PPTX-to-UC_B2B" style="stroke:#42526E;stroke-width:1;stroke-dasharray:7,7;"/><polygon fill="#42526E" points="574.01,769.4469,564.4559,767.0554,569.0846,770.3073,565.8327,774.936,574.01,769.4469" style="stroke:#42526E;stroke-width:1;stroke-linejoin:miter;stroke-miterlimit:10;"/><text fill="#000000" font-family="'Segoe UI'" font-size="12" lengthAdjust="spacing" textLength="58.1602" x="457.06" y="778.3155">&#171;include&#187;</text></g><?plantuml-src XLPRJnjN47xVNp4YBwsQXE00QQi8oRTDd0jsVKb2XOGEzc9Mc5sqNYjAeqfS2aGYLIv5IjGgZQZwMibSB1mmpbyuvo_abtJEsNFiixiMoKjWpZSptynyCql3MlB1Ty6pwyi-r6pFglgswnZD5TjP8nvPXJLINI5rg-G_QrZ0dubJRrWQeBbCQkvJswd34caqzHVFRJcrjEivbWVVQ_QQjKHQ3Tzq7N-Mh5emLhBghWMLtDXeKCd-nOA9XFQOz3ptQTfjk1vScKnC9QQpsYEf-gwNGjfrIK30CjbioZHZCDUhMPw4tBWnbKYdDKYhQLL9quh5CiM_4S1BeybEngDDcbFchH50FLh6p4vaf_Ncgb5ydTqGEYAYuTi-JhRIj22D9S2NzNrqM7Cz7qTg6A9BC4O_qZuzPo_fAVv_HDjiatRuxsD0chnwRm1yJKzeZtRf1Uso3RR9rWMupzR1zUe2JcghjgFmfkrOgPomBzg6CQ2AaGw229YeHzj3JcFmt310DGbnRzasaZe1sWNw6VFrsM-ONv1xZa1Gqz6WXMGPni5Q9NRZE_eP6Qu7vGaUbVH2ibA-6t7z2zdiqWksHpy1FQDjUYYAxB3DUGSJzdcHLo58pZRmfn5X2yMycNkGnSY_XajuHp_Gzt6w-nZY1IR2xl7w16hUmNPqH6ExoADx5LIvtCRsLAvCiXGjuO0pPjk25Ou7PzbcEyZs5PJDal8hpSsc8tx_qJEsWVKW3RO9wT8ZXSq-AUIBvLYFzmBAW4heeoEIr1EayibY9jw20smWAeLjiGqvHdh2jZ0pcY6LICMxyuyOmZaMi8CG8HKPWBQnIyXtC0v4zWRv4wb8e0z2qtqHeIjaX9r13bi1UUKuctrSYdZ-WUBa6bWVTB9GA3_XoT7KmJ3uB6ZXup0GnyGRy15BQNE1GSQkspvfn2ekkhWwP8tB3sM5jRS3WZ9VL-YaopS6npGUm7fSBP84XtnI98hvPEPXiX3diI-7reOvjtKFDoJ6upvn5ecZZHS9dF7uOj5tfIhvuXuFYvwx5rFZ4Nj5JzbBY3h3bvrzK3kXl1T-dit5o9PyihGaRq9aCc8cV3FEG2od6YUEMWLzb8mg_Ksm6vmJNp8Kn52r-Vkn0lfYvRQm4HV1CW8z6cgketppffbBPqTu2ycYopY_5btEM9pE4w5VFinZX6m71t0Gh7Wd4kdVuFZmt0zj9vSVoEnklfmVDTykvZcMsNhyOaIRzwTemeQixapUR-GLyfntlgdalXtScrpoJZpPtnXZbxt121T1lTXQVkxZXvdlImyN2Ai8hpBRbYaIb_dGG_OxJk0ScHyFEdypul4ke8yrdGg1omt1hSDReoxdPBoAzsA1Ea7f-icCbF4uzzC35EzRI16_kXoMy0_9qVhdeX4uuOWDUu5TFkJqb6FaN5NMy7EBVxIHvef2H6NyMcWIBm4qdpdL1Q_bIEJ4j2WEo-FVRBXsRMRmjTCDwZkbsyJtH3U83uLka5y3tHJS-f05hw_-kpYgeTpyEEe6TQXq6nwJyA_YEkWcljjX9hY_ka4kPSY4gnKgcKiwn4rib27-WD6TGWQHAMJXN4866MVHbeR4yCURmnyd3KEs6QvVdn4IWX_XzctRgJPQDMjc9lgSklmvVUdpn7JycSzSFWkHn15yMWg1euq0_WS0?></g></svg>