<svg width="920" height="276" viewBox="0 0 920 276" fill="none" xmlns="http://www.w3.org/2000/svg">
<path d="M120.347 218.82H206.869V274.295H151.33C103.549 274.295 64.8088 235.6 64.8088 187.873V1.54346H120.347V67.6806H185.145V123.155H120.347V218.82Z" fill="black"/>
<path d="M216.123 218.821H367.002V274.296H216.123V218.821ZM284.131 92.2092C301.248 92.2092 315.114 106.059 315.114 123.156C315.114 140.254 301.248 154.104 284.131 154.104H216.123V209.578H284.131C320.924 209.578 352.433 186.521 364.913 154.104C368.625 144.487 370.653 134.056 370.653 123.156C370.653 75.5057 331.842 36.7346 284.131 36.7346C236.421 36.7346 197.61 75.5007 197.61 123.156H253.148C253.148 106.059 267.014 92.2092 284.131 92.2092Z" fill="black"/>
<path d="M55.5386 67.6677H0V123.142H55.5386V67.6677Z" fill="#FF3495"/>
<path d="M750.366 1.44971C761.634 1.44971 772.564 5.30098 781.343 12.3647L907.978 114.259C915.396 120.228 919.711 129.236 919.711 138.757V253.632C919.711 265.044 910.459 274.296 899.047 274.296H585.784C574.483 274.296 563.523 270.422 554.732 263.32L438.55 169.458C431.16 163.489 426.866 154.498 426.866 144.999V22.1128C426.866 10.7009 436.117 1.44993 447.529 1.44971H750.366Z" fill="black"/>
<path d="M572.05 61.7458V111.186H575.434L607.34 61.7458H631.119V134.613H612.723V85.3162H609.165L577.388 134.613H553.797V61.7458H572.05Z" fill="white"/>
<path d="M539.993 53.7828H483.546V75.0779H513.728C537.586 75.0779 548.078 84.8514 548.078 102.817V107.019C548.078 125.416 537.442 134.614 513.728 134.614H464.576V38.3203L539.993 38.3203V53.7828ZM485.792 91.5814C484.552 91.5814 483.546 92.5866 483.546 93.8267L483.534 116.082C483.534 117.323 484.54 118.329 485.78 118.329H525.745C526.985 118.329 527.991 117.324 527.991 116.084L528.003 93.8284C528.003 92.5878 526.997 91.5814 525.757 91.5814H485.792Z" fill="white"/>
<path d="M675.422 60.8381C698.705 60.8381 711.421 68.2219 711.421 79.8633V81.3005C711.421 87.9118 707.253 92.7983 699.78 95.529V98.9783C708.69 101.565 713.433 106.164 713.433 114.069V115.506C713.433 127.866 698.74 136.305 675.457 136.305H673.625C653.125 136.305 638.669 128.147 637.346 108.123C637.28 107.128 637.247 106.103 637.247 105.049H654.325C654.325 117.735 658.867 122.285 673.622 122.285H675.454C688.246 122.285 694.462 119.818 694.462 113.925V112.632C694.462 106.452 689.288 104.725 679.515 104.725H665.43L665.423 90.6699H679.508C687.556 90.6699 692.593 89.349 692.593 83.6001V82.4503C692.593 76.5577 686.758 74.989 675.404 74.989H673.59C659.269 74.989 654.325 78.1851 654.325 90.7519H637.247C637.247 68.5477 652.302 60.8381 673.59 60.8381H675.422Z" fill="white"/>
<path d="M655.573 162.538L655.573 192.317H693.872L693.872 162.538H712.14V235.405H693.872L693.872 206.372H655.573L655.573 235.405H637.117V162.538H655.573Z" fill="white"/>
<path d="M844.808 161.244C866.941 161.244 882.463 171.736 882.463 191.139V194.105H863.909V180.159C863.909 178.918 862.903 177.913 861.662 177.913H823.91C822.67 177.913 821.664 178.918 821.664 180.159V217.911C821.664 219.151 822.67 220.157 823.91 220.157H861.662C862.903 220.157 863.909 219.151 863.909 217.911V204.583H882.463V207.667C882.462 226.207 866.941 236.842 844.808 236.842H841.399C818.403 236.842 803.168 225.631 803.168 202.923V195.45C803.168 172.742 818.403 161.244 841.399 161.244H844.808Z" fill="white"/>
<path d="M758.835 161.439C780.615 161.439 797.236 173.478 797.236 195.457C797.236 203.64 796.903 203.639 796.903 203.639H735.622C735.622 216.988 744.374 223.447 756.399 223.447H758.835C770.584 223.447 777.319 219.285 779.468 211.677H796.377C794.227 226.892 781.761 236.94 758.835 236.94H756.399C734.619 236.94 718.14 225.887 718.14 203.065V195.457C718.14 172.635 734.475 161.439 756.399 161.439H758.835ZM735.622 191.295H779.755C778.895 180.673 770.728 174.788 758.835 174.788H756.399C743.933 174.788 736.481 180.529 735.622 191.295Z" fill="white"/>
<path d="M785.548 68.3264H730.009V123.801H785.548V68.3264Z" fill="#FF3495"/>
</svg>
